G75*
%MOIN*%
%OFA0B0*%
%FSLAX25Y25*%
%IPPOS*%
%LPD*%
%AMOC8*
5,1,8,0,0,1.08239X$1,22.5*
%
%ADD10C,0.00394*%
%ADD11C,0.00300*%
%ADD12C,0.00500*%
%ADD13C,0.00600*%
%ADD14C,0.00000*%
%ADD15R,0.00100X0.00700*%
%ADD16R,0.00100X0.01600*%
%ADD17R,0.00100X0.00800*%
%ADD18R,0.00100X0.01000*%
%ADD19R,0.00100X0.01100*%
%ADD20R,0.00100X0.02200*%
%ADD21R,0.00100X0.01400*%
%ADD22R,0.00100X0.01300*%
%ADD23R,0.00100X0.02700*%
%ADD24R,0.00100X0.02000*%
%ADD25R,0.00100X0.01500*%
%ADD26R,0.00100X0.03100*%
%ADD27R,0.00100X0.02600*%
%ADD28R,0.00100X0.01700*%
%ADD29R,0.00100X0.03400*%
%ADD30R,0.00100X0.03200*%
%ADD31R,0.00100X0.01800*%
%ADD32R,0.00100X0.03700*%
%ADD33R,0.00100X0.03600*%
%ADD34R,0.00100X0.01900*%
%ADD35R,0.00100X0.04000*%
%ADD36R,0.00100X0.04200*%
%ADD37R,0.00100X0.02100*%
%ADD38R,0.00100X0.04700*%
%ADD39R,0.00100X0.04400*%
%ADD40R,0.00100X0.05200*%
%ADD41R,0.00100X0.04600*%
%ADD42R,0.00100X0.02300*%
%ADD43R,0.00100X0.05700*%
%ADD44R,0.00100X0.04800*%
%ADD45R,0.00100X0.06100*%
%ADD46R,0.00100X0.05000*%
%ADD47R,0.00100X0.02400*%
%ADD48R,0.00100X0.06200*%
%ADD49R,0.00100X0.06400*%
%ADD50R,0.00100X0.05300*%
%ADD51R,0.00100X0.05500*%
%ADD52R,0.00100X0.02500*%
%ADD53R,0.00100X0.06600*%
%ADD54R,0.00100X0.05800*%
%ADD55R,0.00100X0.05900*%
%ADD56R,0.00100X0.06000*%
%ADD57R,0.00100X0.06700*%
%ADD58R,0.00100X0.06800*%
%ADD59R,0.00100X0.02800*%
%ADD60R,0.00100X0.06500*%
%ADD61R,0.00100X0.02900*%
%ADD62R,0.00100X0.06900*%
%ADD63R,0.00100X0.03000*%
%ADD64R,0.00100X0.03300*%
%ADD65R,0.00100X0.01200*%
%ADD66R,0.00100X0.00600*%
%ADD67R,0.00100X0.03500*%
%ADD68R,0.00100X0.03800*%
%ADD69R,0.00100X0.04300*%
%ADD70R,0.00100X0.04500*%
%ADD71R,0.00100X0.04900*%
%ADD72R,0.00100X0.03900*%
%ADD73R,0.00100X0.05100*%
%ADD74R,0.00100X0.05400*%
%ADD75R,0.00100X0.05600*%
%ADD76R,0.00100X0.04100*%
%ADD77R,0.00100X0.07600*%
%ADD78R,0.00100X0.07700*%
%ADD79R,0.00100X0.06300*%
%ADD80R,0.00100X0.07800*%
%ADD81R,0.00100X0.07300*%
%ADD82R,0.00100X0.07400*%
%ADD83R,0.00100X0.07200*%
%ADD84R,0.00100X0.07100*%
%ADD85R,0.00100X0.07000*%
%ADD86R,0.00100X0.00900*%
%ADD87R,0.00100X0.00200*%
%ADD88C,0.00591*%
%ADD89R,0.00060X0.00300*%
%ADD90R,0.00060X0.00540*%
%ADD91R,0.00060X0.00720*%
%ADD92R,0.00060X0.00840*%
%ADD93R,0.00060X0.00960*%
%ADD94R,0.00060X0.01020*%
%ADD95R,0.00060X0.01080*%
%ADD96R,0.00060X0.01140*%
%ADD97R,0.00060X0.01200*%
%ADD98R,0.00060X0.01260*%
%ADD99R,0.00060X0.01260*%
%ADD100R,0.00060X0.01320*%
%ADD101R,0.00060X0.00420*%
%ADD102R,0.00060X0.01380*%
%ADD103R,0.00060X0.00600*%
%ADD104R,0.00060X0.01440*%
%ADD105R,0.00060X0.00780*%
%ADD106R,0.00060X0.01440*%
%ADD107R,0.00060X0.00900*%
%ADD108R,0.00060X0.00960*%
%ADD109R,0.00060X0.01020*%
%ADD110R,0.00060X0.01020*%
%ADD111R,0.00060X0.01200*%
%ADD112R,0.00060X0.01800*%
%ADD113R,0.00060X0.02100*%
%ADD114R,0.00060X0.02340*%
%ADD115R,0.00060X0.01380*%
%ADD116R,0.00060X0.02580*%
%ADD117R,0.00060X0.02760*%
%ADD118R,0.00060X0.01380*%
%ADD119R,0.00060X0.01380*%
%ADD120R,0.00060X0.02940*%
%ADD121R,0.00060X0.01320*%
%ADD122R,0.00060X0.03120*%
%ADD123R,0.00060X0.03300*%
%ADD124R,0.00060X0.03480*%
%ADD125R,0.00060X0.03660*%
%ADD126R,0.00060X0.01140*%
%ADD127R,0.00060X0.03780*%
%ADD128R,0.00060X0.03900*%
%ADD129R,0.00060X0.04080*%
%ADD130R,0.00060X0.00900*%
%ADD131R,0.00060X0.04140*%
%ADD132R,0.00060X0.04320*%
%ADD133R,0.00060X0.00660*%
%ADD134R,0.00060X0.01680*%
%ADD135R,0.00060X0.02400*%
%ADD136R,0.00060X0.00480*%
%ADD137R,0.00060X0.02160*%
%ADD138R,0.00060X0.00120*%
%ADD139R,0.00060X0.01980*%
%ADD140R,0.00060X0.01260*%
%ADD141R,0.00060X0.01920*%
%ADD142R,0.00060X0.01140*%
%ADD143R,0.00060X0.01860*%
%ADD144R,0.00060X0.01860*%
%ADD145R,0.00060X0.01080*%
%ADD146R,0.00060X0.01740*%
%ADD147R,0.00060X0.00960*%
%ADD148R,0.00060X0.01680*%
%ADD149R,0.00060X0.01620*%
%ADD150R,0.00060X0.00780*%
%ADD151R,0.00060X0.01620*%
%ADD152R,0.00060X0.00660*%
%ADD153R,0.00060X0.00420*%
%ADD154R,0.00060X0.01560*%
%ADD155R,0.00060X0.01560*%
%ADD156R,0.00060X0.01500*%
%ADD157R,0.00060X0.01560*%
%ADD158R,0.00060X0.00840*%
%ADD159R,0.00060X0.01620*%
%ADD160R,0.00060X0.00840*%
%ADD161R,0.00060X0.01920*%
%ADD162R,0.00060X0.00780*%
%ADD163R,0.00060X0.02040*%
%ADD164R,0.00060X0.02460*%
%ADD165R,0.00060X0.02880*%
%ADD166R,0.00060X0.02220*%
%ADD167R,0.00060X0.03240*%
%ADD168R,0.00060X0.02340*%
%ADD169R,0.00060X0.03600*%
%ADD170R,0.00060X0.02580*%
%ADD171R,0.00060X0.00780*%
%ADD172R,0.00060X0.04200*%
%ADD173R,0.00060X0.03000*%
%ADD174R,0.00060X0.04500*%
%ADD175R,0.00060X0.03240*%
%ADD176R,0.00060X0.04740*%
%ADD177R,0.00060X0.03420*%
%ADD178R,0.00060X0.04980*%
%ADD179R,0.00060X0.03360*%
%ADD180R,0.00060X0.05160*%
%ADD181R,0.00060X0.05400*%
%ADD182R,0.00060X0.05640*%
%ADD183R,0.00060X0.05820*%
%ADD184R,0.00060X0.06000*%
%ADD185R,0.00060X0.06180*%
%ADD186R,0.00060X0.03480*%
%ADD187R,0.00060X0.02280*%
%ADD188R,0.00060X0.03060*%
%ADD189R,0.00060X0.01740*%
%ADD190R,0.00060X0.02760*%
%ADD191R,0.00060X0.02700*%
%ADD192R,0.00060X0.05280*%
%ADD193R,0.00060X0.00660*%
%ADD194R,0.00060X0.00240*%
%ADD195R,0.00060X0.04260*%
%ADD196R,0.00060X0.00420*%
%ADD197R,0.00060X0.00060*%
%ADD198R,0.00060X0.04080*%
%ADD199R,0.00060X0.01080*%
%ADD200R,0.00060X0.00300*%
%ADD201R,0.00060X0.03840*%
%ADD202R,0.00060X0.00060*%
%ADD203R,0.00060X0.00240*%
%ADD204R,0.00060X0.03720*%
%ADD205R,0.00060X0.00180*%
%ADD206R,0.00060X0.03540*%
%ADD207R,0.00060X0.03360*%
%ADD208R,0.00060X0.00360*%
%ADD209R,0.00060X0.03240*%
%ADD210R,0.00060X0.00420*%
%ADD211R,0.00060X0.03120*%
%ADD212R,0.00060X0.02880*%
%ADD213R,0.00060X0.02880*%
%ADD214R,0.00060X0.02820*%
%ADD215R,0.00060X0.02820*%
%ADD216R,0.00060X0.02820*%
%ADD217R,0.00060X0.03060*%
%ADD218R,0.00060X0.00720*%
%ADD219R,0.00060X0.03120*%
%ADD220R,0.00060X0.01920*%
%ADD221R,0.00060X0.00720*%
%ADD222R,0.00060X0.03180*%
%ADD223R,0.00060X0.02040*%
%ADD224R,0.00060X0.02280*%
%ADD225R,0.00060X0.00960*%
%ADD226R,0.00060X0.02460*%
%ADD227R,0.00060X0.01020*%
%ADD228R,0.00060X0.00720*%
%ADD229R,0.00060X0.01080*%
%ADD230R,0.00060X0.00360*%
%ADD231R,0.00060X0.01140*%
%ADD232R,0.00060X0.01260*%
%ADD233R,0.00060X0.01680*%
%ADD234R,0.00060X0.01740*%
%ADD235R,0.00060X0.02940*%
%ADD236R,0.00060X0.02520*%
%ADD237R,0.00060X0.01320*%
%ADD238R,0.00060X0.01500*%
%ADD239R,0.00060X0.01860*%
%ADD240R,0.00060X0.02160*%
%ADD241R,0.00060X0.04020*%
%ADD242R,0.00060X0.03960*%
%ADD243R,0.00060X0.03720*%
%ADD244R,0.00060X0.03660*%
%ADD245R,0.00060X0.02940*%
%ADD246R,0.00060X0.02640*%
%ADD247R,0.00060X0.02520*%
%ADD248R,0.00060X0.02340*%
D10*
X0059760Y0017852D02*
X0059360Y0018793D01*
X0059205Y0019287D01*
X0059100Y0019798D01*
X0058994Y0020310D01*
X0058939Y0020839D01*
X0058939Y0035160D01*
X0011695Y0035160D01*
X0011695Y0082404D01*
X0058939Y0082404D01*
X0058939Y0096725D01*
X0058994Y0097254D01*
X0059100Y0097765D01*
X0059205Y0098276D01*
X0059360Y0098770D01*
X0059760Y0099711D01*
X0060005Y0100159D01*
X0060288Y0100578D01*
X0060572Y0100997D01*
X0060895Y0101387D01*
X0061252Y0101744D01*
X0061609Y0102101D01*
X0061999Y0102424D01*
X0062418Y0102708D01*
X0062838Y0102991D01*
X0063285Y0103236D01*
X0064226Y0103636D01*
X0064720Y0103791D01*
X0065231Y0103897D01*
X0065743Y0104002D01*
X0066272Y0104057D01*
X0165750Y0104057D01*
X0166308Y0104105D01*
X0167439Y0104286D01*
X0168012Y0104419D01*
X0168585Y0104591D01*
X0169158Y0104762D01*
X0169731Y0104972D01*
X0170860Y0105460D01*
X0171416Y0105737D01*
X0171956Y0106043D01*
X0172495Y0106350D01*
X0173018Y0106685D01*
X0173517Y0107045D01*
X0174016Y0107405D01*
X0174489Y0107789D01*
X0175372Y0108597D01*
X0175780Y0109021D01*
X0176515Y0109899D01*
X0176841Y0110354D01*
X0177119Y0110818D01*
X0177895Y0112119D01*
X0178672Y0113420D01*
X0179448Y0114721D01*
X0180225Y0116022D01*
X0181002Y0117323D01*
X0181778Y0118624D01*
X0182555Y0119926D01*
X0183331Y0121227D01*
X0183609Y0121691D01*
X0183935Y0122146D01*
X0184303Y0122585D01*
X0184670Y0123024D01*
X0185078Y0123448D01*
X0185520Y0123852D01*
X0185961Y0124256D01*
X0186435Y0124640D01*
X0186933Y0125000D01*
X0187432Y0125360D01*
X0187955Y0125695D01*
X0188494Y0126002D01*
X0189034Y0126308D01*
X0189590Y0126585D01*
X0190719Y0127073D01*
X0191292Y0127283D01*
X0191865Y0127454D01*
X0192438Y0127626D01*
X0193011Y0127759D01*
X0193577Y0127850D01*
X0194142Y0127940D01*
X0194700Y0127988D01*
X0209087Y0127988D01*
X0209616Y0127932D01*
X0210127Y0127827D01*
X0210638Y0127722D01*
X0211132Y0127566D01*
X0211603Y0127366D01*
X0212073Y0127166D01*
X0212521Y0126922D01*
X0212940Y0126638D01*
X0213359Y0126354D01*
X0213749Y0126031D01*
X0214106Y0125675D01*
X0214463Y0125318D01*
X0214786Y0124927D01*
X0215070Y0124508D01*
X0215353Y0124089D01*
X0215598Y0123642D01*
X0215798Y0123171D01*
X0215998Y0122700D01*
X0216153Y0122207D01*
X0216259Y0121695D01*
X0216364Y0121184D01*
X0216419Y0120655D01*
X0216419Y0020839D01*
X0216364Y0020310D01*
X0216259Y0019798D01*
X0216153Y0019287D01*
X0215998Y0018793D01*
X0215798Y0018323D01*
X0215598Y0017852D01*
X0215353Y0017405D01*
X0215070Y0016985D01*
X0214786Y0016566D01*
X0214463Y0016176D01*
X0214106Y0015819D01*
X0213749Y0015462D01*
X0213359Y0015139D01*
X0212940Y0014855D01*
X0212521Y0014572D01*
X0212073Y0014327D01*
X0211603Y0014127D01*
X0211132Y0013927D01*
X0210638Y0013772D01*
X0210127Y0013667D01*
X0209616Y0013561D01*
X0209087Y0013506D01*
X0066272Y0013506D01*
X0065743Y0013561D01*
X0065231Y0013667D01*
X0064720Y0013772D01*
X0064226Y0013927D01*
X0063756Y0014127D01*
X0063285Y0014327D01*
X0062838Y0014572D01*
X0062418Y0014855D01*
X0061999Y0015139D01*
X0061609Y0015462D01*
X0061252Y0015819D01*
X0060895Y0016176D01*
X0060572Y0016566D01*
X0060288Y0016985D01*
X0060005Y0017405D01*
X0059760Y0017852D01*
X0222347Y0020839D02*
X0222403Y0020310D01*
X0222508Y0019798D01*
X0222614Y0019287D01*
X0222769Y0018793D01*
X0223169Y0017852D01*
X0223413Y0017405D01*
X0223697Y0016985D01*
X0223981Y0016566D01*
X0224304Y0016176D01*
X0225017Y0015462D01*
X0225408Y0015139D01*
X0225827Y0014855D01*
X0226246Y0014572D01*
X0226694Y0014327D01*
X0227635Y0013927D01*
X0228128Y0013772D01*
X0228640Y0013667D01*
X0229151Y0013561D01*
X0229680Y0013506D01*
X0372495Y0013506D01*
X0373024Y0013561D01*
X0373535Y0013667D01*
X0374047Y0013772D01*
X0374541Y0013927D01*
X0375482Y0014327D01*
X0375929Y0014572D01*
X0376348Y0014855D01*
X0376767Y0015139D01*
X0377158Y0015462D01*
X0377872Y0016176D01*
X0378195Y0016566D01*
X0378478Y0016985D01*
X0378762Y0017405D01*
X0379007Y0017852D01*
X0379206Y0018323D01*
X0379406Y0018793D01*
X0379562Y0019287D01*
X0379667Y0019798D01*
X0379772Y0020310D01*
X0379828Y0020839D01*
X0379828Y0021380D02*
X0379828Y0096725D01*
X0379772Y0097254D01*
X0379667Y0097765D01*
X0379562Y0098276D01*
X0379406Y0098770D01*
X0379206Y0099241D01*
X0379007Y0099711D01*
X0378762Y0100159D01*
X0378195Y0100997D01*
X0377872Y0101387D01*
X0377158Y0102101D01*
X0376767Y0102424D01*
X0376348Y0102708D01*
X0375929Y0102991D01*
X0375482Y0103236D01*
X0375011Y0103436D01*
X0374541Y0103636D01*
X0374047Y0103791D01*
X0373535Y0103897D01*
X0373024Y0104002D01*
X0372495Y0104057D01*
X0229680Y0104057D01*
X0229151Y0104002D01*
X0228640Y0103897D01*
X0228128Y0103791D01*
X0227635Y0103636D01*
X0227164Y0103436D01*
X0226694Y0103236D01*
X0226246Y0102991D01*
X0225827Y0102708D01*
X0225408Y0102424D01*
X0225017Y0102101D01*
X0224304Y0101387D01*
X0223981Y0100997D01*
X0223697Y0100578D01*
X0223413Y0100159D01*
X0223169Y0099711D01*
X0222969Y0099241D01*
X0222769Y0098770D01*
X0222614Y0098276D01*
X0222508Y0097765D01*
X0222403Y0097254D01*
X0222347Y0096725D01*
X0222347Y0020839D01*
X0202334Y0104946D02*
X0201693Y0104815D01*
X0201053Y0104684D01*
X0200389Y0104615D01*
X0199030Y0104615D01*
X0198367Y0104684D01*
X0197726Y0104815D01*
X0197085Y0104946D01*
X0196467Y0105139D01*
X0195879Y0105388D01*
X0195290Y0105637D01*
X0194730Y0105942D01*
X0194207Y0106296D01*
X0193683Y0106649D01*
X0193195Y0107052D01*
X0192305Y0107943D01*
X0191902Y0108430D01*
X0191548Y0108954D01*
X0191194Y0109478D01*
X0190890Y0110037D01*
X0190641Y0110626D01*
X0190392Y0111215D01*
X0190198Y0111833D01*
X0190067Y0112474D01*
X0189936Y0113114D01*
X0189867Y0113778D01*
X0189867Y0115137D01*
X0189936Y0115800D01*
X0190067Y0116441D01*
X0190198Y0117081D01*
X0190392Y0117700D01*
X0190641Y0118288D01*
X0190890Y0118877D01*
X0191194Y0119437D01*
X0191902Y0120484D01*
X0192305Y0120972D01*
X0192750Y0121417D01*
X0193195Y0121862D01*
X0193683Y0122265D01*
X0194207Y0122619D01*
X0194730Y0122972D01*
X0195290Y0123277D01*
X0195879Y0123526D01*
X0196467Y0123775D01*
X0197085Y0123969D01*
X0197726Y0124100D01*
X0198367Y0124231D01*
X0199030Y0124300D01*
X0200389Y0124300D01*
X0201053Y0124231D01*
X0202334Y0123969D01*
X0202952Y0123775D01*
X0203541Y0123526D01*
X0204130Y0123277D01*
X0204689Y0122972D01*
X0205736Y0122265D01*
X0206224Y0121862D01*
X0206669Y0121417D01*
X0207115Y0120972D01*
X0207517Y0120484D01*
X0208225Y0119437D01*
X0208530Y0118877D01*
X0208779Y0118288D01*
X0209028Y0117700D01*
X0209221Y0117081D01*
X0209483Y0115800D01*
X0209552Y0115137D01*
X0209552Y0113778D01*
X0209483Y0113114D01*
X0209352Y0112474D01*
X0209221Y0111833D01*
X0209028Y0111215D01*
X0208779Y0110626D01*
X0208530Y0110037D01*
X0208225Y0109478D01*
X0207871Y0108954D01*
X0207517Y0108430D01*
X0207115Y0107943D01*
X0206224Y0107052D01*
X0205736Y0106649D01*
X0204689Y0105942D01*
X0204130Y0105637D01*
X0203541Y0105388D01*
X0202952Y0105139D01*
X0202334Y0104946D01*
D11*
X0071783Y0100452D02*
X0071783Y0098517D01*
X0070816Y0097550D01*
X0069848Y0098517D01*
X0069848Y0100452D01*
X0068837Y0099969D02*
X0068353Y0100452D01*
X0067386Y0100452D01*
X0066902Y0099969D01*
X0068837Y0098034D01*
X0068353Y0097550D01*
X0067386Y0097550D01*
X0066902Y0098034D01*
X0066902Y0099969D01*
X0068837Y0099969D02*
X0068837Y0098034D01*
X0065890Y0098034D02*
X0065890Y0097550D01*
X0065407Y0097550D01*
X0065407Y0098034D01*
X0065890Y0098034D01*
X0064417Y0097550D02*
X0062482Y0099485D01*
X0062482Y0099969D01*
X0062966Y0100452D01*
X0063933Y0100452D01*
X0064417Y0099969D01*
X0064417Y0097550D02*
X0062482Y0097550D01*
X0225983Y0027138D02*
X0225983Y0025203D01*
X0227918Y0027138D01*
X0228402Y0027138D01*
X0228886Y0026655D01*
X0228886Y0025687D01*
X0228402Y0025203D01*
X0226467Y0024214D02*
X0225983Y0024214D01*
X0225983Y0023730D01*
X0226467Y0023730D01*
X0226467Y0024214D01*
X0226467Y0022719D02*
X0225983Y0022235D01*
X0225983Y0021267D01*
X0226467Y0020784D01*
X0228402Y0022719D01*
X0226467Y0022719D01*
X0228402Y0022719D02*
X0228886Y0022235D01*
X0228886Y0021267D01*
X0228402Y0020784D01*
X0226467Y0020784D01*
X0226951Y0019772D02*
X0228886Y0019772D01*
X0228886Y0017837D02*
X0226951Y0017837D01*
X0225983Y0018805D01*
X0226951Y0019772D01*
D12*
X0183101Y0020808D02*
X0166566Y0020808D01*
X0166566Y0096792D01*
X0183101Y0096792D01*
X0183101Y0020808D01*
X0181448Y0024351D02*
X0181448Y0093249D01*
X0172156Y0093249D01*
X0168219Y0088328D01*
X0168219Y0028288D01*
X0172156Y0024351D01*
X0181448Y0024351D01*
X0330066Y0020808D02*
X0346601Y0020808D01*
X0346601Y0096792D01*
X0330066Y0096792D01*
X0330066Y0020808D01*
X0335656Y0024351D02*
X0344948Y0024351D01*
X0344948Y0093249D01*
X0335656Y0093249D01*
X0331719Y0088328D01*
X0331719Y0028288D01*
X0335656Y0024351D01*
D13*
X0326275Y0024101D02*
X0325841Y0023667D01*
X0326275Y0024101D02*
X0326275Y0024968D01*
X0325841Y0025402D01*
X0325408Y0025402D01*
X0323673Y0023667D01*
X0323673Y0025402D01*
X0348476Y0025402D02*
X0348476Y0023667D01*
X0348476Y0024534D02*
X0351078Y0024534D01*
X0350211Y0023667D01*
X0187578Y0024534D02*
X0186711Y0023667D01*
X0187578Y0024534D02*
X0184976Y0024534D01*
X0184976Y0023667D02*
X0184976Y0025402D01*
X0162775Y0024968D02*
X0162775Y0024101D01*
X0162341Y0023667D01*
X0162775Y0024968D02*
X0162341Y0025402D01*
X0161908Y0025402D01*
X0160173Y0023667D01*
X0160173Y0025402D01*
X0160213Y0089415D02*
X0159779Y0089849D01*
X0159779Y0090716D01*
X0160213Y0091150D01*
X0160646Y0091150D01*
X0161080Y0090716D01*
X0161080Y0090282D01*
X0161080Y0090716D02*
X0161514Y0091150D01*
X0161948Y0091150D01*
X0162381Y0090716D01*
X0162381Y0089849D01*
X0161948Y0089415D01*
X0161948Y0092361D02*
X0162381Y0092795D01*
X0162381Y0093663D01*
X0161948Y0094096D01*
X0160213Y0092361D01*
X0159779Y0092795D01*
X0159779Y0093663D01*
X0160213Y0094096D01*
X0161948Y0094096D01*
X0161948Y0092361D02*
X0160213Y0092361D01*
X0184976Y0092291D02*
X0184976Y0091423D01*
X0185410Y0090990D01*
X0186277Y0091857D02*
X0186277Y0092291D01*
X0185843Y0092725D01*
X0185410Y0092725D01*
X0184976Y0092291D01*
X0186277Y0092291D02*
X0186711Y0092725D01*
X0187144Y0092725D01*
X0187578Y0092291D01*
X0187578Y0091423D01*
X0187144Y0090990D01*
X0186711Y0093936D02*
X0187578Y0094804D01*
X0184976Y0094804D01*
X0184976Y0095671D02*
X0184976Y0093936D01*
X0323279Y0093663D02*
X0323279Y0092795D01*
X0323713Y0092361D01*
X0325448Y0094096D01*
X0323713Y0094096D01*
X0323279Y0093663D01*
X0323713Y0092361D02*
X0325448Y0092361D01*
X0325881Y0092795D01*
X0325881Y0093663D01*
X0325448Y0094096D01*
X0325448Y0091150D02*
X0325014Y0091150D01*
X0324580Y0090716D01*
X0324146Y0091150D01*
X0323713Y0091150D01*
X0323279Y0090716D01*
X0323279Y0089849D01*
X0323713Y0089415D01*
X0324580Y0090282D02*
X0324580Y0090716D01*
X0325448Y0091150D02*
X0325881Y0090716D01*
X0325881Y0089849D01*
X0325448Y0089415D01*
X0348476Y0091423D02*
X0348910Y0090990D01*
X0348476Y0091423D02*
X0348476Y0092291D01*
X0348910Y0092725D01*
X0349343Y0092725D01*
X0349777Y0092291D01*
X0349777Y0091857D01*
X0349777Y0092291D02*
X0350211Y0092725D01*
X0350644Y0092725D01*
X0351078Y0092291D01*
X0351078Y0091423D01*
X0350644Y0090990D01*
X0350211Y0093936D02*
X0351078Y0094804D01*
X0348476Y0094804D01*
X0348476Y0095671D02*
X0348476Y0093936D01*
D14*
X0335833Y0094430D02*
X0335835Y0094529D01*
X0335841Y0094629D01*
X0335851Y0094728D01*
X0335865Y0094826D01*
X0335882Y0094924D01*
X0335904Y0095021D01*
X0335929Y0095117D01*
X0335958Y0095212D01*
X0335991Y0095306D01*
X0336028Y0095398D01*
X0336068Y0095489D01*
X0336112Y0095578D01*
X0336160Y0095666D01*
X0336211Y0095751D01*
X0336265Y0095834D01*
X0336322Y0095916D01*
X0336383Y0095994D01*
X0336447Y0096071D01*
X0336513Y0096144D01*
X0336583Y0096215D01*
X0336655Y0096283D01*
X0336730Y0096349D01*
X0336808Y0096411D01*
X0336888Y0096470D01*
X0336970Y0096526D01*
X0337054Y0096578D01*
X0337141Y0096627D01*
X0337229Y0096673D01*
X0337319Y0096715D01*
X0337411Y0096754D01*
X0337504Y0096789D01*
X0337598Y0096820D01*
X0337694Y0096847D01*
X0337791Y0096870D01*
X0337888Y0096890D01*
X0337986Y0096906D01*
X0338085Y0096918D01*
X0338184Y0096926D01*
X0338283Y0096930D01*
X0338383Y0096930D01*
X0338482Y0096926D01*
X0338581Y0096918D01*
X0338680Y0096906D01*
X0338778Y0096890D01*
X0338875Y0096870D01*
X0338972Y0096847D01*
X0339068Y0096820D01*
X0339162Y0096789D01*
X0339255Y0096754D01*
X0339347Y0096715D01*
X0339437Y0096673D01*
X0339525Y0096627D01*
X0339612Y0096578D01*
X0339696Y0096526D01*
X0339778Y0096470D01*
X0339858Y0096411D01*
X0339936Y0096349D01*
X0340011Y0096283D01*
X0340083Y0096215D01*
X0340153Y0096144D01*
X0340219Y0096071D01*
X0340283Y0095994D01*
X0340344Y0095916D01*
X0340401Y0095834D01*
X0340455Y0095751D01*
X0340506Y0095666D01*
X0340554Y0095578D01*
X0340598Y0095489D01*
X0340638Y0095398D01*
X0340675Y0095306D01*
X0340708Y0095212D01*
X0340737Y0095117D01*
X0340762Y0095021D01*
X0340784Y0094924D01*
X0340801Y0094826D01*
X0340815Y0094728D01*
X0340825Y0094629D01*
X0340831Y0094529D01*
X0340833Y0094430D01*
X0340831Y0094331D01*
X0340825Y0094231D01*
X0340815Y0094132D01*
X0340801Y0094034D01*
X0340784Y0093936D01*
X0340762Y0093839D01*
X0340737Y0093743D01*
X0340708Y0093648D01*
X0340675Y0093554D01*
X0340638Y0093462D01*
X0340598Y0093371D01*
X0340554Y0093282D01*
X0340506Y0093194D01*
X0340455Y0093109D01*
X0340401Y0093026D01*
X0340344Y0092944D01*
X0340283Y0092866D01*
X0340219Y0092789D01*
X0340153Y0092716D01*
X0340083Y0092645D01*
X0340011Y0092577D01*
X0339936Y0092511D01*
X0339858Y0092449D01*
X0339778Y0092390D01*
X0339696Y0092334D01*
X0339612Y0092282D01*
X0339525Y0092233D01*
X0339437Y0092187D01*
X0339347Y0092145D01*
X0339255Y0092106D01*
X0339162Y0092071D01*
X0339068Y0092040D01*
X0338972Y0092013D01*
X0338875Y0091990D01*
X0338778Y0091970D01*
X0338680Y0091954D01*
X0338581Y0091942D01*
X0338482Y0091934D01*
X0338383Y0091930D01*
X0338283Y0091930D01*
X0338184Y0091934D01*
X0338085Y0091942D01*
X0337986Y0091954D01*
X0337888Y0091970D01*
X0337791Y0091990D01*
X0337694Y0092013D01*
X0337598Y0092040D01*
X0337504Y0092071D01*
X0337411Y0092106D01*
X0337319Y0092145D01*
X0337229Y0092187D01*
X0337141Y0092233D01*
X0337054Y0092282D01*
X0336970Y0092334D01*
X0336888Y0092390D01*
X0336808Y0092449D01*
X0336730Y0092511D01*
X0336655Y0092577D01*
X0336583Y0092645D01*
X0336513Y0092716D01*
X0336447Y0092789D01*
X0336383Y0092866D01*
X0336322Y0092944D01*
X0336265Y0093026D01*
X0336211Y0093109D01*
X0336160Y0093194D01*
X0336112Y0093282D01*
X0336068Y0093371D01*
X0336028Y0093462D01*
X0335991Y0093554D01*
X0335958Y0093648D01*
X0335929Y0093743D01*
X0335904Y0093839D01*
X0335882Y0093936D01*
X0335865Y0094034D01*
X0335851Y0094132D01*
X0335841Y0094231D01*
X0335835Y0094331D01*
X0335833Y0094430D01*
X0287504Y0067858D02*
X0287506Y0067937D01*
X0287512Y0068016D01*
X0287522Y0068095D01*
X0287536Y0068173D01*
X0287553Y0068250D01*
X0287575Y0068326D01*
X0287600Y0068401D01*
X0287630Y0068474D01*
X0287662Y0068546D01*
X0287699Y0068617D01*
X0287739Y0068685D01*
X0287782Y0068751D01*
X0287828Y0068815D01*
X0287878Y0068877D01*
X0287931Y0068936D01*
X0287986Y0068992D01*
X0288045Y0069046D01*
X0288106Y0069096D01*
X0288169Y0069144D01*
X0288235Y0069188D01*
X0288303Y0069229D01*
X0288373Y0069266D01*
X0288444Y0069300D01*
X0288518Y0069330D01*
X0288592Y0069356D01*
X0288668Y0069378D01*
X0288745Y0069397D01*
X0288823Y0069412D01*
X0288901Y0069423D01*
X0288980Y0069430D01*
X0289059Y0069433D01*
X0289138Y0069432D01*
X0289217Y0069427D01*
X0289296Y0069418D01*
X0289374Y0069405D01*
X0289451Y0069388D01*
X0289528Y0069368D01*
X0289603Y0069343D01*
X0289677Y0069315D01*
X0289750Y0069283D01*
X0289820Y0069248D01*
X0289889Y0069209D01*
X0289956Y0069166D01*
X0290021Y0069120D01*
X0290083Y0069072D01*
X0290143Y0069020D01*
X0290200Y0068965D01*
X0290254Y0068907D01*
X0290305Y0068847D01*
X0290353Y0068784D01*
X0290398Y0068719D01*
X0290440Y0068651D01*
X0290478Y0068582D01*
X0290512Y0068511D01*
X0290543Y0068438D01*
X0290571Y0068363D01*
X0290594Y0068288D01*
X0290614Y0068211D01*
X0290630Y0068134D01*
X0290642Y0068055D01*
X0290650Y0067977D01*
X0290654Y0067898D01*
X0290654Y0067818D01*
X0290650Y0067739D01*
X0290642Y0067661D01*
X0290630Y0067582D01*
X0290614Y0067505D01*
X0290594Y0067428D01*
X0290571Y0067353D01*
X0290543Y0067278D01*
X0290512Y0067205D01*
X0290478Y0067134D01*
X0290440Y0067065D01*
X0290398Y0066997D01*
X0290353Y0066932D01*
X0290305Y0066869D01*
X0290254Y0066809D01*
X0290200Y0066751D01*
X0290143Y0066696D01*
X0290083Y0066644D01*
X0290021Y0066596D01*
X0289956Y0066550D01*
X0289889Y0066507D01*
X0289820Y0066468D01*
X0289750Y0066433D01*
X0289677Y0066401D01*
X0289603Y0066373D01*
X0289528Y0066348D01*
X0289451Y0066328D01*
X0289374Y0066311D01*
X0289296Y0066298D01*
X0289217Y0066289D01*
X0289138Y0066284D01*
X0289059Y0066283D01*
X0288980Y0066286D01*
X0288901Y0066293D01*
X0288823Y0066304D01*
X0288745Y0066319D01*
X0288668Y0066338D01*
X0288592Y0066360D01*
X0288518Y0066386D01*
X0288444Y0066416D01*
X0288373Y0066450D01*
X0288303Y0066487D01*
X0288235Y0066528D01*
X0288169Y0066572D01*
X0288106Y0066620D01*
X0288045Y0066670D01*
X0287986Y0066724D01*
X0287931Y0066780D01*
X0287878Y0066839D01*
X0287828Y0066901D01*
X0287782Y0066965D01*
X0287739Y0067031D01*
X0287699Y0067099D01*
X0287662Y0067170D01*
X0287630Y0067242D01*
X0287600Y0067315D01*
X0287575Y0067390D01*
X0287553Y0067466D01*
X0287536Y0067543D01*
X0287522Y0067621D01*
X0287512Y0067700D01*
X0287506Y0067779D01*
X0287504Y0067858D01*
X0311717Y0043646D02*
X0311719Y0043725D01*
X0311725Y0043804D01*
X0311735Y0043883D01*
X0311749Y0043961D01*
X0311766Y0044038D01*
X0311788Y0044114D01*
X0311813Y0044189D01*
X0311843Y0044262D01*
X0311875Y0044334D01*
X0311912Y0044405D01*
X0311952Y0044473D01*
X0311995Y0044539D01*
X0312041Y0044603D01*
X0312091Y0044665D01*
X0312144Y0044724D01*
X0312199Y0044780D01*
X0312258Y0044834D01*
X0312319Y0044884D01*
X0312382Y0044932D01*
X0312448Y0044976D01*
X0312516Y0045017D01*
X0312586Y0045054D01*
X0312657Y0045088D01*
X0312731Y0045118D01*
X0312805Y0045144D01*
X0312881Y0045166D01*
X0312958Y0045185D01*
X0313036Y0045200D01*
X0313114Y0045211D01*
X0313193Y0045218D01*
X0313272Y0045221D01*
X0313351Y0045220D01*
X0313430Y0045215D01*
X0313509Y0045206D01*
X0313587Y0045193D01*
X0313664Y0045176D01*
X0313741Y0045156D01*
X0313816Y0045131D01*
X0313890Y0045103D01*
X0313963Y0045071D01*
X0314033Y0045036D01*
X0314102Y0044997D01*
X0314169Y0044954D01*
X0314234Y0044908D01*
X0314296Y0044860D01*
X0314356Y0044808D01*
X0314413Y0044753D01*
X0314467Y0044695D01*
X0314518Y0044635D01*
X0314566Y0044572D01*
X0314611Y0044507D01*
X0314653Y0044439D01*
X0314691Y0044370D01*
X0314725Y0044299D01*
X0314756Y0044226D01*
X0314784Y0044151D01*
X0314807Y0044076D01*
X0314827Y0043999D01*
X0314843Y0043922D01*
X0314855Y0043843D01*
X0314863Y0043765D01*
X0314867Y0043686D01*
X0314867Y0043606D01*
X0314863Y0043527D01*
X0314855Y0043449D01*
X0314843Y0043370D01*
X0314827Y0043293D01*
X0314807Y0043216D01*
X0314784Y0043141D01*
X0314756Y0043066D01*
X0314725Y0042993D01*
X0314691Y0042922D01*
X0314653Y0042853D01*
X0314611Y0042785D01*
X0314566Y0042720D01*
X0314518Y0042657D01*
X0314467Y0042597D01*
X0314413Y0042539D01*
X0314356Y0042484D01*
X0314296Y0042432D01*
X0314234Y0042384D01*
X0314169Y0042338D01*
X0314102Y0042295D01*
X0314033Y0042256D01*
X0313963Y0042221D01*
X0313890Y0042189D01*
X0313816Y0042161D01*
X0313741Y0042136D01*
X0313664Y0042116D01*
X0313587Y0042099D01*
X0313509Y0042086D01*
X0313430Y0042077D01*
X0313351Y0042072D01*
X0313272Y0042071D01*
X0313193Y0042074D01*
X0313114Y0042081D01*
X0313036Y0042092D01*
X0312958Y0042107D01*
X0312881Y0042126D01*
X0312805Y0042148D01*
X0312731Y0042174D01*
X0312657Y0042204D01*
X0312586Y0042238D01*
X0312516Y0042275D01*
X0312448Y0042316D01*
X0312382Y0042360D01*
X0312319Y0042408D01*
X0312258Y0042458D01*
X0312199Y0042512D01*
X0312144Y0042568D01*
X0312091Y0042627D01*
X0312041Y0042689D01*
X0311995Y0042753D01*
X0311952Y0042819D01*
X0311912Y0042887D01*
X0311875Y0042958D01*
X0311843Y0043030D01*
X0311813Y0043103D01*
X0311788Y0043178D01*
X0311766Y0043254D01*
X0311749Y0043331D01*
X0311735Y0043409D01*
X0311725Y0043488D01*
X0311719Y0043567D01*
X0311717Y0043646D01*
X0335833Y0023170D02*
X0335835Y0023269D01*
X0335841Y0023369D01*
X0335851Y0023468D01*
X0335865Y0023566D01*
X0335882Y0023664D01*
X0335904Y0023761D01*
X0335929Y0023857D01*
X0335958Y0023952D01*
X0335991Y0024046D01*
X0336028Y0024138D01*
X0336068Y0024229D01*
X0336112Y0024318D01*
X0336160Y0024406D01*
X0336211Y0024491D01*
X0336265Y0024574D01*
X0336322Y0024656D01*
X0336383Y0024734D01*
X0336447Y0024811D01*
X0336513Y0024884D01*
X0336583Y0024955D01*
X0336655Y0025023D01*
X0336730Y0025089D01*
X0336808Y0025151D01*
X0336888Y0025210D01*
X0336970Y0025266D01*
X0337054Y0025318D01*
X0337141Y0025367D01*
X0337229Y0025413D01*
X0337319Y0025455D01*
X0337411Y0025494D01*
X0337504Y0025529D01*
X0337598Y0025560D01*
X0337694Y0025587D01*
X0337791Y0025610D01*
X0337888Y0025630D01*
X0337986Y0025646D01*
X0338085Y0025658D01*
X0338184Y0025666D01*
X0338283Y0025670D01*
X0338383Y0025670D01*
X0338482Y0025666D01*
X0338581Y0025658D01*
X0338680Y0025646D01*
X0338778Y0025630D01*
X0338875Y0025610D01*
X0338972Y0025587D01*
X0339068Y0025560D01*
X0339162Y0025529D01*
X0339255Y0025494D01*
X0339347Y0025455D01*
X0339437Y0025413D01*
X0339525Y0025367D01*
X0339612Y0025318D01*
X0339696Y0025266D01*
X0339778Y0025210D01*
X0339858Y0025151D01*
X0339936Y0025089D01*
X0340011Y0025023D01*
X0340083Y0024955D01*
X0340153Y0024884D01*
X0340219Y0024811D01*
X0340283Y0024734D01*
X0340344Y0024656D01*
X0340401Y0024574D01*
X0340455Y0024491D01*
X0340506Y0024406D01*
X0340554Y0024318D01*
X0340598Y0024229D01*
X0340638Y0024138D01*
X0340675Y0024046D01*
X0340708Y0023952D01*
X0340737Y0023857D01*
X0340762Y0023761D01*
X0340784Y0023664D01*
X0340801Y0023566D01*
X0340815Y0023468D01*
X0340825Y0023369D01*
X0340831Y0023269D01*
X0340833Y0023170D01*
X0340831Y0023071D01*
X0340825Y0022971D01*
X0340815Y0022872D01*
X0340801Y0022774D01*
X0340784Y0022676D01*
X0340762Y0022579D01*
X0340737Y0022483D01*
X0340708Y0022388D01*
X0340675Y0022294D01*
X0340638Y0022202D01*
X0340598Y0022111D01*
X0340554Y0022022D01*
X0340506Y0021934D01*
X0340455Y0021849D01*
X0340401Y0021766D01*
X0340344Y0021684D01*
X0340283Y0021606D01*
X0340219Y0021529D01*
X0340153Y0021456D01*
X0340083Y0021385D01*
X0340011Y0021317D01*
X0339936Y0021251D01*
X0339858Y0021189D01*
X0339778Y0021130D01*
X0339696Y0021074D01*
X0339612Y0021022D01*
X0339525Y0020973D01*
X0339437Y0020927D01*
X0339347Y0020885D01*
X0339255Y0020846D01*
X0339162Y0020811D01*
X0339068Y0020780D01*
X0338972Y0020753D01*
X0338875Y0020730D01*
X0338778Y0020710D01*
X0338680Y0020694D01*
X0338581Y0020682D01*
X0338482Y0020674D01*
X0338383Y0020670D01*
X0338283Y0020670D01*
X0338184Y0020674D01*
X0338085Y0020682D01*
X0337986Y0020694D01*
X0337888Y0020710D01*
X0337791Y0020730D01*
X0337694Y0020753D01*
X0337598Y0020780D01*
X0337504Y0020811D01*
X0337411Y0020846D01*
X0337319Y0020885D01*
X0337229Y0020927D01*
X0337141Y0020973D01*
X0337054Y0021022D01*
X0336970Y0021074D01*
X0336888Y0021130D01*
X0336808Y0021189D01*
X0336730Y0021251D01*
X0336655Y0021317D01*
X0336583Y0021385D01*
X0336513Y0021456D01*
X0336447Y0021529D01*
X0336383Y0021606D01*
X0336322Y0021684D01*
X0336265Y0021766D01*
X0336211Y0021849D01*
X0336160Y0021934D01*
X0336112Y0022022D01*
X0336068Y0022111D01*
X0336028Y0022202D01*
X0335991Y0022294D01*
X0335958Y0022388D01*
X0335929Y0022483D01*
X0335904Y0022579D01*
X0335882Y0022676D01*
X0335865Y0022774D01*
X0335851Y0022872D01*
X0335841Y0022971D01*
X0335835Y0023071D01*
X0335833Y0023170D01*
X0172333Y0023170D02*
X0172335Y0023269D01*
X0172341Y0023369D01*
X0172351Y0023468D01*
X0172365Y0023566D01*
X0172382Y0023664D01*
X0172404Y0023761D01*
X0172429Y0023857D01*
X0172458Y0023952D01*
X0172491Y0024046D01*
X0172528Y0024138D01*
X0172568Y0024229D01*
X0172612Y0024318D01*
X0172660Y0024406D01*
X0172711Y0024491D01*
X0172765Y0024574D01*
X0172822Y0024656D01*
X0172883Y0024734D01*
X0172947Y0024811D01*
X0173013Y0024884D01*
X0173083Y0024955D01*
X0173155Y0025023D01*
X0173230Y0025089D01*
X0173308Y0025151D01*
X0173388Y0025210D01*
X0173470Y0025266D01*
X0173554Y0025318D01*
X0173641Y0025367D01*
X0173729Y0025413D01*
X0173819Y0025455D01*
X0173911Y0025494D01*
X0174004Y0025529D01*
X0174098Y0025560D01*
X0174194Y0025587D01*
X0174291Y0025610D01*
X0174388Y0025630D01*
X0174486Y0025646D01*
X0174585Y0025658D01*
X0174684Y0025666D01*
X0174783Y0025670D01*
X0174883Y0025670D01*
X0174982Y0025666D01*
X0175081Y0025658D01*
X0175180Y0025646D01*
X0175278Y0025630D01*
X0175375Y0025610D01*
X0175472Y0025587D01*
X0175568Y0025560D01*
X0175662Y0025529D01*
X0175755Y0025494D01*
X0175847Y0025455D01*
X0175937Y0025413D01*
X0176025Y0025367D01*
X0176112Y0025318D01*
X0176196Y0025266D01*
X0176278Y0025210D01*
X0176358Y0025151D01*
X0176436Y0025089D01*
X0176511Y0025023D01*
X0176583Y0024955D01*
X0176653Y0024884D01*
X0176719Y0024811D01*
X0176783Y0024734D01*
X0176844Y0024656D01*
X0176901Y0024574D01*
X0176955Y0024491D01*
X0177006Y0024406D01*
X0177054Y0024318D01*
X0177098Y0024229D01*
X0177138Y0024138D01*
X0177175Y0024046D01*
X0177208Y0023952D01*
X0177237Y0023857D01*
X0177262Y0023761D01*
X0177284Y0023664D01*
X0177301Y0023566D01*
X0177315Y0023468D01*
X0177325Y0023369D01*
X0177331Y0023269D01*
X0177333Y0023170D01*
X0177331Y0023071D01*
X0177325Y0022971D01*
X0177315Y0022872D01*
X0177301Y0022774D01*
X0177284Y0022676D01*
X0177262Y0022579D01*
X0177237Y0022483D01*
X0177208Y0022388D01*
X0177175Y0022294D01*
X0177138Y0022202D01*
X0177098Y0022111D01*
X0177054Y0022022D01*
X0177006Y0021934D01*
X0176955Y0021849D01*
X0176901Y0021766D01*
X0176844Y0021684D01*
X0176783Y0021606D01*
X0176719Y0021529D01*
X0176653Y0021456D01*
X0176583Y0021385D01*
X0176511Y0021317D01*
X0176436Y0021251D01*
X0176358Y0021189D01*
X0176278Y0021130D01*
X0176196Y0021074D01*
X0176112Y0021022D01*
X0176025Y0020973D01*
X0175937Y0020927D01*
X0175847Y0020885D01*
X0175755Y0020846D01*
X0175662Y0020811D01*
X0175568Y0020780D01*
X0175472Y0020753D01*
X0175375Y0020730D01*
X0175278Y0020710D01*
X0175180Y0020694D01*
X0175081Y0020682D01*
X0174982Y0020674D01*
X0174883Y0020670D01*
X0174783Y0020670D01*
X0174684Y0020674D01*
X0174585Y0020682D01*
X0174486Y0020694D01*
X0174388Y0020710D01*
X0174291Y0020730D01*
X0174194Y0020753D01*
X0174098Y0020780D01*
X0174004Y0020811D01*
X0173911Y0020846D01*
X0173819Y0020885D01*
X0173729Y0020927D01*
X0173641Y0020973D01*
X0173554Y0021022D01*
X0173470Y0021074D01*
X0173388Y0021130D01*
X0173308Y0021189D01*
X0173230Y0021251D01*
X0173155Y0021317D01*
X0173083Y0021385D01*
X0173013Y0021456D01*
X0172947Y0021529D01*
X0172883Y0021606D01*
X0172822Y0021684D01*
X0172765Y0021766D01*
X0172711Y0021849D01*
X0172660Y0021934D01*
X0172612Y0022022D01*
X0172568Y0022111D01*
X0172528Y0022202D01*
X0172491Y0022294D01*
X0172458Y0022388D01*
X0172429Y0022483D01*
X0172404Y0022579D01*
X0172382Y0022676D01*
X0172365Y0022774D01*
X0172351Y0022872D01*
X0172341Y0022971D01*
X0172335Y0023071D01*
X0172333Y0023170D01*
X0172333Y0094430D02*
X0172335Y0094529D01*
X0172341Y0094629D01*
X0172351Y0094728D01*
X0172365Y0094826D01*
X0172382Y0094924D01*
X0172404Y0095021D01*
X0172429Y0095117D01*
X0172458Y0095212D01*
X0172491Y0095306D01*
X0172528Y0095398D01*
X0172568Y0095489D01*
X0172612Y0095578D01*
X0172660Y0095666D01*
X0172711Y0095751D01*
X0172765Y0095834D01*
X0172822Y0095916D01*
X0172883Y0095994D01*
X0172947Y0096071D01*
X0173013Y0096144D01*
X0173083Y0096215D01*
X0173155Y0096283D01*
X0173230Y0096349D01*
X0173308Y0096411D01*
X0173388Y0096470D01*
X0173470Y0096526D01*
X0173554Y0096578D01*
X0173641Y0096627D01*
X0173729Y0096673D01*
X0173819Y0096715D01*
X0173911Y0096754D01*
X0174004Y0096789D01*
X0174098Y0096820D01*
X0174194Y0096847D01*
X0174291Y0096870D01*
X0174388Y0096890D01*
X0174486Y0096906D01*
X0174585Y0096918D01*
X0174684Y0096926D01*
X0174783Y0096930D01*
X0174883Y0096930D01*
X0174982Y0096926D01*
X0175081Y0096918D01*
X0175180Y0096906D01*
X0175278Y0096890D01*
X0175375Y0096870D01*
X0175472Y0096847D01*
X0175568Y0096820D01*
X0175662Y0096789D01*
X0175755Y0096754D01*
X0175847Y0096715D01*
X0175937Y0096673D01*
X0176025Y0096627D01*
X0176112Y0096578D01*
X0176196Y0096526D01*
X0176278Y0096470D01*
X0176358Y0096411D01*
X0176436Y0096349D01*
X0176511Y0096283D01*
X0176583Y0096215D01*
X0176653Y0096144D01*
X0176719Y0096071D01*
X0176783Y0095994D01*
X0176844Y0095916D01*
X0176901Y0095834D01*
X0176955Y0095751D01*
X0177006Y0095666D01*
X0177054Y0095578D01*
X0177098Y0095489D01*
X0177138Y0095398D01*
X0177175Y0095306D01*
X0177208Y0095212D01*
X0177237Y0095117D01*
X0177262Y0095021D01*
X0177284Y0094924D01*
X0177301Y0094826D01*
X0177315Y0094728D01*
X0177325Y0094629D01*
X0177331Y0094529D01*
X0177333Y0094430D01*
X0177331Y0094331D01*
X0177325Y0094231D01*
X0177315Y0094132D01*
X0177301Y0094034D01*
X0177284Y0093936D01*
X0177262Y0093839D01*
X0177237Y0093743D01*
X0177208Y0093648D01*
X0177175Y0093554D01*
X0177138Y0093462D01*
X0177098Y0093371D01*
X0177054Y0093282D01*
X0177006Y0093194D01*
X0176955Y0093109D01*
X0176901Y0093026D01*
X0176844Y0092944D01*
X0176783Y0092866D01*
X0176719Y0092789D01*
X0176653Y0092716D01*
X0176583Y0092645D01*
X0176511Y0092577D01*
X0176436Y0092511D01*
X0176358Y0092449D01*
X0176278Y0092390D01*
X0176196Y0092334D01*
X0176112Y0092282D01*
X0176025Y0092233D01*
X0175937Y0092187D01*
X0175847Y0092145D01*
X0175755Y0092106D01*
X0175662Y0092071D01*
X0175568Y0092040D01*
X0175472Y0092013D01*
X0175375Y0091990D01*
X0175278Y0091970D01*
X0175180Y0091954D01*
X0175081Y0091942D01*
X0174982Y0091934D01*
X0174883Y0091930D01*
X0174783Y0091930D01*
X0174684Y0091934D01*
X0174585Y0091942D01*
X0174486Y0091954D01*
X0174388Y0091970D01*
X0174291Y0091990D01*
X0174194Y0092013D01*
X0174098Y0092040D01*
X0174004Y0092071D01*
X0173911Y0092106D01*
X0173819Y0092145D01*
X0173729Y0092187D01*
X0173641Y0092233D01*
X0173554Y0092282D01*
X0173470Y0092334D01*
X0173388Y0092390D01*
X0173308Y0092449D01*
X0173230Y0092511D01*
X0173155Y0092577D01*
X0173083Y0092645D01*
X0173013Y0092716D01*
X0172947Y0092789D01*
X0172883Y0092866D01*
X0172822Y0092944D01*
X0172765Y0093026D01*
X0172711Y0093109D01*
X0172660Y0093194D01*
X0172612Y0093282D01*
X0172568Y0093371D01*
X0172528Y0093462D01*
X0172491Y0093554D01*
X0172458Y0093648D01*
X0172429Y0093743D01*
X0172404Y0093839D01*
X0172382Y0093936D01*
X0172365Y0094034D01*
X0172351Y0094132D01*
X0172341Y0094231D01*
X0172335Y0094331D01*
X0172333Y0094430D01*
D15*
X0075233Y0072900D03*
X0075233Y0063500D03*
X0075233Y0060200D03*
X0089433Y0059700D03*
X0089433Y0055000D03*
X0089433Y0042800D03*
X0089433Y0037700D03*
X0075233Y0038200D03*
X0075233Y0043300D03*
D16*
X0075233Y0048950D03*
X0075633Y0055150D03*
X0089233Y0070850D03*
X0098133Y0076250D03*
D17*
X0096433Y0074950D03*
X0094633Y0073850D03*
X0090533Y0074650D03*
X0089433Y0070650D03*
X0075233Y0055550D03*
D18*
X0075333Y0038050D03*
D19*
X0075333Y0043200D03*
X0075333Y0055400D03*
X0075333Y0060100D03*
X0075333Y0072800D03*
X0092533Y0074400D03*
D20*
X0098033Y0076550D03*
X0076033Y0072250D03*
X0076033Y0054950D03*
X0075333Y0048950D03*
X0076133Y0042650D03*
X0088933Y0043350D03*
X0088933Y0038250D03*
X0076133Y0037550D03*
X0076033Y0037550D03*
D21*
X0089233Y0037950D03*
X0075333Y0063650D03*
X0090433Y0074950D03*
X0090233Y0078550D03*
D22*
X0092033Y0079700D03*
X0096133Y0078900D03*
X0075433Y0072700D03*
X0083733Y0067900D03*
X0075433Y0060000D03*
X0075433Y0055300D03*
X0075433Y0043100D03*
X0075433Y0038000D03*
D23*
X0082433Y0038100D03*
X0082533Y0038100D03*
X0082633Y0038100D03*
X0082733Y0038100D03*
X0082833Y0038100D03*
X0082933Y0038100D03*
X0083033Y0038100D03*
X0083133Y0038100D03*
X0083433Y0038200D03*
X0083533Y0038200D03*
X0083633Y0038200D03*
X0083733Y0038200D03*
X0083833Y0038200D03*
X0083933Y0038200D03*
X0083933Y0043300D03*
X0083833Y0043300D03*
X0083733Y0043300D03*
X0083633Y0043300D03*
X0083533Y0043300D03*
X0083433Y0043300D03*
X0083333Y0043300D03*
X0083233Y0043300D03*
X0082833Y0043200D03*
X0084033Y0043300D03*
X0084633Y0043400D03*
X0084733Y0043400D03*
X0084833Y0046900D03*
X0085033Y0047000D03*
X0085133Y0047000D03*
X0085233Y0047100D03*
X0085333Y0047100D03*
X0078333Y0046800D03*
X0078233Y0046900D03*
X0075433Y0048900D03*
X0078333Y0051400D03*
X0078433Y0051500D03*
X0078533Y0051500D03*
X0078633Y0051600D03*
X0085433Y0052400D03*
X0085533Y0052400D03*
X0088633Y0055800D03*
X0084833Y0060300D03*
X0084733Y0060300D03*
X0083933Y0060200D03*
X0083833Y0060200D03*
X0083733Y0060200D03*
X0083633Y0060200D03*
X0083533Y0060200D03*
X0083433Y0060200D03*
X0083333Y0060200D03*
X0083233Y0060200D03*
X0083433Y0063800D03*
X0083533Y0063800D03*
X0083633Y0063800D03*
X0083733Y0063800D03*
X0083833Y0063800D03*
X0083933Y0063800D03*
X0084733Y0063900D03*
X0084833Y0063900D03*
X0089133Y0068200D03*
X0083433Y0070800D03*
X0083333Y0070800D03*
X0083233Y0070800D03*
X0083133Y0070800D03*
X0083033Y0070800D03*
X0082933Y0070800D03*
X0082833Y0070800D03*
X0082733Y0070700D03*
X0082633Y0070700D03*
X0082533Y0070700D03*
X0082433Y0070700D03*
X0082333Y0070700D03*
X0082233Y0070700D03*
X0082133Y0070700D03*
X0082033Y0070700D03*
X0081933Y0070700D03*
X0081833Y0070700D03*
X0081733Y0070700D03*
X0081633Y0070700D03*
X0081533Y0070700D03*
X0081433Y0070800D03*
X0081333Y0070800D03*
X0081233Y0074600D03*
X0081133Y0074600D03*
X0081333Y0074700D03*
X0086533Y0075700D03*
X0086633Y0075700D03*
X0087133Y0075800D03*
X0087233Y0075800D03*
X0087633Y0075900D03*
X0087733Y0075900D03*
X0087833Y0075900D03*
X0087933Y0075900D03*
X0088233Y0076000D03*
X0090233Y0075500D03*
X0094333Y0074700D03*
X0096133Y0075800D03*
X0090433Y0078000D03*
X0092233Y0079100D03*
X0077133Y0059500D03*
X0077033Y0059500D03*
X0076933Y0059500D03*
D24*
X0075933Y0059650D03*
X0075433Y0063850D03*
X0083633Y0067550D03*
X0090333Y0078250D03*
X0092133Y0079450D03*
X0096233Y0078550D03*
X0089033Y0038150D03*
X0075833Y0037650D03*
D25*
X0075533Y0037900D03*
X0075533Y0043000D03*
X0089233Y0043100D03*
X0089233Y0055300D03*
X0075533Y0055200D03*
X0075533Y0059900D03*
X0089233Y0060000D03*
X0089333Y0068800D03*
X0094533Y0074100D03*
X0096333Y0075200D03*
X0094133Y0079100D03*
X0075533Y0072600D03*
D26*
X0087533Y0071400D03*
X0087633Y0071400D03*
X0088033Y0071500D03*
X0088133Y0071500D03*
X0088233Y0071500D03*
X0088333Y0071500D03*
X0078133Y0067400D03*
X0078033Y0059400D03*
X0077933Y0059400D03*
X0077833Y0059400D03*
X0087733Y0056000D03*
X0087833Y0056000D03*
X0087933Y0056000D03*
X0086133Y0052100D03*
X0077933Y0051000D03*
X0075533Y0048900D03*
X0086133Y0047600D03*
D27*
X0084933Y0046950D03*
X0084733Y0046850D03*
X0084633Y0046850D03*
X0084433Y0046750D03*
X0084333Y0046750D03*
X0084033Y0046650D03*
X0078733Y0046650D03*
X0078533Y0046750D03*
X0078433Y0046750D03*
X0088633Y0043550D03*
X0083133Y0043250D03*
X0083033Y0043250D03*
X0082933Y0043250D03*
X0079833Y0042950D03*
X0079733Y0042950D03*
X0088633Y0038450D03*
X0079733Y0037850D03*
X0078733Y0051650D03*
X0078933Y0051750D03*
X0079133Y0051850D03*
X0084933Y0052550D03*
X0085033Y0052550D03*
X0085233Y0052450D03*
X0085333Y0052450D03*
X0081433Y0055350D03*
X0081333Y0055350D03*
X0081233Y0055350D03*
X0081133Y0055350D03*
X0080933Y0055250D03*
X0080833Y0055250D03*
X0080733Y0055250D03*
X0080633Y0055250D03*
X0080533Y0055250D03*
X0080433Y0055250D03*
X0080333Y0055250D03*
X0080233Y0055250D03*
X0088633Y0060450D03*
X0080733Y0063550D03*
X0080033Y0063450D03*
X0079933Y0063450D03*
X0075533Y0064050D03*
X0083533Y0067250D03*
X0088733Y0071350D03*
X0088133Y0075950D03*
X0088033Y0075950D03*
X0087533Y0075850D03*
X0087433Y0075850D03*
X0087333Y0075850D03*
X0087033Y0075750D03*
X0086933Y0075750D03*
X0086833Y0075750D03*
X0086733Y0075750D03*
X0086433Y0075650D03*
X0086333Y0075650D03*
X0086233Y0075650D03*
X0086133Y0075650D03*
X0086033Y0075650D03*
X0085933Y0075550D03*
X0085833Y0075550D03*
X0085733Y0075550D03*
X0085633Y0075550D03*
X0085533Y0075550D03*
X0085333Y0075450D03*
X0085233Y0075450D03*
X0085133Y0075450D03*
X0085033Y0075450D03*
X0084933Y0075450D03*
X0084633Y0075350D03*
X0084533Y0075350D03*
X0084433Y0075350D03*
X0084033Y0075250D03*
X0083933Y0075250D03*
X0083333Y0075150D03*
X0081733Y0074850D03*
X0081533Y0074750D03*
X0081433Y0074750D03*
X0096333Y0078250D03*
D28*
X0092433Y0074700D03*
X0075633Y0072500D03*
X0075633Y0059800D03*
X0089133Y0060100D03*
X0089133Y0055400D03*
X0089133Y0043200D03*
X0089133Y0038100D03*
X0075633Y0037800D03*
X0075633Y0042900D03*
D29*
X0075633Y0048950D03*
X0086933Y0056050D03*
X0087033Y0056050D03*
X0087133Y0056050D03*
X0087233Y0056050D03*
X0086333Y0064350D03*
X0080933Y0063950D03*
X0089033Y0067950D03*
X0094233Y0074950D03*
D30*
X0078833Y0072550D03*
X0083433Y0066950D03*
X0075633Y0064250D03*
X0078133Y0059350D03*
X0078233Y0059350D03*
X0078333Y0059350D03*
X0087333Y0056050D03*
X0087433Y0056050D03*
X0087533Y0056050D03*
X0087633Y0056050D03*
X0086233Y0051950D03*
X0082733Y0042950D03*
D31*
X0075733Y0042850D03*
X0075733Y0037750D03*
X0089333Y0050050D03*
X0075733Y0055050D03*
X0075733Y0059750D03*
X0089133Y0070950D03*
X0075733Y0072450D03*
D32*
X0088533Y0076500D03*
X0079533Y0059200D03*
X0079433Y0059200D03*
X0079333Y0059200D03*
X0085933Y0056200D03*
X0086033Y0056200D03*
X0086133Y0056200D03*
X0075733Y0048900D03*
D33*
X0086333Y0051750D03*
X0088933Y0050050D03*
X0086433Y0056150D03*
X0086333Y0056150D03*
X0086233Y0056150D03*
X0079233Y0059250D03*
X0079133Y0059250D03*
X0079033Y0059250D03*
X0075733Y0064450D03*
X0078033Y0067150D03*
X0092133Y0075550D03*
X0088733Y0076550D03*
X0088633Y0076550D03*
X0088433Y0076450D03*
X0088333Y0076450D03*
X0097833Y0077150D03*
D34*
X0078333Y0068000D03*
X0075833Y0072400D03*
X0089033Y0060200D03*
X0075833Y0059700D03*
X0075833Y0055000D03*
X0089033Y0055500D03*
X0089033Y0043300D03*
X0075833Y0042800D03*
D35*
X0075833Y0048950D03*
X0085033Y0056250D03*
X0085133Y0056250D03*
X0085233Y0056250D03*
X0085333Y0056250D03*
X0080133Y0059150D03*
X0080033Y0059150D03*
X0079933Y0059150D03*
X0088933Y0067650D03*
X0079133Y0072550D03*
X0088833Y0076350D03*
X0090033Y0076150D03*
X0094133Y0075250D03*
X0095933Y0076450D03*
D36*
X0097733Y0077450D03*
X0092033Y0075850D03*
X0077933Y0066850D03*
X0075833Y0064650D03*
X0080533Y0059150D03*
X0084433Y0056350D03*
X0084533Y0056350D03*
X0088733Y0050050D03*
X0075933Y0048950D03*
X0080133Y0038750D03*
D37*
X0075933Y0037600D03*
X0075933Y0042700D03*
X0076033Y0042700D03*
X0075933Y0055000D03*
X0076033Y0059600D03*
X0088933Y0060300D03*
X0088933Y0055600D03*
X0089233Y0068500D03*
X0089033Y0071100D03*
X0094433Y0074400D03*
X0096233Y0075500D03*
X0090333Y0075200D03*
X0075933Y0072300D03*
D38*
X0079433Y0072600D03*
X0094633Y0077600D03*
X0095833Y0076700D03*
X0075933Y0064800D03*
X0080233Y0039000D03*
D39*
X0082533Y0042350D03*
X0076033Y0048950D03*
X0088633Y0050050D03*
X0084233Y0056350D03*
X0084133Y0056350D03*
X0084033Y0056350D03*
X0083933Y0056350D03*
X0081133Y0059050D03*
X0081033Y0059050D03*
X0080933Y0059050D03*
X0089033Y0076250D03*
X0089333Y0076250D03*
X0089433Y0076250D03*
X0089533Y0076250D03*
X0089633Y0076250D03*
X0089733Y0076250D03*
X0089833Y0076250D03*
X0096733Y0077450D03*
X0096833Y0077450D03*
X0096933Y0077450D03*
X0097333Y0077550D03*
X0097433Y0077550D03*
X0097533Y0077550D03*
D40*
X0092633Y0077950D03*
X0088733Y0066950D03*
X0086733Y0065250D03*
X0076033Y0065050D03*
X0076433Y0048950D03*
X0088233Y0050050D03*
D41*
X0088533Y0050050D03*
X0076133Y0048950D03*
X0083233Y0056450D03*
X0083333Y0056450D03*
X0083433Y0056450D03*
X0081433Y0059050D03*
X0088833Y0067350D03*
X0094033Y0075550D03*
D42*
X0092333Y0075000D03*
X0094233Y0078800D03*
X0076933Y0072300D03*
X0076833Y0072300D03*
X0076733Y0072300D03*
X0076633Y0072300D03*
X0076533Y0072300D03*
X0076433Y0072300D03*
X0076333Y0072300D03*
X0076233Y0072300D03*
X0076133Y0072300D03*
X0088933Y0071200D03*
X0076233Y0059600D03*
X0076133Y0059600D03*
X0076133Y0054900D03*
X0076233Y0054900D03*
X0076333Y0054900D03*
X0076433Y0054900D03*
X0076533Y0054900D03*
X0076633Y0054900D03*
X0076733Y0054900D03*
X0077533Y0055000D03*
X0080733Y0052400D03*
X0080833Y0052400D03*
X0081133Y0052500D03*
X0081233Y0052500D03*
X0081333Y0052500D03*
X0081633Y0052600D03*
X0081733Y0052600D03*
X0081833Y0052600D03*
X0081933Y0052600D03*
X0082033Y0052600D03*
X0082433Y0052700D03*
X0082533Y0052700D03*
X0082633Y0052700D03*
X0082733Y0052700D03*
X0082833Y0052700D03*
X0082933Y0052700D03*
X0083033Y0052700D03*
X0083133Y0052700D03*
X0083233Y0052700D03*
X0083333Y0052700D03*
X0083433Y0052700D03*
X0083533Y0052700D03*
X0083633Y0052700D03*
X0083733Y0052700D03*
X0083833Y0052700D03*
X0083933Y0052700D03*
X0088833Y0055700D03*
X0081833Y0046300D03*
X0081733Y0046300D03*
X0081633Y0046300D03*
X0081533Y0046300D03*
X0081433Y0046300D03*
X0081333Y0046300D03*
X0081233Y0046300D03*
X0081133Y0046300D03*
X0081033Y0046300D03*
X0080933Y0046300D03*
X0080833Y0046300D03*
X0080733Y0046300D03*
X0080633Y0046300D03*
X0080533Y0046300D03*
X0080433Y0046300D03*
X0076933Y0042700D03*
X0076833Y0042700D03*
X0076733Y0042700D03*
X0076633Y0042700D03*
X0076533Y0042700D03*
X0076433Y0042700D03*
X0076333Y0042700D03*
X0076233Y0042700D03*
X0088833Y0038300D03*
X0076933Y0037600D03*
X0076833Y0037600D03*
X0076733Y0037600D03*
X0076633Y0037600D03*
X0076533Y0037600D03*
X0076433Y0037600D03*
X0076333Y0037600D03*
X0076233Y0037600D03*
D43*
X0076733Y0049000D03*
X0087933Y0050000D03*
X0086833Y0065500D03*
X0076133Y0065200D03*
X0091633Y0076600D03*
X0094833Y0077200D03*
X0094933Y0077200D03*
X0095333Y0077200D03*
X0095433Y0077200D03*
X0095533Y0077200D03*
D44*
X0086633Y0065050D03*
X0088433Y0050050D03*
X0076233Y0048950D03*
D45*
X0087633Y0050000D03*
X0086933Y0065700D03*
X0082233Y0065400D03*
X0082133Y0065400D03*
X0082033Y0065400D03*
X0076233Y0065400D03*
D46*
X0081233Y0064750D03*
X0088333Y0050050D03*
X0076333Y0048950D03*
X0082433Y0042050D03*
D47*
X0078733Y0042850D03*
X0078633Y0042850D03*
X0078533Y0042850D03*
X0078433Y0042850D03*
X0078333Y0042850D03*
X0078233Y0042850D03*
X0078133Y0042850D03*
X0078033Y0042850D03*
X0077933Y0042850D03*
X0077833Y0042750D03*
X0077733Y0042750D03*
X0077633Y0042750D03*
X0077533Y0042750D03*
X0077433Y0042750D03*
X0077333Y0042750D03*
X0077233Y0042750D03*
X0077133Y0042750D03*
X0077033Y0042750D03*
X0079033Y0046550D03*
X0079333Y0046450D03*
X0079433Y0046450D03*
X0079533Y0046450D03*
X0079633Y0046450D03*
X0079733Y0046450D03*
X0079833Y0046350D03*
X0079933Y0046350D03*
X0080033Y0046350D03*
X0080133Y0046350D03*
X0080233Y0046350D03*
X0080333Y0046350D03*
X0081933Y0046350D03*
X0082033Y0046350D03*
X0082133Y0046350D03*
X0082233Y0046350D03*
X0082333Y0046350D03*
X0082433Y0046350D03*
X0082533Y0046350D03*
X0082633Y0046350D03*
X0082833Y0046450D03*
X0082933Y0046450D03*
X0083033Y0046450D03*
X0083133Y0046450D03*
X0083533Y0046550D03*
X0083633Y0046550D03*
X0088833Y0043450D03*
X0078733Y0037750D03*
X0078633Y0037750D03*
X0078533Y0037750D03*
X0078433Y0037750D03*
X0078333Y0037750D03*
X0078233Y0037750D03*
X0078133Y0037750D03*
X0077833Y0037650D03*
X0077733Y0037650D03*
X0077633Y0037650D03*
X0077533Y0037650D03*
X0077433Y0037650D03*
X0077333Y0037650D03*
X0077233Y0037650D03*
X0077133Y0037650D03*
X0077033Y0037650D03*
X0079633Y0052050D03*
X0079833Y0052150D03*
X0079933Y0052150D03*
X0080033Y0052150D03*
X0080133Y0052250D03*
X0080233Y0052250D03*
X0080333Y0052250D03*
X0080433Y0052350D03*
X0080533Y0052350D03*
X0080633Y0052350D03*
X0080933Y0052450D03*
X0081033Y0052450D03*
X0081433Y0052550D03*
X0081533Y0052550D03*
X0082133Y0052650D03*
X0082233Y0052650D03*
X0082333Y0052650D03*
X0084033Y0052650D03*
X0084133Y0052650D03*
X0084233Y0052650D03*
X0084333Y0052650D03*
X0084433Y0052650D03*
X0084533Y0052650D03*
X0079333Y0055150D03*
X0078433Y0055050D03*
X0078333Y0055050D03*
X0078233Y0055050D03*
X0078133Y0055050D03*
X0078033Y0055050D03*
X0077933Y0055050D03*
X0077833Y0055050D03*
X0077733Y0055050D03*
X0077633Y0055050D03*
X0077433Y0054950D03*
X0077333Y0054950D03*
X0077233Y0054950D03*
X0077133Y0054950D03*
X0077033Y0054950D03*
X0076933Y0054950D03*
X0076833Y0054950D03*
X0076533Y0059550D03*
X0076433Y0059550D03*
X0076333Y0059550D03*
X0077933Y0063250D03*
X0078033Y0063250D03*
X0078233Y0063350D03*
X0078333Y0063350D03*
X0078433Y0063350D03*
X0078533Y0063350D03*
X0078633Y0063350D03*
X0078733Y0063350D03*
X0078833Y0063350D03*
X0078933Y0063350D03*
X0088833Y0060350D03*
X0088733Y0055750D03*
X0078633Y0072450D03*
X0078533Y0072450D03*
X0078433Y0072450D03*
X0078333Y0072450D03*
X0078233Y0072450D03*
X0078133Y0072450D03*
X0078033Y0072450D03*
X0077733Y0072350D03*
X0077633Y0072350D03*
X0077533Y0072350D03*
X0077433Y0072350D03*
X0077333Y0072350D03*
X0077233Y0072350D03*
X0077133Y0072350D03*
X0077033Y0072350D03*
D48*
X0080533Y0072650D03*
X0080633Y0072650D03*
X0082333Y0065450D03*
X0082433Y0065450D03*
X0082533Y0065450D03*
X0082633Y0065450D03*
X0082733Y0065450D03*
X0082833Y0065450D03*
X0082933Y0065450D03*
X0083133Y0065550D03*
X0083233Y0065550D03*
X0083333Y0065550D03*
X0076333Y0065450D03*
X0077133Y0049050D03*
X0077233Y0049050D03*
X0087533Y0049950D03*
D49*
X0087433Y0049950D03*
X0077333Y0049050D03*
X0076633Y0065450D03*
X0076533Y0065450D03*
X0076433Y0065450D03*
X0087033Y0065850D03*
X0088533Y0066350D03*
X0092833Y0077350D03*
D50*
X0093933Y0075900D03*
X0095733Y0077000D03*
X0079733Y0072600D03*
X0076533Y0049000D03*
X0088133Y0050000D03*
D51*
X0088033Y0050000D03*
X0076633Y0049000D03*
X0081333Y0065000D03*
X0079933Y0072600D03*
X0091833Y0076500D03*
D52*
X0085433Y0075500D03*
X0084833Y0075400D03*
X0084733Y0075400D03*
X0084333Y0075300D03*
X0084233Y0075300D03*
X0084133Y0075300D03*
X0083833Y0075200D03*
X0083733Y0075200D03*
X0083633Y0075200D03*
X0083533Y0075200D03*
X0083433Y0075200D03*
X0083233Y0075100D03*
X0083133Y0075100D03*
X0083033Y0075100D03*
X0082933Y0075100D03*
X0082833Y0075100D03*
X0082733Y0075000D03*
X0082633Y0075000D03*
X0082533Y0075000D03*
X0082433Y0075000D03*
X0082333Y0075000D03*
X0082233Y0075000D03*
X0082133Y0074900D03*
X0082033Y0074900D03*
X0081933Y0074900D03*
X0081833Y0074900D03*
X0081633Y0074800D03*
X0077933Y0072400D03*
X0077833Y0072400D03*
X0088833Y0071300D03*
X0078233Y0067700D03*
X0079033Y0063400D03*
X0079133Y0063400D03*
X0079233Y0063400D03*
X0079333Y0063400D03*
X0079433Y0063400D03*
X0079533Y0063400D03*
X0079633Y0063400D03*
X0079733Y0063400D03*
X0079833Y0063400D03*
X0080133Y0063500D03*
X0080233Y0063500D03*
X0080333Y0063500D03*
X0080433Y0063500D03*
X0080533Y0063500D03*
X0080633Y0063500D03*
X0078133Y0063300D03*
X0088733Y0060400D03*
X0076833Y0059500D03*
X0076733Y0059500D03*
X0076633Y0059500D03*
X0078533Y0055100D03*
X0078633Y0055100D03*
X0078733Y0055100D03*
X0078833Y0055100D03*
X0078933Y0055100D03*
X0079033Y0055100D03*
X0079133Y0055100D03*
X0079233Y0055100D03*
X0079433Y0055200D03*
X0079533Y0055200D03*
X0079633Y0055200D03*
X0079733Y0055200D03*
X0079833Y0055200D03*
X0079933Y0055200D03*
X0080033Y0055200D03*
X0080133Y0055200D03*
X0081033Y0055300D03*
X0079733Y0052100D03*
X0079533Y0052000D03*
X0079433Y0052000D03*
X0079333Y0051900D03*
X0079233Y0051900D03*
X0079033Y0051800D03*
X0078833Y0051700D03*
X0084633Y0052600D03*
X0084733Y0052600D03*
X0084833Y0052600D03*
X0085133Y0052500D03*
X0089233Y0050100D03*
X0084533Y0046800D03*
X0084233Y0046700D03*
X0084133Y0046700D03*
X0083933Y0046600D03*
X0083833Y0046600D03*
X0083733Y0046600D03*
X0083433Y0046500D03*
X0083333Y0046500D03*
X0083233Y0046500D03*
X0082733Y0046400D03*
X0079233Y0046500D03*
X0079133Y0046500D03*
X0078933Y0046600D03*
X0078833Y0046600D03*
X0078633Y0046700D03*
X0088733Y0043500D03*
X0080233Y0043000D03*
X0080133Y0043000D03*
X0080033Y0043000D03*
X0079933Y0043000D03*
X0079633Y0042900D03*
X0079533Y0042900D03*
X0079433Y0042900D03*
X0079333Y0042900D03*
X0079233Y0042900D03*
X0079133Y0042900D03*
X0079033Y0042900D03*
X0078933Y0042900D03*
X0078833Y0042900D03*
X0088733Y0038400D03*
X0079633Y0037800D03*
X0079533Y0037800D03*
X0079433Y0037800D03*
X0079333Y0037800D03*
X0079233Y0037800D03*
X0079133Y0037800D03*
X0079033Y0037800D03*
X0078933Y0037800D03*
X0078833Y0037800D03*
X0078033Y0037700D03*
X0077933Y0037700D03*
D53*
X0077533Y0049050D03*
X0087233Y0049950D03*
X0087233Y0065950D03*
X0087333Y0065950D03*
X0076933Y0065450D03*
X0076833Y0065450D03*
X0076733Y0065450D03*
D54*
X0088633Y0066650D03*
X0080233Y0072650D03*
X0080133Y0072650D03*
X0091033Y0076550D03*
X0091133Y0076550D03*
X0091233Y0076550D03*
X0091333Y0076550D03*
X0091433Y0076550D03*
X0091533Y0076550D03*
X0092733Y0077650D03*
X0095033Y0077150D03*
X0095133Y0077150D03*
X0095233Y0077150D03*
X0076833Y0049050D03*
D55*
X0076933Y0049000D03*
X0087833Y0050000D03*
X0081433Y0065200D03*
X0093833Y0076200D03*
D56*
X0080433Y0072650D03*
X0080333Y0072650D03*
X0081733Y0065350D03*
X0081833Y0065350D03*
X0081933Y0065350D03*
X0081633Y0065250D03*
X0081533Y0065250D03*
X0087733Y0049950D03*
X0077033Y0049050D03*
D57*
X0077633Y0049100D03*
X0087133Y0049900D03*
X0087433Y0066000D03*
X0087533Y0066000D03*
X0087633Y0066000D03*
X0087733Y0066100D03*
X0087833Y0066100D03*
X0087933Y0066100D03*
X0088033Y0066100D03*
X0077033Y0065500D03*
D58*
X0077133Y0065450D03*
X0077233Y0065450D03*
X0077333Y0065450D03*
X0077433Y0065450D03*
X0088133Y0066150D03*
X0088233Y0066150D03*
X0088333Y0066150D03*
X0088433Y0066150D03*
X0087033Y0049950D03*
X0077733Y0049050D03*
D59*
X0078133Y0051250D03*
X0078233Y0051350D03*
X0085633Y0052350D03*
X0085733Y0052350D03*
X0085833Y0052250D03*
X0088533Y0055850D03*
X0088533Y0060550D03*
X0086433Y0060450D03*
X0086333Y0060450D03*
X0086233Y0060450D03*
X0085633Y0060350D03*
X0085533Y0060350D03*
X0085433Y0060350D03*
X0085333Y0060350D03*
X0085233Y0060350D03*
X0085133Y0060350D03*
X0085033Y0060350D03*
X0084933Y0060350D03*
X0084633Y0060250D03*
X0084533Y0060250D03*
X0084433Y0060250D03*
X0084333Y0060250D03*
X0084233Y0060250D03*
X0084133Y0060250D03*
X0084033Y0060250D03*
X0077433Y0059450D03*
X0077333Y0059450D03*
X0077233Y0059450D03*
X0084033Y0063850D03*
X0084133Y0063850D03*
X0084233Y0063850D03*
X0084333Y0063850D03*
X0084433Y0063850D03*
X0084533Y0063850D03*
X0084633Y0063850D03*
X0084933Y0063950D03*
X0085033Y0063950D03*
X0085133Y0063950D03*
X0085233Y0063950D03*
X0085333Y0063950D03*
X0085433Y0063950D03*
X0085533Y0063950D03*
X0085633Y0063950D03*
X0084733Y0070950D03*
X0084633Y0070950D03*
X0084533Y0070950D03*
X0084133Y0070850D03*
X0084033Y0070850D03*
X0083933Y0070850D03*
X0083833Y0070850D03*
X0083733Y0070850D03*
X0083633Y0070850D03*
X0083533Y0070850D03*
X0081233Y0070850D03*
X0081133Y0070850D03*
X0078733Y0072550D03*
X0088633Y0071450D03*
X0085633Y0047250D03*
X0085533Y0047250D03*
X0085433Y0047150D03*
X0086233Y0043550D03*
X0086333Y0043550D03*
X0085533Y0043450D03*
X0085433Y0043450D03*
X0085333Y0043450D03*
X0085233Y0043450D03*
X0085133Y0043450D03*
X0085033Y0043450D03*
X0084933Y0043450D03*
X0084833Y0043450D03*
X0084533Y0043350D03*
X0084433Y0043350D03*
X0084333Y0043350D03*
X0084233Y0043350D03*
X0084133Y0043350D03*
X0088533Y0043650D03*
X0078133Y0046950D03*
X0083233Y0038150D03*
X0083333Y0038150D03*
X0084033Y0038250D03*
X0084133Y0038250D03*
X0084233Y0038250D03*
X0084333Y0038250D03*
X0084433Y0038250D03*
X0084533Y0038250D03*
X0084633Y0038250D03*
X0084733Y0038250D03*
X0084833Y0038250D03*
X0084933Y0038350D03*
X0085033Y0038350D03*
X0085133Y0038350D03*
X0085233Y0038350D03*
X0085333Y0038350D03*
X0085433Y0038350D03*
X0085533Y0038350D03*
X0085633Y0038350D03*
X0086433Y0038450D03*
X0086533Y0038450D03*
X0088533Y0038550D03*
D60*
X0087333Y0049900D03*
X0077433Y0049100D03*
X0087133Y0065900D03*
X0093733Y0076500D03*
D61*
X0092233Y0075300D03*
X0094333Y0078500D03*
X0097933Y0076900D03*
X0088533Y0071500D03*
X0086433Y0071200D03*
X0086333Y0071200D03*
X0085933Y0071100D03*
X0085833Y0071100D03*
X0085733Y0071100D03*
X0085633Y0071100D03*
X0085533Y0071100D03*
X0085333Y0071000D03*
X0085233Y0071000D03*
X0085133Y0071000D03*
X0085033Y0071000D03*
X0084933Y0071000D03*
X0084833Y0071000D03*
X0084433Y0070900D03*
X0084333Y0070900D03*
X0084233Y0070900D03*
X0081033Y0070900D03*
X0080933Y0074400D03*
X0081033Y0074500D03*
X0085733Y0064000D03*
X0085833Y0064000D03*
X0085933Y0064000D03*
X0086033Y0064000D03*
X0086133Y0064000D03*
X0080833Y0063700D03*
X0085733Y0060400D03*
X0085833Y0060400D03*
X0085933Y0060400D03*
X0086033Y0060400D03*
X0086133Y0060400D03*
X0086533Y0060500D03*
X0086633Y0060500D03*
X0086733Y0060500D03*
X0086833Y0060500D03*
X0086933Y0060500D03*
X0087033Y0060500D03*
X0087133Y0060500D03*
X0087633Y0060600D03*
X0087733Y0060600D03*
X0087833Y0060600D03*
X0088433Y0060600D03*
X0077733Y0059400D03*
X0077633Y0059400D03*
X0077533Y0059400D03*
X0088433Y0055900D03*
X0085933Y0052200D03*
X0089133Y0050100D03*
X0085833Y0047400D03*
X0085733Y0047300D03*
X0086433Y0043600D03*
X0086533Y0043600D03*
X0086633Y0043600D03*
X0086733Y0043600D03*
X0086833Y0043600D03*
X0086933Y0043600D03*
X0087033Y0043600D03*
X0087133Y0043600D03*
X0087733Y0043700D03*
X0087833Y0043700D03*
X0088333Y0043700D03*
X0088433Y0043700D03*
X0086133Y0043500D03*
X0086033Y0043500D03*
X0085933Y0043500D03*
X0085833Y0043500D03*
X0085733Y0043500D03*
X0085633Y0043500D03*
X0078033Y0047000D03*
X0085733Y0038400D03*
X0085833Y0038400D03*
X0085933Y0038400D03*
X0086033Y0038400D03*
X0086133Y0038400D03*
X0086233Y0038400D03*
X0086333Y0038400D03*
X0086633Y0038500D03*
X0086733Y0038500D03*
X0086833Y0038500D03*
X0086933Y0038500D03*
X0087033Y0038500D03*
X0087133Y0038500D03*
X0087233Y0038500D03*
X0087333Y0038500D03*
X0087933Y0038600D03*
X0088033Y0038600D03*
X0088333Y0038600D03*
X0088433Y0038600D03*
X0079833Y0038000D03*
D62*
X0077833Y0049100D03*
X0086933Y0049900D03*
X0077833Y0065500D03*
X0077733Y0065500D03*
X0077633Y0065500D03*
X0077533Y0065500D03*
D63*
X0086233Y0064050D03*
X0087233Y0060550D03*
X0087333Y0060550D03*
X0087433Y0060550D03*
X0087533Y0060550D03*
X0087933Y0060650D03*
X0088033Y0060650D03*
X0088133Y0060650D03*
X0088233Y0060650D03*
X0088333Y0060650D03*
X0088333Y0055950D03*
X0088233Y0055950D03*
X0088133Y0055950D03*
X0088033Y0055950D03*
X0086033Y0052150D03*
X0078033Y0051150D03*
X0086033Y0047550D03*
X0085933Y0047450D03*
X0087233Y0043650D03*
X0087333Y0043650D03*
X0087433Y0043650D03*
X0087533Y0043650D03*
X0087633Y0043650D03*
X0087933Y0043750D03*
X0088033Y0043750D03*
X0088133Y0043750D03*
X0088233Y0043750D03*
X0077933Y0047150D03*
X0087433Y0038550D03*
X0087533Y0038550D03*
X0087633Y0038550D03*
X0087733Y0038550D03*
X0087833Y0038550D03*
X0088133Y0038650D03*
X0088233Y0038650D03*
X0085433Y0071050D03*
X0086033Y0071150D03*
X0086133Y0071150D03*
X0086233Y0071150D03*
X0086533Y0071250D03*
X0086633Y0071250D03*
X0086733Y0071250D03*
X0086833Y0071250D03*
X0086933Y0071250D03*
X0087033Y0071350D03*
X0087133Y0071350D03*
X0087233Y0071350D03*
X0087333Y0071350D03*
X0087433Y0071350D03*
X0087733Y0071450D03*
X0087833Y0071450D03*
X0087933Y0071450D03*
X0088433Y0071550D03*
X0080933Y0070950D03*
D64*
X0090133Y0075800D03*
X0096033Y0076100D03*
X0096433Y0078000D03*
X0092333Y0078800D03*
X0090533Y0077700D03*
X0078633Y0059300D03*
X0078533Y0059300D03*
X0078433Y0059300D03*
X0089033Y0050100D03*
X0086233Y0047700D03*
X0079933Y0038300D03*
D65*
X0089333Y0037850D03*
X0089333Y0042950D03*
X0089333Y0055150D03*
X0089333Y0059850D03*
X0078433Y0068250D03*
X0089333Y0070750D03*
D66*
X0083833Y0068150D03*
X0078533Y0068550D03*
X0090133Y0078850D03*
X0091933Y0079950D03*
X0096033Y0079150D03*
X0089433Y0050050D03*
D67*
X0086333Y0047900D03*
X0086533Y0056100D03*
X0086633Y0056100D03*
X0086733Y0056100D03*
X0086833Y0056100D03*
X0078933Y0059300D03*
X0078833Y0059300D03*
X0078733Y0059300D03*
X0078933Y0072600D03*
X0094433Y0078200D03*
D68*
X0079033Y0072550D03*
X0085833Y0056150D03*
X0080033Y0038550D03*
D69*
X0084333Y0056300D03*
X0080833Y0059100D03*
X0080733Y0059100D03*
X0080633Y0059100D03*
X0086533Y0064800D03*
X0079233Y0072600D03*
X0088933Y0076200D03*
X0089933Y0076200D03*
X0096633Y0077500D03*
X0097633Y0077500D03*
D70*
X0097233Y0077500D03*
X0097133Y0077500D03*
X0097033Y0077500D03*
X0092533Y0078200D03*
X0090733Y0077100D03*
X0089233Y0076200D03*
X0089133Y0076200D03*
X0079333Y0072600D03*
X0081133Y0064500D03*
X0081233Y0059000D03*
X0081333Y0059000D03*
X0083533Y0056400D03*
X0083633Y0056400D03*
X0083733Y0056400D03*
X0083833Y0056400D03*
D71*
X0079533Y0072600D03*
X0091933Y0076200D03*
D72*
X0090633Y0077400D03*
X0092433Y0078500D03*
X0096533Y0077700D03*
X0086433Y0064600D03*
X0081033Y0064200D03*
X0079833Y0059200D03*
X0079733Y0059200D03*
X0079633Y0059200D03*
X0085433Y0056200D03*
X0085533Y0056200D03*
X0085633Y0056200D03*
X0085733Y0056200D03*
X0088833Y0050100D03*
X0082633Y0042600D03*
D73*
X0079633Y0072600D03*
X0090833Y0076800D03*
D74*
X0094733Y0077350D03*
X0079833Y0072650D03*
D75*
X0080033Y0072650D03*
X0090933Y0076550D03*
X0091733Y0076550D03*
X0095633Y0077150D03*
D76*
X0094533Y0077900D03*
X0080433Y0059100D03*
X0080333Y0059100D03*
X0080233Y0059100D03*
X0084633Y0056300D03*
X0084733Y0056300D03*
X0084833Y0056300D03*
X0084933Y0056300D03*
D77*
X0080533Y0040450D03*
X0080433Y0040450D03*
X0080333Y0040450D03*
D78*
X0080633Y0040500D03*
X0080733Y0040500D03*
X0080833Y0040500D03*
X0080933Y0040500D03*
X0081033Y0040500D03*
X0081133Y0040500D03*
X0081233Y0040500D03*
X0081333Y0040500D03*
X0081433Y0040500D03*
X0081733Y0040600D03*
X0081833Y0040600D03*
X0081933Y0040600D03*
X0082033Y0040600D03*
X0082133Y0040600D03*
X0082233Y0040600D03*
X0082333Y0040600D03*
D79*
X0083033Y0065500D03*
X0080833Y0072700D03*
X0080733Y0072700D03*
D80*
X0081533Y0040550D03*
X0081633Y0040550D03*
D81*
X0081633Y0057700D03*
X0081533Y0057700D03*
X0081733Y0057700D03*
X0081833Y0057700D03*
X0081933Y0057700D03*
X0082033Y0057700D03*
X0082133Y0057700D03*
X0082233Y0057700D03*
X0082833Y0057800D03*
X0082933Y0057800D03*
X0083033Y0057800D03*
X0083133Y0057800D03*
X0093033Y0076900D03*
D82*
X0093133Y0076850D03*
X0093233Y0076850D03*
X0093333Y0076850D03*
X0093433Y0076850D03*
X0093533Y0076850D03*
X0082733Y0057750D03*
X0082633Y0057750D03*
X0082533Y0057750D03*
X0082433Y0057750D03*
X0082333Y0057750D03*
X0086433Y0049850D03*
D83*
X0086533Y0049850D03*
X0086633Y0049850D03*
X0093633Y0076750D03*
D84*
X0092933Y0077000D03*
X0086733Y0049900D03*
D85*
X0086833Y0049850D03*
D86*
X0089433Y0069100D03*
X0098233Y0076000D03*
X0094033Y0079400D03*
D87*
X0092633Y0074250D03*
D88*
X0203272Y0058820D02*
X0203272Y0057380D01*
X0205177Y0057187D01*
X0205382Y0056546D01*
X0205690Y0055948D01*
X0204480Y0054464D01*
X0205498Y0053446D01*
X0206982Y0054657D01*
X0207580Y0054349D01*
X0208220Y0054144D01*
X0208414Y0052239D01*
X0209853Y0052239D01*
X0210047Y0054144D01*
X0210687Y0054349D01*
X0211285Y0054657D01*
X0212769Y0053446D01*
X0213787Y0054464D01*
X0212577Y0055948D01*
X0212885Y0056546D01*
X0210838Y0057394D01*
X0210622Y0057009D01*
X0210320Y0056686D01*
X0209950Y0056445D01*
X0209533Y0056299D01*
X0209093Y0056255D01*
X0208656Y0056318D01*
X0208246Y0056482D01*
X0207887Y0056740D01*
X0207599Y0057075D01*
X0207400Y0057469D01*
X0207299Y0057899D01*
X0207304Y0058341D01*
X0207414Y0058769D01*
X0207622Y0059159D01*
X0207917Y0059488D01*
X0208281Y0059737D01*
X0208695Y0059893D01*
X0209133Y0059946D01*
X0209564Y0059895D01*
X0209971Y0059745D01*
X0210332Y0059503D01*
X0210626Y0059185D01*
X0210838Y0058806D01*
X0212885Y0059654D01*
X0212577Y0060252D01*
X0213787Y0061736D01*
X0212769Y0062754D01*
X0211285Y0061543D01*
X0210687Y0061851D01*
X0210047Y0062056D01*
X0209853Y0063961D01*
X0208414Y0063961D01*
X0209853Y0063961D01*
X0209913Y0063372D02*
X0208354Y0063372D01*
X0208294Y0062783D02*
X0209973Y0062783D01*
X0210033Y0062194D02*
X0208234Y0062194D01*
X0208220Y0062056D02*
X0208414Y0063961D01*
X0206982Y0061543D02*
X0205498Y0062754D01*
X0204480Y0061736D01*
X0205690Y0060252D01*
X0205382Y0059654D01*
X0205177Y0059013D01*
X0203272Y0058820D01*
X0203272Y0058659D02*
X0207386Y0058659D01*
X0207301Y0058070D02*
X0203272Y0058070D01*
X0203272Y0057481D02*
X0207397Y0057481D01*
X0207756Y0056892D02*
X0205271Y0056892D01*
X0205507Y0056303D02*
X0208759Y0056303D01*
X0209546Y0056303D02*
X0212759Y0056303D01*
X0212768Y0055714D02*
X0205499Y0055714D01*
X0205019Y0055125D02*
X0213248Y0055125D01*
X0213728Y0054536D02*
X0211433Y0054536D01*
X0211050Y0054536D02*
X0207216Y0054536D01*
X0206834Y0054536D02*
X0204538Y0054536D01*
X0204997Y0053947D02*
X0206111Y0053947D01*
X0208240Y0053947D02*
X0210027Y0053947D01*
X0209967Y0053358D02*
X0208300Y0053358D01*
X0208360Y0052769D02*
X0209907Y0052769D01*
X0212155Y0053947D02*
X0213270Y0053947D01*
X0212049Y0056892D02*
X0210512Y0056892D01*
X0210568Y0059248D02*
X0211906Y0059248D01*
X0212790Y0059837D02*
X0209719Y0059837D01*
X0208548Y0059837D02*
X0205477Y0059837D01*
X0205547Y0060427D02*
X0212719Y0060427D01*
X0213200Y0061016D02*
X0205067Y0061016D01*
X0204587Y0061605D02*
X0206906Y0061605D01*
X0206982Y0061543D02*
X0207580Y0061851D01*
X0208220Y0062056D01*
X0207101Y0061605D02*
X0211166Y0061605D01*
X0211360Y0061605D02*
X0213680Y0061605D01*
X0213329Y0062194D02*
X0212083Y0062194D01*
X0206184Y0062194D02*
X0204938Y0062194D01*
X0205252Y0059248D02*
X0207702Y0059248D01*
X0295572Y0059220D02*
X0295572Y0057780D01*
X0297477Y0057587D01*
X0297682Y0056946D01*
X0297990Y0056348D01*
X0296780Y0054864D01*
X0297798Y0053846D01*
X0299282Y0055057D01*
X0299880Y0054749D01*
X0300520Y0054544D01*
X0300714Y0052639D01*
X0302153Y0052639D01*
X0302347Y0054544D01*
X0302987Y0054749D01*
X0303585Y0055057D01*
X0305069Y0053846D01*
X0306087Y0054864D01*
X0304877Y0056348D01*
X0305185Y0056946D01*
X0303138Y0057794D01*
X0302922Y0057409D01*
X0302620Y0057086D01*
X0302250Y0056845D01*
X0301833Y0056699D01*
X0301393Y0056655D01*
X0300956Y0056718D01*
X0300546Y0056882D01*
X0300187Y0057140D01*
X0299899Y0057475D01*
X0299700Y0057869D01*
X0299599Y0058299D01*
X0299604Y0058741D01*
X0299714Y0059169D01*
X0299922Y0059559D01*
X0300217Y0059888D01*
X0300581Y0060137D01*
X0300995Y0060293D01*
X0301433Y0060346D01*
X0301864Y0060295D01*
X0302271Y0060145D01*
X0302632Y0059903D01*
X0302926Y0059585D01*
X0303138Y0059206D01*
X0305185Y0060054D01*
X0304877Y0060652D01*
X0306087Y0062136D01*
X0305069Y0063154D01*
X0303585Y0061943D01*
X0302987Y0062251D01*
X0302347Y0062456D01*
X0302153Y0064361D01*
X0300714Y0064361D01*
X0300520Y0062456D01*
X0299880Y0062251D01*
X0299282Y0061943D01*
X0297798Y0063154D01*
X0296780Y0062136D01*
X0297990Y0060652D01*
X0297682Y0060054D01*
X0297477Y0059413D01*
X0295572Y0059220D01*
X0295855Y0059248D02*
X0299756Y0059248D01*
X0299603Y0058659D02*
X0295572Y0058659D01*
X0295572Y0058070D02*
X0299653Y0058070D01*
X0299896Y0057481D02*
X0297511Y0057481D01*
X0297710Y0056892D02*
X0300532Y0056892D01*
X0302322Y0056892D02*
X0305157Y0056892D01*
X0304914Y0056303D02*
X0297953Y0056303D01*
X0297473Y0055714D02*
X0305394Y0055714D01*
X0305874Y0055125D02*
X0296992Y0055125D01*
X0297108Y0054536D02*
X0298643Y0054536D01*
X0297921Y0053947D02*
X0297697Y0053947D01*
X0300581Y0053947D02*
X0302286Y0053947D01*
X0302346Y0054536D02*
X0300521Y0054536D01*
X0300641Y0053358D02*
X0302226Y0053358D01*
X0302166Y0052769D02*
X0300700Y0052769D01*
X0304946Y0053947D02*
X0305170Y0053947D01*
X0305759Y0054536D02*
X0304224Y0054536D01*
X0303893Y0057481D02*
X0302962Y0057481D01*
X0303115Y0059248D02*
X0303240Y0059248D01*
X0302693Y0059837D02*
X0304662Y0059837D01*
X0304993Y0060427D02*
X0297874Y0060427D01*
X0297693Y0061016D02*
X0305173Y0061016D01*
X0305654Y0061605D02*
X0297213Y0061605D01*
X0296838Y0062194D02*
X0298975Y0062194D01*
X0299768Y0062194D02*
X0303099Y0062194D01*
X0303892Y0062194D02*
X0306029Y0062194D01*
X0305440Y0062783D02*
X0304614Y0062783D01*
X0302314Y0062783D02*
X0300553Y0062783D01*
X0300613Y0063372D02*
X0302254Y0063372D01*
X0302194Y0063961D02*
X0300673Y0063961D01*
X0298252Y0062783D02*
X0297427Y0062783D01*
X0297613Y0059837D02*
X0300172Y0059837D01*
D89*
X0250933Y0060780D03*
D90*
X0250873Y0060780D03*
X0245893Y0063060D03*
X0241453Y0064320D03*
X0243913Y0054840D03*
X0245473Y0054420D03*
X0245473Y0055320D03*
D91*
X0244213Y0051990D03*
X0244153Y0051990D03*
X0244093Y0051990D03*
X0243973Y0052050D03*
X0243913Y0052050D03*
X0243853Y0052050D03*
X0243793Y0052110D03*
X0243673Y0052110D03*
X0239773Y0055950D03*
X0250813Y0060810D03*
D92*
X0250753Y0060810D03*
X0247753Y0067290D03*
X0247693Y0067290D03*
X0247153Y0067410D03*
X0247093Y0067410D03*
X0246253Y0067410D03*
X0246193Y0067410D03*
X0245773Y0067290D03*
X0245713Y0067290D03*
X0245653Y0067230D03*
X0245593Y0067230D03*
X0245413Y0067170D03*
X0245353Y0067170D03*
X0243313Y0052290D03*
X0245113Y0051810D03*
X0245173Y0051810D03*
X0245293Y0051810D03*
D93*
X0245593Y0051870D03*
X0243013Y0052470D03*
X0242953Y0052530D03*
X0242893Y0052590D03*
X0241093Y0057330D03*
X0241153Y0057390D03*
X0242413Y0058110D03*
X0242473Y0058110D03*
X0242593Y0058170D03*
X0242713Y0058230D03*
X0242773Y0058230D03*
X0242893Y0058290D03*
X0248293Y0057630D03*
X0250693Y0060810D03*
X0248173Y0067110D03*
X0248113Y0067170D03*
X0248053Y0067170D03*
X0244873Y0066990D03*
X0244753Y0066930D03*
X0244693Y0066930D03*
X0244573Y0066870D03*
X0244453Y0066810D03*
D94*
X0250633Y0060780D03*
X0243733Y0058680D03*
X0242833Y0052620D03*
D95*
X0242713Y0052710D03*
X0240973Y0057210D03*
X0244093Y0058890D03*
X0244153Y0058890D03*
X0244213Y0058950D03*
X0243853Y0061890D03*
X0243793Y0061950D03*
X0243613Y0062190D03*
X0243553Y0062250D03*
X0243493Y0062310D03*
X0243313Y0062490D03*
X0243253Y0062550D03*
X0243193Y0062610D03*
X0243013Y0062790D03*
X0242953Y0062850D03*
X0243673Y0066390D03*
X0243793Y0066450D03*
X0243853Y0066510D03*
X0248413Y0066990D03*
X0249073Y0060990D03*
X0250573Y0060810D03*
X0249853Y0057450D03*
D96*
X0250513Y0060840D03*
X0244273Y0058980D03*
X0243973Y0061740D03*
X0242893Y0062940D03*
X0241573Y0064320D03*
X0243613Y0066360D03*
X0248473Y0066960D03*
X0247453Y0053580D03*
X0245893Y0051960D03*
X0242473Y0052920D03*
D97*
X0242413Y0052950D03*
X0242353Y0053010D03*
X0242293Y0053070D03*
X0244213Y0054930D03*
X0245953Y0051990D03*
X0248473Y0057630D03*
X0249793Y0057450D03*
X0250453Y0060810D03*
X0249253Y0060990D03*
X0249193Y0060990D03*
X0244153Y0061530D03*
X0244093Y0061590D03*
X0242773Y0063030D03*
X0243313Y0066150D03*
X0243373Y0066210D03*
X0244393Y0059070D03*
D98*
X0244213Y0061440D03*
X0242713Y0063120D03*
X0242653Y0063180D03*
X0243193Y0066060D03*
X0243253Y0066120D03*
X0248593Y0066840D03*
X0249313Y0060960D03*
X0250393Y0060840D03*
X0249673Y0057480D03*
X0249613Y0057480D03*
X0244993Y0054840D03*
X0242173Y0053160D03*
X0242113Y0053220D03*
X0242053Y0053280D03*
X0246013Y0052020D03*
X0246073Y0052080D03*
D99*
X0244933Y0054840D03*
X0250333Y0060840D03*
D100*
X0250273Y0060870D03*
X0250213Y0060870D03*
X0248713Y0057570D03*
X0245113Y0054870D03*
X0245053Y0054870D03*
X0241993Y0053370D03*
X0242593Y0063270D03*
X0243073Y0065970D03*
D101*
X0250213Y0057420D03*
D102*
X0248773Y0057600D03*
X0249493Y0060960D03*
X0249553Y0060960D03*
X0249913Y0060900D03*
X0250153Y0060900D03*
X0246373Y0062640D03*
X0246313Y0062640D03*
X0246253Y0062640D03*
X0244453Y0059160D03*
X0244873Y0054840D03*
X0245173Y0054840D03*
X0245293Y0054840D03*
X0241873Y0053460D03*
D103*
X0243973Y0054810D03*
X0250153Y0057390D03*
X0246013Y0062130D03*
X0245953Y0063030D03*
D104*
X0246193Y0062610D03*
X0246493Y0062730D03*
X0246673Y0061170D03*
X0246553Y0060990D03*
X0244393Y0061170D03*
X0249613Y0060930D03*
X0249673Y0060930D03*
X0249793Y0060930D03*
X0249853Y0060930D03*
X0249973Y0060870D03*
X0250093Y0060870D03*
X0249373Y0057510D03*
X0249313Y0057510D03*
X0249253Y0057510D03*
X0249193Y0057510D03*
X0249073Y0057570D03*
X0249013Y0057570D03*
X0248953Y0057570D03*
X0248893Y0057570D03*
X0245353Y0054870D03*
X0241753Y0053610D03*
X0241693Y0053670D03*
X0246193Y0052170D03*
X0242773Y0065670D03*
X0248713Y0066690D03*
D105*
X0247273Y0067380D03*
X0247213Y0067380D03*
X0246073Y0067380D03*
X0248893Y0061020D03*
X0250093Y0057420D03*
D106*
X0249133Y0057510D03*
X0249733Y0060930D03*
X0250033Y0060870D03*
X0246733Y0061230D03*
X0246133Y0062610D03*
X0242533Y0063390D03*
X0242833Y0065730D03*
X0249733Y0065610D03*
D107*
X0247933Y0067200D03*
X0244933Y0067020D03*
X0244633Y0066900D03*
X0241933Y0057840D03*
X0241633Y0057720D03*
X0241333Y0057540D03*
X0248233Y0057660D03*
X0250033Y0057420D03*
D108*
X0249973Y0057450D03*
X0243013Y0058350D03*
X0242353Y0058050D03*
X0242293Y0058050D03*
X0241213Y0057450D03*
D109*
X0242953Y0058320D03*
X0243073Y0058380D03*
X0243553Y0058620D03*
X0243613Y0058620D03*
X0243673Y0058680D03*
X0249013Y0061020D03*
X0249913Y0057420D03*
X0242773Y0052680D03*
X0244213Y0066720D03*
X0244273Y0066720D03*
X0244393Y0066780D03*
X0248293Y0067080D03*
X0248353Y0067020D03*
D110*
X0249793Y0065640D03*
X0244153Y0066660D03*
X0244093Y0066660D03*
X0243913Y0066540D03*
X0243913Y0058800D03*
X0243973Y0058800D03*
X0243853Y0058740D03*
X0243793Y0058740D03*
X0243493Y0058560D03*
X0243373Y0058500D03*
X0243313Y0058500D03*
X0243253Y0058440D03*
X0243193Y0058440D03*
X0242653Y0058200D03*
X0245653Y0051900D03*
X0245713Y0051900D03*
D111*
X0242233Y0053130D03*
X0248533Y0057630D03*
X0249733Y0057450D03*
X0244333Y0059010D03*
X0242833Y0062970D03*
D112*
X0241753Y0064350D03*
X0248413Y0063330D03*
X0247513Y0062250D03*
X0249673Y0065610D03*
X0241273Y0054210D03*
D113*
X0244273Y0055020D03*
X0246193Y0060300D03*
X0241873Y0064380D03*
X0249613Y0065580D03*
D114*
X0249553Y0065520D03*
D115*
X0242893Y0065820D03*
X0249493Y0057480D03*
X0249553Y0057480D03*
X0241813Y0053520D03*
D116*
X0249493Y0065520D03*
D117*
X0249433Y0065490D03*
X0247033Y0062190D03*
D118*
X0246433Y0062700D03*
X0244333Y0061260D03*
X0249433Y0060960D03*
X0248833Y0057600D03*
X0245233Y0054840D03*
X0246133Y0052140D03*
D119*
X0249433Y0057480D03*
X0241633Y0064320D03*
D120*
X0249373Y0065460D03*
X0244813Y0059940D03*
X0245353Y0059640D03*
D121*
X0249373Y0060990D03*
X0244273Y0061350D03*
X0242953Y0065850D03*
X0243013Y0065910D03*
X0248653Y0066750D03*
D122*
X0249313Y0065430D03*
D123*
X0249253Y0065400D03*
X0242413Y0064440D03*
D124*
X0249193Y0065370D03*
X0240613Y0055770D03*
D125*
X0249133Y0065340D03*
D126*
X0243433Y0066240D03*
X0244033Y0061680D03*
X0249133Y0061020D03*
X0239833Y0055920D03*
X0242533Y0052860D03*
D127*
X0249073Y0065280D03*
D128*
X0249013Y0065280D03*
X0247093Y0054000D03*
D129*
X0248953Y0065250D03*
D130*
X0247993Y0067200D03*
X0247873Y0067260D03*
X0247813Y0067260D03*
X0245473Y0067200D03*
X0245293Y0067140D03*
X0245173Y0067080D03*
X0245113Y0067080D03*
X0245053Y0067080D03*
X0244993Y0067020D03*
X0244813Y0066960D03*
X0244513Y0066840D03*
X0241513Y0064320D03*
X0248953Y0061020D03*
X0242173Y0057960D03*
X0242113Y0057960D03*
X0242053Y0057900D03*
X0241993Y0057900D03*
X0241873Y0057840D03*
X0241813Y0057780D03*
X0241753Y0057780D03*
X0241693Y0057720D03*
X0241573Y0057660D03*
X0241513Y0057660D03*
X0241453Y0057600D03*
X0241393Y0057540D03*
X0241273Y0057480D03*
X0243073Y0052440D03*
X0243193Y0052380D03*
X0245353Y0051840D03*
X0245413Y0051840D03*
X0245473Y0051840D03*
D131*
X0248893Y0065220D03*
D132*
X0248833Y0065190D03*
D133*
X0248833Y0061020D03*
X0244033Y0054840D03*
D134*
X0246313Y0052350D03*
X0247573Y0062250D03*
X0246673Y0062910D03*
X0248773Y0066510D03*
D135*
X0248773Y0064110D03*
X0241993Y0064410D03*
X0240973Y0054810D03*
X0244393Y0054810D03*
D136*
X0243853Y0054810D03*
X0248773Y0061050D03*
D137*
X0247273Y0062130D03*
X0248713Y0063930D03*
X0240073Y0055890D03*
X0244513Y0054810D03*
D138*
X0243553Y0054810D03*
X0243493Y0054810D03*
X0245713Y0055590D03*
X0248713Y0061050D03*
D139*
X0248653Y0063780D03*
D140*
X0248653Y0057600D03*
X0248593Y0057600D03*
D141*
X0246373Y0052470D03*
X0248593Y0063630D03*
D142*
X0248533Y0066900D03*
D143*
X0248533Y0063540D03*
X0246733Y0062940D03*
D144*
X0247453Y0062220D03*
X0248473Y0063420D03*
X0246253Y0060480D03*
X0247393Y0053640D03*
D145*
X0245773Y0051930D03*
X0242653Y0052770D03*
X0248353Y0057630D03*
X0248413Y0057630D03*
X0243913Y0061830D03*
X0243673Y0062130D03*
X0243373Y0062430D03*
X0243073Y0062730D03*
X0243553Y0066330D03*
X0243973Y0066570D03*
D146*
X0248353Y0063240D03*
X0248293Y0063120D03*
X0239953Y0055920D03*
X0244693Y0054840D03*
D147*
X0245533Y0051870D03*
X0242233Y0057990D03*
X0242833Y0058290D03*
X0243133Y0058410D03*
X0248233Y0067110D03*
D148*
X0248233Y0063030D03*
D149*
X0248173Y0062940D03*
X0248053Y0062760D03*
X0247993Y0062700D03*
X0244753Y0054840D03*
X0241453Y0053940D03*
D150*
X0243373Y0052260D03*
X0243493Y0052200D03*
X0244753Y0051840D03*
X0244813Y0051840D03*
X0244873Y0051840D03*
X0244993Y0051840D03*
X0245053Y0051840D03*
X0244153Y0054840D03*
X0248173Y0057660D03*
X0246973Y0067440D03*
X0246913Y0067440D03*
X0246853Y0067440D03*
X0246793Y0067440D03*
X0246673Y0067440D03*
X0246613Y0067440D03*
X0246553Y0067440D03*
X0246493Y0067440D03*
X0246373Y0067440D03*
X0246313Y0067440D03*
D151*
X0242653Y0065520D03*
X0248113Y0062880D03*
X0246373Y0060720D03*
D152*
X0248113Y0057660D03*
X0245413Y0055260D03*
X0245413Y0054480D03*
X0244093Y0054840D03*
D153*
X0243793Y0054840D03*
X0248053Y0057660D03*
X0245953Y0062040D03*
D154*
X0246433Y0060810D03*
X0247933Y0062610D03*
D155*
X0247873Y0062550D03*
X0246613Y0062850D03*
X0241693Y0064350D03*
D156*
X0242713Y0065580D03*
X0246073Y0062580D03*
X0247813Y0062460D03*
X0246613Y0061080D03*
X0246493Y0060900D03*
X0239893Y0055920D03*
X0241573Y0053820D03*
X0244813Y0054840D03*
D157*
X0241513Y0053910D03*
X0246253Y0052230D03*
X0244453Y0060990D03*
X0247693Y0062310D03*
X0247753Y0062370D03*
X0246553Y0062790D03*
D158*
X0245233Y0067110D03*
X0245533Y0067230D03*
X0245833Y0067290D03*
X0247633Y0067290D03*
X0243133Y0052410D03*
X0245233Y0051810D03*
D159*
X0247633Y0062280D03*
D160*
X0247573Y0067350D03*
X0247513Y0067350D03*
X0247453Y0067350D03*
X0247393Y0067350D03*
X0246013Y0067350D03*
X0245953Y0067350D03*
X0245893Y0067350D03*
X0243253Y0052350D03*
D161*
X0241153Y0054390D03*
X0240013Y0055890D03*
X0247393Y0062190D03*
X0241813Y0064350D03*
D162*
X0246133Y0067380D03*
X0247333Y0067380D03*
D163*
X0247333Y0062130D03*
D164*
X0247333Y0053700D03*
D165*
X0247273Y0053790D03*
X0246313Y0056790D03*
X0244993Y0059850D03*
X0244873Y0059910D03*
D166*
X0247213Y0062100D03*
D167*
X0247213Y0053850D03*
D168*
X0247153Y0062100D03*
D169*
X0247153Y0053910D03*
D170*
X0247093Y0062160D03*
D171*
X0247033Y0067440D03*
X0246733Y0067440D03*
X0246433Y0067440D03*
X0243433Y0052260D03*
X0244933Y0051840D03*
D172*
X0247033Y0054030D03*
D173*
X0244753Y0059970D03*
X0246973Y0062250D03*
D174*
X0245953Y0058980D03*
X0246973Y0054120D03*
D175*
X0240493Y0055770D03*
X0244513Y0060090D03*
X0246913Y0062310D03*
D176*
X0246013Y0058860D03*
X0246913Y0054180D03*
D177*
X0246853Y0062340D03*
X0242473Y0064440D03*
D178*
X0246073Y0058800D03*
X0246853Y0054240D03*
D179*
X0246793Y0062250D03*
D180*
X0246793Y0054330D03*
D181*
X0246733Y0054390D03*
D182*
X0246673Y0054450D03*
D183*
X0246613Y0054540D03*
D184*
X0246553Y0054570D03*
D185*
X0246493Y0054660D03*
D186*
X0246433Y0056190D03*
D187*
X0246433Y0052650D03*
X0241933Y0064410D03*
D188*
X0242293Y0064440D03*
X0245413Y0059580D03*
X0246373Y0056520D03*
D189*
X0246313Y0060600D03*
D190*
X0246253Y0056970D03*
D191*
X0246193Y0057240D03*
X0242113Y0064440D03*
D192*
X0246133Y0058710D03*
D193*
X0246013Y0063000D03*
D194*
X0245893Y0061890D03*
X0245653Y0055530D03*
X0243673Y0054810D03*
X0243613Y0054810D03*
D195*
X0245893Y0059040D03*
D196*
X0245533Y0055380D03*
X0245833Y0063120D03*
D197*
X0245833Y0061800D03*
D198*
X0245833Y0059130D03*
D199*
X0243433Y0062370D03*
X0243133Y0062670D03*
X0245833Y0051930D03*
D200*
X0245653Y0054240D03*
X0245593Y0055440D03*
X0245773Y0063120D03*
D201*
X0245773Y0059190D03*
X0240793Y0055710D03*
D202*
X0245773Y0054120D03*
X0245593Y0063240D03*
D203*
X0245713Y0063150D03*
D204*
X0245713Y0059250D03*
D205*
X0245653Y0063180D03*
X0245713Y0054180D03*
D206*
X0245653Y0059340D03*
D207*
X0245593Y0059430D03*
X0240553Y0055770D03*
D208*
X0245593Y0054270D03*
D209*
X0245533Y0059490D03*
D210*
X0245533Y0054360D03*
D211*
X0245473Y0059550D03*
D212*
X0245293Y0059670D03*
D213*
X0245233Y0059730D03*
D214*
X0245173Y0059760D03*
X0245113Y0059760D03*
X0242173Y0064440D03*
X0240313Y0055800D03*
D215*
X0245053Y0059820D03*
D216*
X0244933Y0059880D03*
D217*
X0244693Y0060000D03*
D218*
X0243613Y0052170D03*
X0243553Y0052170D03*
X0244273Y0051930D03*
X0244393Y0051930D03*
X0244453Y0051930D03*
X0244513Y0051870D03*
X0244573Y0051870D03*
X0244693Y0051870D03*
D219*
X0240433Y0055770D03*
X0244633Y0060030D03*
D220*
X0244633Y0054810D03*
D221*
X0244333Y0051930D03*
X0244633Y0051870D03*
D222*
X0244573Y0060060D03*
X0242353Y0064440D03*
D223*
X0244573Y0054810D03*
X0241093Y0054510D03*
D224*
X0244453Y0054810D03*
D225*
X0244333Y0066750D03*
D226*
X0244333Y0054840D03*
D227*
X0242533Y0058140D03*
X0243433Y0058560D03*
X0244033Y0058860D03*
X0241033Y0057300D03*
X0244033Y0066600D03*
D228*
X0243733Y0052110D03*
X0244033Y0051990D03*
D229*
X0243733Y0062010D03*
X0243733Y0066450D03*
D230*
X0243733Y0054810D03*
D231*
X0242593Y0052800D03*
X0243493Y0066300D03*
D232*
X0243133Y0066000D03*
D233*
X0242593Y0065430D03*
X0241393Y0054030D03*
D234*
X0241333Y0054120D03*
X0242533Y0065340D03*
D235*
X0242233Y0064440D03*
D236*
X0242053Y0064410D03*
D237*
X0241933Y0053430D03*
D238*
X0241633Y0053760D03*
D239*
X0241213Y0054300D03*
D240*
X0241033Y0054630D03*
D241*
X0240913Y0055680D03*
D242*
X0240853Y0055710D03*
D243*
X0240733Y0055710D03*
D244*
X0240673Y0055740D03*
D245*
X0240373Y0055800D03*
D246*
X0240253Y0055830D03*
D247*
X0240193Y0055830D03*
D248*
X0240133Y0055860D03*
M02*
