%
M48
M72
T01C0.01200
T02C0.01300
T03C0.03150
T04C0.04000
T05C0.04400
T06C0.05000
%
T01
X63833Y35800
X66833Y35800
X66833Y38800
X63833Y38800
X63833Y41800
X66833Y41800
X89833Y40800
X99333Y40800
X99333Y43800
X99333Y46800
X100333Y50300
X96833Y50300
X109833Y52400
X126333Y57300
X129333Y57300
X129333Y60300
X126333Y60300
X109833Y63300
X107333Y65800
X114833Y72300
X96833Y74800
X103833Y84800
X109333Y93300
X112333Y93300
X112333Y96300
X109333Y96300
X81333Y94800
X78333Y94800
X66833Y81800
X63833Y81800
X63833Y78800
X66833Y78800
X66833Y75800
X63833Y75800
X74833Y57300
X126533Y40500
X141833Y44800
X144333Y42300
X146833Y39800
X149333Y37300
X151833Y34800
X154333Y32300
X156833Y29800
X161833Y24800
X159333Y22300
X156833Y19800
X146833Y19800
X168733Y23300
X185833Y24300
X189333Y24300
X202833Y24300
X205833Y24300
X205833Y21300
X202833Y21300
X240333Y26800
X250333Y26800
X259333Y26800
X260933Y33000
X260833Y40300
X248933Y41000
X244333Y41100
X238433Y45000
X234833Y49800
X243333Y49800
X255933Y51300
X238433Y64500
X205833Y67300
X202833Y67300
X202833Y70300
X205833Y70300
X195833Y72800
X188933Y71900
X190833Y68800
X194333Y64800
X178733Y72800
X173333Y71600
X173333Y75300
X160333Y70300
X160333Y66600
X160333Y62800
X160333Y58800
X170933Y53200
X177833Y51300
X171333Y47800
X176333Y43800
X190333Y39800
X199833Y41300
X202833Y46300
X205833Y46300
X205833Y49300
X202833Y49300
X173833Y65800
X150833Y77300
X140833Y72300
X131633Y79700
X160333Y90300
X180833Y90300
X190433Y87500
X204833Y88800
X205833Y93300
X202833Y93300
X202833Y96300
X205833Y96300
X226833Y96300
X238433Y87000
X249933Y78000
X244333Y77300
X293433Y72000
X312933Y72000
X316333Y68800
X341333Y69300
X340933Y62500
X354533Y59100
X372333Y60300
X375333Y60300
X375333Y57300
X372333Y57300
X364933Y66500
X372333Y79300
X375333Y79300
X375333Y82300
X372333Y82300
X352933Y79000
X332333Y93300
X322833Y93300
X329233Y101300
X353433Y101500
X357333Y98300
X312833Y77800
X312333Y58800
X308433Y55500
X293433Y56000
X293333Y59300
X293433Y48000
X312433Y48000
X319833Y45300
X339833Y50400
X357333Y48800
X372333Y38800
X375333Y38800
X375333Y35800
X372333Y35800
X339933Y39000
X324833Y21800
X157833Y52300
X112333Y24300
X109333Y24300
X109333Y21300
X112333Y21300
X145433Y100000
T02
X160333Y86300
X160333Y82300
X160333Y78300
X160333Y74300
X147333Y77300
X124033Y76200
X116333Y78800
X90033Y66300
X70333Y68800
X61533Y62700
X64133Y54700
X73833Y50800
X67333Y45300
X90033Y51000
X113833Y46300
X145833Y60100
X108833Y29300
X86133Y94800
X332933Y26500
X354033Y42700
X363433Y80500
X360433Y84000
T03
X289079Y67858
X313292Y43646
T04
X285433Y45000
X275433Y45500
X265433Y45500
X266433Y35500
X276433Y35500
X286433Y35000
X285433Y25000
X275433Y25500
X265433Y25500
X265433Y73000
X275433Y73000
X285433Y73000
X284433Y83000
X274433Y83000
X264433Y83000
X265433Y93000
X275433Y93000
X285433Y93000
T05
X285433Y99500
X275433Y99500
X265433Y99500
X255433Y99500
X245433Y99500
X235433Y99500
X226433Y85000
X226433Y75000
X226433Y65000
X226433Y55000
X226433Y45000
X226433Y35000
X235433Y18000
X245433Y18000
X255433Y18000
X265433Y18000
X275433Y18000
X285433Y18000
X295433Y18000
X305433Y18000
X315433Y18000
X315433Y99500
X305433Y99500
X295433Y99500
T06
X338333Y94430
X174833Y94430
X174833Y23170
X338333Y23170
M30
