G75*
%MOIN*%
%OFA0B0*%
%FSLAX25Y25*%
%IPPOS*%
%LPD*%
%AMOC8*
5,1,8,0,0,1.08239X$1,22.5*
%
%ADD10C,0.00394*%
%ADD11R,0.06306X0.03156*%
%ADD12R,0.13786X0.05518*%
%ADD13C,0.00000*%
%ADD14C,0.05400*%
%ADD15C,0.07800*%
%ADD16C,0.03550*%
%ADD17C,0.07800*%
D10*
X0059760Y0017852D02*
X0059360Y0018793D01*
X0059205Y0019287D01*
X0059100Y0019798D01*
X0058994Y0020310D01*
X0058939Y0020839D01*
X0058939Y0035160D01*
X0011695Y0035160D01*
X0011695Y0082404D01*
X0058939Y0082404D01*
X0058939Y0096725D01*
X0058994Y0097254D01*
X0059100Y0097765D01*
X0059205Y0098276D01*
X0059360Y0098770D01*
X0059760Y0099711D01*
X0060005Y0100159D01*
X0060288Y0100578D01*
X0060572Y0100997D01*
X0060895Y0101387D01*
X0061252Y0101744D01*
X0061609Y0102101D01*
X0061999Y0102424D01*
X0062418Y0102708D01*
X0062838Y0102991D01*
X0063285Y0103236D01*
X0064226Y0103636D01*
X0064720Y0103791D01*
X0065231Y0103897D01*
X0065743Y0104002D01*
X0066272Y0104057D01*
X0165750Y0104057D01*
X0166308Y0104105D01*
X0167439Y0104286D01*
X0168012Y0104419D01*
X0168585Y0104591D01*
X0169158Y0104762D01*
X0169731Y0104972D01*
X0170860Y0105460D01*
X0171416Y0105737D01*
X0171956Y0106043D01*
X0172495Y0106350D01*
X0173018Y0106685D01*
X0173517Y0107045D01*
X0174016Y0107405D01*
X0174489Y0107789D01*
X0175372Y0108597D01*
X0175780Y0109021D01*
X0176515Y0109899D01*
X0176841Y0110354D01*
X0177119Y0110818D01*
X0177895Y0112119D01*
X0178672Y0113420D01*
X0179448Y0114721D01*
X0180225Y0116022D01*
X0181002Y0117323D01*
X0181778Y0118624D01*
X0182555Y0119926D01*
X0183331Y0121227D01*
X0183609Y0121691D01*
X0183935Y0122146D01*
X0184303Y0122585D01*
X0184670Y0123024D01*
X0185078Y0123448D01*
X0185520Y0123852D01*
X0185961Y0124256D01*
X0186435Y0124640D01*
X0186933Y0125000D01*
X0187432Y0125360D01*
X0187955Y0125695D01*
X0188494Y0126002D01*
X0189034Y0126308D01*
X0189590Y0126585D01*
X0190719Y0127073D01*
X0191292Y0127283D01*
X0191865Y0127454D01*
X0192438Y0127626D01*
X0193011Y0127759D01*
X0193577Y0127850D01*
X0194142Y0127940D01*
X0194700Y0127988D01*
X0209087Y0127988D01*
X0209616Y0127932D01*
X0210127Y0127827D01*
X0210638Y0127722D01*
X0211132Y0127566D01*
X0211603Y0127366D01*
X0212073Y0127166D01*
X0212521Y0126922D01*
X0212940Y0126638D01*
X0213359Y0126354D01*
X0213749Y0126031D01*
X0214106Y0125675D01*
X0214463Y0125318D01*
X0214786Y0124927D01*
X0215070Y0124508D01*
X0215353Y0124089D01*
X0215598Y0123642D01*
X0215798Y0123171D01*
X0215998Y0122700D01*
X0216153Y0122207D01*
X0216259Y0121695D01*
X0216364Y0121184D01*
X0216419Y0120655D01*
X0216419Y0020839D01*
X0216364Y0020310D01*
X0216259Y0019798D01*
X0216153Y0019287D01*
X0215998Y0018793D01*
X0215798Y0018323D01*
X0215598Y0017852D01*
X0215353Y0017405D01*
X0215070Y0016985D01*
X0214786Y0016566D01*
X0214463Y0016176D01*
X0214106Y0015819D01*
X0213749Y0015462D01*
X0213359Y0015139D01*
X0212940Y0014855D01*
X0212521Y0014572D01*
X0212073Y0014327D01*
X0211603Y0014127D01*
X0211132Y0013927D01*
X0210638Y0013772D01*
X0210127Y0013667D01*
X0209616Y0013561D01*
X0209087Y0013506D01*
X0066272Y0013506D01*
X0065743Y0013561D01*
X0065231Y0013667D01*
X0064720Y0013772D01*
X0064226Y0013927D01*
X0063756Y0014127D01*
X0063285Y0014327D01*
X0062838Y0014572D01*
X0062418Y0014855D01*
X0061999Y0015139D01*
X0061609Y0015462D01*
X0061252Y0015819D01*
X0060895Y0016176D01*
X0060572Y0016566D01*
X0060288Y0016985D01*
X0060005Y0017405D01*
X0059760Y0017852D01*
X0222347Y0020839D02*
X0222403Y0020310D01*
X0222508Y0019798D01*
X0222614Y0019287D01*
X0222769Y0018793D01*
X0223169Y0017852D01*
X0223413Y0017405D01*
X0223697Y0016985D01*
X0223981Y0016566D01*
X0224304Y0016176D01*
X0225017Y0015462D01*
X0225408Y0015139D01*
X0225827Y0014855D01*
X0226246Y0014572D01*
X0226694Y0014327D01*
X0227635Y0013927D01*
X0228128Y0013772D01*
X0228640Y0013667D01*
X0229151Y0013561D01*
X0229680Y0013506D01*
X0372495Y0013506D01*
X0373024Y0013561D01*
X0373535Y0013667D01*
X0374047Y0013772D01*
X0374541Y0013927D01*
X0375482Y0014327D01*
X0375929Y0014572D01*
X0376348Y0014855D01*
X0376767Y0015139D01*
X0377158Y0015462D01*
X0377872Y0016176D01*
X0378195Y0016566D01*
X0378478Y0016985D01*
X0378762Y0017405D01*
X0379007Y0017852D01*
X0379206Y0018323D01*
X0379406Y0018793D01*
X0379562Y0019287D01*
X0379667Y0019798D01*
X0379772Y0020310D01*
X0379828Y0020839D01*
X0379828Y0021380D02*
X0379828Y0096725D01*
X0379772Y0097254D01*
X0379667Y0097765D01*
X0379562Y0098276D01*
X0379406Y0098770D01*
X0379206Y0099241D01*
X0379007Y0099711D01*
X0378762Y0100159D01*
X0378195Y0100997D01*
X0377872Y0101387D01*
X0377158Y0102101D01*
X0376767Y0102424D01*
X0376348Y0102708D01*
X0375929Y0102991D01*
X0375482Y0103236D01*
X0375011Y0103436D01*
X0374541Y0103636D01*
X0374047Y0103791D01*
X0373535Y0103897D01*
X0373024Y0104002D01*
X0372495Y0104057D01*
X0229680Y0104057D01*
X0229151Y0104002D01*
X0228640Y0103897D01*
X0228128Y0103791D01*
X0227635Y0103636D01*
X0227164Y0103436D01*
X0226694Y0103236D01*
X0226246Y0102991D01*
X0225827Y0102708D01*
X0225408Y0102424D01*
X0225017Y0102101D01*
X0224304Y0101387D01*
X0223981Y0100997D01*
X0223697Y0100578D01*
X0223413Y0100159D01*
X0223169Y0099711D01*
X0222969Y0099241D01*
X0222769Y0098770D01*
X0222614Y0098276D01*
X0222508Y0097765D01*
X0222403Y0097254D01*
X0222347Y0096725D01*
X0222347Y0020839D01*
X0202334Y0104946D02*
X0201693Y0104815D01*
X0201053Y0104684D01*
X0200389Y0104615D01*
X0199030Y0104615D01*
X0198367Y0104684D01*
X0197726Y0104815D01*
X0197085Y0104946D01*
X0196467Y0105139D01*
X0195879Y0105388D01*
X0195290Y0105637D01*
X0194730Y0105942D01*
X0194207Y0106296D01*
X0193683Y0106649D01*
X0193195Y0107052D01*
X0192305Y0107943D01*
X0191902Y0108430D01*
X0191548Y0108954D01*
X0191194Y0109478D01*
X0190890Y0110037D01*
X0190641Y0110626D01*
X0190392Y0111215D01*
X0190198Y0111833D01*
X0190067Y0112474D01*
X0189936Y0113114D01*
X0189867Y0113778D01*
X0189867Y0115137D01*
X0189936Y0115800D01*
X0190067Y0116441D01*
X0190198Y0117081D01*
X0190392Y0117700D01*
X0190641Y0118288D01*
X0190890Y0118877D01*
X0191194Y0119437D01*
X0191902Y0120484D01*
X0192305Y0120972D01*
X0192750Y0121417D01*
X0193195Y0121862D01*
X0193683Y0122265D01*
X0194207Y0122619D01*
X0194730Y0122972D01*
X0195290Y0123277D01*
X0195879Y0123526D01*
X0196467Y0123775D01*
X0197085Y0123969D01*
X0197726Y0124100D01*
X0198367Y0124231D01*
X0199030Y0124300D01*
X0200389Y0124300D01*
X0201053Y0124231D01*
X0202334Y0123969D01*
X0202952Y0123775D01*
X0203541Y0123526D01*
X0204130Y0123277D01*
X0204689Y0122972D01*
X0205736Y0122265D01*
X0206224Y0121862D01*
X0206669Y0121417D01*
X0207115Y0120972D01*
X0207517Y0120484D01*
X0208225Y0119437D01*
X0208530Y0118877D01*
X0208779Y0118288D01*
X0209028Y0117700D01*
X0209221Y0117081D01*
X0209483Y0115800D01*
X0209552Y0115137D01*
X0209552Y0113778D01*
X0209483Y0113114D01*
X0209352Y0112474D01*
X0209221Y0111833D01*
X0209028Y0111215D01*
X0208779Y0110626D01*
X0208530Y0110037D01*
X0208225Y0109478D01*
X0207871Y0108954D01*
X0207517Y0108430D01*
X0207115Y0107943D01*
X0206224Y0107052D01*
X0205736Y0106649D01*
X0204689Y0105942D01*
X0204130Y0105637D01*
X0203541Y0105388D01*
X0202952Y0105139D01*
X0202334Y0104946D01*
D11*
X0183692Y0088328D03*
X0183692Y0084391D03*
X0183692Y0080454D03*
X0183692Y0076517D03*
X0183692Y0072580D03*
X0183692Y0068643D03*
X0183692Y0064706D03*
X0183692Y0060769D03*
X0183692Y0056831D03*
X0183692Y0052894D03*
X0183692Y0048957D03*
X0183692Y0045020D03*
X0183692Y0041083D03*
X0183692Y0037146D03*
X0183692Y0033209D03*
X0183692Y0029272D03*
X0165975Y0031241D03*
X0165975Y0035178D03*
X0165975Y0039115D03*
X0165975Y0043052D03*
X0165975Y0046989D03*
X0165975Y0050926D03*
X0165975Y0054863D03*
X0165975Y0058800D03*
X0165975Y0062737D03*
X0165975Y0066674D03*
X0165975Y0070611D03*
X0165975Y0074548D03*
X0165975Y0078485D03*
X0165975Y0082422D03*
X0165975Y0086359D03*
X0329475Y0086359D03*
X0329475Y0082422D03*
X0329475Y0078485D03*
X0329475Y0074548D03*
X0329475Y0070611D03*
X0329475Y0066674D03*
X0329475Y0062737D03*
X0329475Y0058800D03*
X0329475Y0054863D03*
X0329475Y0050926D03*
X0329475Y0046989D03*
X0329475Y0043052D03*
X0329475Y0039115D03*
X0329475Y0035178D03*
X0329475Y0031241D03*
X0347192Y0033209D03*
X0347192Y0029272D03*
X0347192Y0037146D03*
X0347192Y0041083D03*
X0347192Y0045020D03*
X0347192Y0048957D03*
X0347192Y0052894D03*
X0347192Y0056831D03*
X0347192Y0060769D03*
X0347192Y0064706D03*
X0347192Y0068643D03*
X0347192Y0072580D03*
X0347192Y0076517D03*
X0347192Y0080454D03*
X0347192Y0084391D03*
X0347192Y0088328D03*
D12*
X0338333Y0099548D03*
X0174833Y0099548D03*
X0174833Y0018052D03*
X0338333Y0018052D03*
D13*
X0335833Y0023170D02*
X0335835Y0023269D01*
X0335841Y0023369D01*
X0335851Y0023468D01*
X0335865Y0023566D01*
X0335882Y0023664D01*
X0335904Y0023761D01*
X0335929Y0023857D01*
X0335958Y0023952D01*
X0335991Y0024046D01*
X0336028Y0024138D01*
X0336068Y0024229D01*
X0336112Y0024318D01*
X0336160Y0024406D01*
X0336211Y0024491D01*
X0336265Y0024574D01*
X0336322Y0024656D01*
X0336383Y0024734D01*
X0336447Y0024811D01*
X0336513Y0024884D01*
X0336583Y0024955D01*
X0336655Y0025023D01*
X0336730Y0025089D01*
X0336808Y0025151D01*
X0336888Y0025210D01*
X0336970Y0025266D01*
X0337054Y0025318D01*
X0337141Y0025367D01*
X0337229Y0025413D01*
X0337319Y0025455D01*
X0337411Y0025494D01*
X0337504Y0025529D01*
X0337598Y0025560D01*
X0337694Y0025587D01*
X0337791Y0025610D01*
X0337888Y0025630D01*
X0337986Y0025646D01*
X0338085Y0025658D01*
X0338184Y0025666D01*
X0338283Y0025670D01*
X0338383Y0025670D01*
X0338482Y0025666D01*
X0338581Y0025658D01*
X0338680Y0025646D01*
X0338778Y0025630D01*
X0338875Y0025610D01*
X0338972Y0025587D01*
X0339068Y0025560D01*
X0339162Y0025529D01*
X0339255Y0025494D01*
X0339347Y0025455D01*
X0339437Y0025413D01*
X0339525Y0025367D01*
X0339612Y0025318D01*
X0339696Y0025266D01*
X0339778Y0025210D01*
X0339858Y0025151D01*
X0339936Y0025089D01*
X0340011Y0025023D01*
X0340083Y0024955D01*
X0340153Y0024884D01*
X0340219Y0024811D01*
X0340283Y0024734D01*
X0340344Y0024656D01*
X0340401Y0024574D01*
X0340455Y0024491D01*
X0340506Y0024406D01*
X0340554Y0024318D01*
X0340598Y0024229D01*
X0340638Y0024138D01*
X0340675Y0024046D01*
X0340708Y0023952D01*
X0340737Y0023857D01*
X0340762Y0023761D01*
X0340784Y0023664D01*
X0340801Y0023566D01*
X0340815Y0023468D01*
X0340825Y0023369D01*
X0340831Y0023269D01*
X0340833Y0023170D01*
X0340831Y0023071D01*
X0340825Y0022971D01*
X0340815Y0022872D01*
X0340801Y0022774D01*
X0340784Y0022676D01*
X0340762Y0022579D01*
X0340737Y0022483D01*
X0340708Y0022388D01*
X0340675Y0022294D01*
X0340638Y0022202D01*
X0340598Y0022111D01*
X0340554Y0022022D01*
X0340506Y0021934D01*
X0340455Y0021849D01*
X0340401Y0021766D01*
X0340344Y0021684D01*
X0340283Y0021606D01*
X0340219Y0021529D01*
X0340153Y0021456D01*
X0340083Y0021385D01*
X0340011Y0021317D01*
X0339936Y0021251D01*
X0339858Y0021189D01*
X0339778Y0021130D01*
X0339696Y0021074D01*
X0339612Y0021022D01*
X0339525Y0020973D01*
X0339437Y0020927D01*
X0339347Y0020885D01*
X0339255Y0020846D01*
X0339162Y0020811D01*
X0339068Y0020780D01*
X0338972Y0020753D01*
X0338875Y0020730D01*
X0338778Y0020710D01*
X0338680Y0020694D01*
X0338581Y0020682D01*
X0338482Y0020674D01*
X0338383Y0020670D01*
X0338283Y0020670D01*
X0338184Y0020674D01*
X0338085Y0020682D01*
X0337986Y0020694D01*
X0337888Y0020710D01*
X0337791Y0020730D01*
X0337694Y0020753D01*
X0337598Y0020780D01*
X0337504Y0020811D01*
X0337411Y0020846D01*
X0337319Y0020885D01*
X0337229Y0020927D01*
X0337141Y0020973D01*
X0337054Y0021022D01*
X0336970Y0021074D01*
X0336888Y0021130D01*
X0336808Y0021189D01*
X0336730Y0021251D01*
X0336655Y0021317D01*
X0336583Y0021385D01*
X0336513Y0021456D01*
X0336447Y0021529D01*
X0336383Y0021606D01*
X0336322Y0021684D01*
X0336265Y0021766D01*
X0336211Y0021849D01*
X0336160Y0021934D01*
X0336112Y0022022D01*
X0336068Y0022111D01*
X0336028Y0022202D01*
X0335991Y0022294D01*
X0335958Y0022388D01*
X0335929Y0022483D01*
X0335904Y0022579D01*
X0335882Y0022676D01*
X0335865Y0022774D01*
X0335851Y0022872D01*
X0335841Y0022971D01*
X0335835Y0023071D01*
X0335833Y0023170D01*
X0311717Y0043646D02*
X0311719Y0043725D01*
X0311725Y0043804D01*
X0311735Y0043883D01*
X0311749Y0043961D01*
X0311766Y0044038D01*
X0311788Y0044114D01*
X0311813Y0044189D01*
X0311843Y0044262D01*
X0311875Y0044334D01*
X0311912Y0044405D01*
X0311952Y0044473D01*
X0311995Y0044539D01*
X0312041Y0044603D01*
X0312091Y0044665D01*
X0312144Y0044724D01*
X0312199Y0044780D01*
X0312258Y0044834D01*
X0312319Y0044884D01*
X0312382Y0044932D01*
X0312448Y0044976D01*
X0312516Y0045017D01*
X0312586Y0045054D01*
X0312657Y0045088D01*
X0312731Y0045118D01*
X0312805Y0045144D01*
X0312881Y0045166D01*
X0312958Y0045185D01*
X0313036Y0045200D01*
X0313114Y0045211D01*
X0313193Y0045218D01*
X0313272Y0045221D01*
X0313351Y0045220D01*
X0313430Y0045215D01*
X0313509Y0045206D01*
X0313587Y0045193D01*
X0313664Y0045176D01*
X0313741Y0045156D01*
X0313816Y0045131D01*
X0313890Y0045103D01*
X0313963Y0045071D01*
X0314033Y0045036D01*
X0314102Y0044997D01*
X0314169Y0044954D01*
X0314234Y0044908D01*
X0314296Y0044860D01*
X0314356Y0044808D01*
X0314413Y0044753D01*
X0314467Y0044695D01*
X0314518Y0044635D01*
X0314566Y0044572D01*
X0314611Y0044507D01*
X0314653Y0044439D01*
X0314691Y0044370D01*
X0314725Y0044299D01*
X0314756Y0044226D01*
X0314784Y0044151D01*
X0314807Y0044076D01*
X0314827Y0043999D01*
X0314843Y0043922D01*
X0314855Y0043843D01*
X0314863Y0043765D01*
X0314867Y0043686D01*
X0314867Y0043606D01*
X0314863Y0043527D01*
X0314855Y0043449D01*
X0314843Y0043370D01*
X0314827Y0043293D01*
X0314807Y0043216D01*
X0314784Y0043141D01*
X0314756Y0043066D01*
X0314725Y0042993D01*
X0314691Y0042922D01*
X0314653Y0042853D01*
X0314611Y0042785D01*
X0314566Y0042720D01*
X0314518Y0042657D01*
X0314467Y0042597D01*
X0314413Y0042539D01*
X0314356Y0042484D01*
X0314296Y0042432D01*
X0314234Y0042384D01*
X0314169Y0042338D01*
X0314102Y0042295D01*
X0314033Y0042256D01*
X0313963Y0042221D01*
X0313890Y0042189D01*
X0313816Y0042161D01*
X0313741Y0042136D01*
X0313664Y0042116D01*
X0313587Y0042099D01*
X0313509Y0042086D01*
X0313430Y0042077D01*
X0313351Y0042072D01*
X0313272Y0042071D01*
X0313193Y0042074D01*
X0313114Y0042081D01*
X0313036Y0042092D01*
X0312958Y0042107D01*
X0312881Y0042126D01*
X0312805Y0042148D01*
X0312731Y0042174D01*
X0312657Y0042204D01*
X0312586Y0042238D01*
X0312516Y0042275D01*
X0312448Y0042316D01*
X0312382Y0042360D01*
X0312319Y0042408D01*
X0312258Y0042458D01*
X0312199Y0042512D01*
X0312144Y0042568D01*
X0312091Y0042627D01*
X0312041Y0042689D01*
X0311995Y0042753D01*
X0311952Y0042819D01*
X0311912Y0042887D01*
X0311875Y0042958D01*
X0311843Y0043030D01*
X0311813Y0043103D01*
X0311788Y0043178D01*
X0311766Y0043254D01*
X0311749Y0043331D01*
X0311735Y0043409D01*
X0311725Y0043488D01*
X0311719Y0043567D01*
X0311717Y0043646D01*
X0287504Y0067858D02*
X0287506Y0067937D01*
X0287512Y0068016D01*
X0287522Y0068095D01*
X0287536Y0068173D01*
X0287553Y0068250D01*
X0287575Y0068326D01*
X0287600Y0068401D01*
X0287630Y0068474D01*
X0287662Y0068546D01*
X0287699Y0068617D01*
X0287739Y0068685D01*
X0287782Y0068751D01*
X0287828Y0068815D01*
X0287878Y0068877D01*
X0287931Y0068936D01*
X0287986Y0068992D01*
X0288045Y0069046D01*
X0288106Y0069096D01*
X0288169Y0069144D01*
X0288235Y0069188D01*
X0288303Y0069229D01*
X0288373Y0069266D01*
X0288444Y0069300D01*
X0288518Y0069330D01*
X0288592Y0069356D01*
X0288668Y0069378D01*
X0288745Y0069397D01*
X0288823Y0069412D01*
X0288901Y0069423D01*
X0288980Y0069430D01*
X0289059Y0069433D01*
X0289138Y0069432D01*
X0289217Y0069427D01*
X0289296Y0069418D01*
X0289374Y0069405D01*
X0289451Y0069388D01*
X0289528Y0069368D01*
X0289603Y0069343D01*
X0289677Y0069315D01*
X0289750Y0069283D01*
X0289820Y0069248D01*
X0289889Y0069209D01*
X0289956Y0069166D01*
X0290021Y0069120D01*
X0290083Y0069072D01*
X0290143Y0069020D01*
X0290200Y0068965D01*
X0290254Y0068907D01*
X0290305Y0068847D01*
X0290353Y0068784D01*
X0290398Y0068719D01*
X0290440Y0068651D01*
X0290478Y0068582D01*
X0290512Y0068511D01*
X0290543Y0068438D01*
X0290571Y0068363D01*
X0290594Y0068288D01*
X0290614Y0068211D01*
X0290630Y0068134D01*
X0290642Y0068055D01*
X0290650Y0067977D01*
X0290654Y0067898D01*
X0290654Y0067818D01*
X0290650Y0067739D01*
X0290642Y0067661D01*
X0290630Y0067582D01*
X0290614Y0067505D01*
X0290594Y0067428D01*
X0290571Y0067353D01*
X0290543Y0067278D01*
X0290512Y0067205D01*
X0290478Y0067134D01*
X0290440Y0067065D01*
X0290398Y0066997D01*
X0290353Y0066932D01*
X0290305Y0066869D01*
X0290254Y0066809D01*
X0290200Y0066751D01*
X0290143Y0066696D01*
X0290083Y0066644D01*
X0290021Y0066596D01*
X0289956Y0066550D01*
X0289889Y0066507D01*
X0289820Y0066468D01*
X0289750Y0066433D01*
X0289677Y0066401D01*
X0289603Y0066373D01*
X0289528Y0066348D01*
X0289451Y0066328D01*
X0289374Y0066311D01*
X0289296Y0066298D01*
X0289217Y0066289D01*
X0289138Y0066284D01*
X0289059Y0066283D01*
X0288980Y0066286D01*
X0288901Y0066293D01*
X0288823Y0066304D01*
X0288745Y0066319D01*
X0288668Y0066338D01*
X0288592Y0066360D01*
X0288518Y0066386D01*
X0288444Y0066416D01*
X0288373Y0066450D01*
X0288303Y0066487D01*
X0288235Y0066528D01*
X0288169Y0066572D01*
X0288106Y0066620D01*
X0288045Y0066670D01*
X0287986Y0066724D01*
X0287931Y0066780D01*
X0287878Y0066839D01*
X0287828Y0066901D01*
X0287782Y0066965D01*
X0287739Y0067031D01*
X0287699Y0067099D01*
X0287662Y0067170D01*
X0287630Y0067242D01*
X0287600Y0067315D01*
X0287575Y0067390D01*
X0287553Y0067466D01*
X0287536Y0067543D01*
X0287522Y0067621D01*
X0287512Y0067700D01*
X0287506Y0067779D01*
X0287504Y0067858D01*
X0335833Y0094430D02*
X0335835Y0094529D01*
X0335841Y0094629D01*
X0335851Y0094728D01*
X0335865Y0094826D01*
X0335882Y0094924D01*
X0335904Y0095021D01*
X0335929Y0095117D01*
X0335958Y0095212D01*
X0335991Y0095306D01*
X0336028Y0095398D01*
X0336068Y0095489D01*
X0336112Y0095578D01*
X0336160Y0095666D01*
X0336211Y0095751D01*
X0336265Y0095834D01*
X0336322Y0095916D01*
X0336383Y0095994D01*
X0336447Y0096071D01*
X0336513Y0096144D01*
X0336583Y0096215D01*
X0336655Y0096283D01*
X0336730Y0096349D01*
X0336808Y0096411D01*
X0336888Y0096470D01*
X0336970Y0096526D01*
X0337054Y0096578D01*
X0337141Y0096627D01*
X0337229Y0096673D01*
X0337319Y0096715D01*
X0337411Y0096754D01*
X0337504Y0096789D01*
X0337598Y0096820D01*
X0337694Y0096847D01*
X0337791Y0096870D01*
X0337888Y0096890D01*
X0337986Y0096906D01*
X0338085Y0096918D01*
X0338184Y0096926D01*
X0338283Y0096930D01*
X0338383Y0096930D01*
X0338482Y0096926D01*
X0338581Y0096918D01*
X0338680Y0096906D01*
X0338778Y0096890D01*
X0338875Y0096870D01*
X0338972Y0096847D01*
X0339068Y0096820D01*
X0339162Y0096789D01*
X0339255Y0096754D01*
X0339347Y0096715D01*
X0339437Y0096673D01*
X0339525Y0096627D01*
X0339612Y0096578D01*
X0339696Y0096526D01*
X0339778Y0096470D01*
X0339858Y0096411D01*
X0339936Y0096349D01*
X0340011Y0096283D01*
X0340083Y0096215D01*
X0340153Y0096144D01*
X0340219Y0096071D01*
X0340283Y0095994D01*
X0340344Y0095916D01*
X0340401Y0095834D01*
X0340455Y0095751D01*
X0340506Y0095666D01*
X0340554Y0095578D01*
X0340598Y0095489D01*
X0340638Y0095398D01*
X0340675Y0095306D01*
X0340708Y0095212D01*
X0340737Y0095117D01*
X0340762Y0095021D01*
X0340784Y0094924D01*
X0340801Y0094826D01*
X0340815Y0094728D01*
X0340825Y0094629D01*
X0340831Y0094529D01*
X0340833Y0094430D01*
X0340831Y0094331D01*
X0340825Y0094231D01*
X0340815Y0094132D01*
X0340801Y0094034D01*
X0340784Y0093936D01*
X0340762Y0093839D01*
X0340737Y0093743D01*
X0340708Y0093648D01*
X0340675Y0093554D01*
X0340638Y0093462D01*
X0340598Y0093371D01*
X0340554Y0093282D01*
X0340506Y0093194D01*
X0340455Y0093109D01*
X0340401Y0093026D01*
X0340344Y0092944D01*
X0340283Y0092866D01*
X0340219Y0092789D01*
X0340153Y0092716D01*
X0340083Y0092645D01*
X0340011Y0092577D01*
X0339936Y0092511D01*
X0339858Y0092449D01*
X0339778Y0092390D01*
X0339696Y0092334D01*
X0339612Y0092282D01*
X0339525Y0092233D01*
X0339437Y0092187D01*
X0339347Y0092145D01*
X0339255Y0092106D01*
X0339162Y0092071D01*
X0339068Y0092040D01*
X0338972Y0092013D01*
X0338875Y0091990D01*
X0338778Y0091970D01*
X0338680Y0091954D01*
X0338581Y0091942D01*
X0338482Y0091934D01*
X0338383Y0091930D01*
X0338283Y0091930D01*
X0338184Y0091934D01*
X0338085Y0091942D01*
X0337986Y0091954D01*
X0337888Y0091970D01*
X0337791Y0091990D01*
X0337694Y0092013D01*
X0337598Y0092040D01*
X0337504Y0092071D01*
X0337411Y0092106D01*
X0337319Y0092145D01*
X0337229Y0092187D01*
X0337141Y0092233D01*
X0337054Y0092282D01*
X0336970Y0092334D01*
X0336888Y0092390D01*
X0336808Y0092449D01*
X0336730Y0092511D01*
X0336655Y0092577D01*
X0336583Y0092645D01*
X0336513Y0092716D01*
X0336447Y0092789D01*
X0336383Y0092866D01*
X0336322Y0092944D01*
X0336265Y0093026D01*
X0336211Y0093109D01*
X0336160Y0093194D01*
X0336112Y0093282D01*
X0336068Y0093371D01*
X0336028Y0093462D01*
X0335991Y0093554D01*
X0335958Y0093648D01*
X0335929Y0093743D01*
X0335904Y0093839D01*
X0335882Y0093936D01*
X0335865Y0094034D01*
X0335851Y0094132D01*
X0335841Y0094231D01*
X0335835Y0094331D01*
X0335833Y0094430D01*
X0172333Y0094430D02*
X0172335Y0094529D01*
X0172341Y0094629D01*
X0172351Y0094728D01*
X0172365Y0094826D01*
X0172382Y0094924D01*
X0172404Y0095021D01*
X0172429Y0095117D01*
X0172458Y0095212D01*
X0172491Y0095306D01*
X0172528Y0095398D01*
X0172568Y0095489D01*
X0172612Y0095578D01*
X0172660Y0095666D01*
X0172711Y0095751D01*
X0172765Y0095834D01*
X0172822Y0095916D01*
X0172883Y0095994D01*
X0172947Y0096071D01*
X0173013Y0096144D01*
X0173083Y0096215D01*
X0173155Y0096283D01*
X0173230Y0096349D01*
X0173308Y0096411D01*
X0173388Y0096470D01*
X0173470Y0096526D01*
X0173554Y0096578D01*
X0173641Y0096627D01*
X0173729Y0096673D01*
X0173819Y0096715D01*
X0173911Y0096754D01*
X0174004Y0096789D01*
X0174098Y0096820D01*
X0174194Y0096847D01*
X0174291Y0096870D01*
X0174388Y0096890D01*
X0174486Y0096906D01*
X0174585Y0096918D01*
X0174684Y0096926D01*
X0174783Y0096930D01*
X0174883Y0096930D01*
X0174982Y0096926D01*
X0175081Y0096918D01*
X0175180Y0096906D01*
X0175278Y0096890D01*
X0175375Y0096870D01*
X0175472Y0096847D01*
X0175568Y0096820D01*
X0175662Y0096789D01*
X0175755Y0096754D01*
X0175847Y0096715D01*
X0175937Y0096673D01*
X0176025Y0096627D01*
X0176112Y0096578D01*
X0176196Y0096526D01*
X0176278Y0096470D01*
X0176358Y0096411D01*
X0176436Y0096349D01*
X0176511Y0096283D01*
X0176583Y0096215D01*
X0176653Y0096144D01*
X0176719Y0096071D01*
X0176783Y0095994D01*
X0176844Y0095916D01*
X0176901Y0095834D01*
X0176955Y0095751D01*
X0177006Y0095666D01*
X0177054Y0095578D01*
X0177098Y0095489D01*
X0177138Y0095398D01*
X0177175Y0095306D01*
X0177208Y0095212D01*
X0177237Y0095117D01*
X0177262Y0095021D01*
X0177284Y0094924D01*
X0177301Y0094826D01*
X0177315Y0094728D01*
X0177325Y0094629D01*
X0177331Y0094529D01*
X0177333Y0094430D01*
X0177331Y0094331D01*
X0177325Y0094231D01*
X0177315Y0094132D01*
X0177301Y0094034D01*
X0177284Y0093936D01*
X0177262Y0093839D01*
X0177237Y0093743D01*
X0177208Y0093648D01*
X0177175Y0093554D01*
X0177138Y0093462D01*
X0177098Y0093371D01*
X0177054Y0093282D01*
X0177006Y0093194D01*
X0176955Y0093109D01*
X0176901Y0093026D01*
X0176844Y0092944D01*
X0176783Y0092866D01*
X0176719Y0092789D01*
X0176653Y0092716D01*
X0176583Y0092645D01*
X0176511Y0092577D01*
X0176436Y0092511D01*
X0176358Y0092449D01*
X0176278Y0092390D01*
X0176196Y0092334D01*
X0176112Y0092282D01*
X0176025Y0092233D01*
X0175937Y0092187D01*
X0175847Y0092145D01*
X0175755Y0092106D01*
X0175662Y0092071D01*
X0175568Y0092040D01*
X0175472Y0092013D01*
X0175375Y0091990D01*
X0175278Y0091970D01*
X0175180Y0091954D01*
X0175081Y0091942D01*
X0174982Y0091934D01*
X0174883Y0091930D01*
X0174783Y0091930D01*
X0174684Y0091934D01*
X0174585Y0091942D01*
X0174486Y0091954D01*
X0174388Y0091970D01*
X0174291Y0091990D01*
X0174194Y0092013D01*
X0174098Y0092040D01*
X0174004Y0092071D01*
X0173911Y0092106D01*
X0173819Y0092145D01*
X0173729Y0092187D01*
X0173641Y0092233D01*
X0173554Y0092282D01*
X0173470Y0092334D01*
X0173388Y0092390D01*
X0173308Y0092449D01*
X0173230Y0092511D01*
X0173155Y0092577D01*
X0173083Y0092645D01*
X0173013Y0092716D01*
X0172947Y0092789D01*
X0172883Y0092866D01*
X0172822Y0092944D01*
X0172765Y0093026D01*
X0172711Y0093109D01*
X0172660Y0093194D01*
X0172612Y0093282D01*
X0172568Y0093371D01*
X0172528Y0093462D01*
X0172491Y0093554D01*
X0172458Y0093648D01*
X0172429Y0093743D01*
X0172404Y0093839D01*
X0172382Y0093936D01*
X0172365Y0094034D01*
X0172351Y0094132D01*
X0172341Y0094231D01*
X0172335Y0094331D01*
X0172333Y0094430D01*
X0172333Y0023170D02*
X0172335Y0023269D01*
X0172341Y0023369D01*
X0172351Y0023468D01*
X0172365Y0023566D01*
X0172382Y0023664D01*
X0172404Y0023761D01*
X0172429Y0023857D01*
X0172458Y0023952D01*
X0172491Y0024046D01*
X0172528Y0024138D01*
X0172568Y0024229D01*
X0172612Y0024318D01*
X0172660Y0024406D01*
X0172711Y0024491D01*
X0172765Y0024574D01*
X0172822Y0024656D01*
X0172883Y0024734D01*
X0172947Y0024811D01*
X0173013Y0024884D01*
X0173083Y0024955D01*
X0173155Y0025023D01*
X0173230Y0025089D01*
X0173308Y0025151D01*
X0173388Y0025210D01*
X0173470Y0025266D01*
X0173554Y0025318D01*
X0173641Y0025367D01*
X0173729Y0025413D01*
X0173819Y0025455D01*
X0173911Y0025494D01*
X0174004Y0025529D01*
X0174098Y0025560D01*
X0174194Y0025587D01*
X0174291Y0025610D01*
X0174388Y0025630D01*
X0174486Y0025646D01*
X0174585Y0025658D01*
X0174684Y0025666D01*
X0174783Y0025670D01*
X0174883Y0025670D01*
X0174982Y0025666D01*
X0175081Y0025658D01*
X0175180Y0025646D01*
X0175278Y0025630D01*
X0175375Y0025610D01*
X0175472Y0025587D01*
X0175568Y0025560D01*
X0175662Y0025529D01*
X0175755Y0025494D01*
X0175847Y0025455D01*
X0175937Y0025413D01*
X0176025Y0025367D01*
X0176112Y0025318D01*
X0176196Y0025266D01*
X0176278Y0025210D01*
X0176358Y0025151D01*
X0176436Y0025089D01*
X0176511Y0025023D01*
X0176583Y0024955D01*
X0176653Y0024884D01*
X0176719Y0024811D01*
X0176783Y0024734D01*
X0176844Y0024656D01*
X0176901Y0024574D01*
X0176955Y0024491D01*
X0177006Y0024406D01*
X0177054Y0024318D01*
X0177098Y0024229D01*
X0177138Y0024138D01*
X0177175Y0024046D01*
X0177208Y0023952D01*
X0177237Y0023857D01*
X0177262Y0023761D01*
X0177284Y0023664D01*
X0177301Y0023566D01*
X0177315Y0023468D01*
X0177325Y0023369D01*
X0177331Y0023269D01*
X0177333Y0023170D01*
X0177331Y0023071D01*
X0177325Y0022971D01*
X0177315Y0022872D01*
X0177301Y0022774D01*
X0177284Y0022676D01*
X0177262Y0022579D01*
X0177237Y0022483D01*
X0177208Y0022388D01*
X0177175Y0022294D01*
X0177138Y0022202D01*
X0177098Y0022111D01*
X0177054Y0022022D01*
X0177006Y0021934D01*
X0176955Y0021849D01*
X0176901Y0021766D01*
X0176844Y0021684D01*
X0176783Y0021606D01*
X0176719Y0021529D01*
X0176653Y0021456D01*
X0176583Y0021385D01*
X0176511Y0021317D01*
X0176436Y0021251D01*
X0176358Y0021189D01*
X0176278Y0021130D01*
X0176196Y0021074D01*
X0176112Y0021022D01*
X0176025Y0020973D01*
X0175937Y0020927D01*
X0175847Y0020885D01*
X0175755Y0020846D01*
X0175662Y0020811D01*
X0175568Y0020780D01*
X0175472Y0020753D01*
X0175375Y0020730D01*
X0175278Y0020710D01*
X0175180Y0020694D01*
X0175081Y0020682D01*
X0174982Y0020674D01*
X0174883Y0020670D01*
X0174783Y0020670D01*
X0174684Y0020674D01*
X0174585Y0020682D01*
X0174486Y0020694D01*
X0174388Y0020710D01*
X0174291Y0020730D01*
X0174194Y0020753D01*
X0174098Y0020780D01*
X0174004Y0020811D01*
X0173911Y0020846D01*
X0173819Y0020885D01*
X0173729Y0020927D01*
X0173641Y0020973D01*
X0173554Y0021022D01*
X0173470Y0021074D01*
X0173388Y0021130D01*
X0173308Y0021189D01*
X0173230Y0021251D01*
X0173155Y0021317D01*
X0173083Y0021385D01*
X0173013Y0021456D01*
X0172947Y0021529D01*
X0172883Y0021606D01*
X0172822Y0021684D01*
X0172765Y0021766D01*
X0172711Y0021849D01*
X0172660Y0021934D01*
X0172612Y0022022D01*
X0172568Y0022111D01*
X0172528Y0022202D01*
X0172491Y0022294D01*
X0172458Y0022388D01*
X0172429Y0022483D01*
X0172404Y0022579D01*
X0172382Y0022676D01*
X0172365Y0022774D01*
X0172351Y0022872D01*
X0172341Y0022971D01*
X0172335Y0023071D01*
X0172333Y0023170D01*
D14*
X0174833Y0023170D03*
X0338333Y0023170D03*
X0338333Y0094430D03*
X0174833Y0094430D03*
D15*
X0222733Y0085000D02*
X0230133Y0085000D01*
X0230133Y0075000D02*
X0222733Y0075000D01*
X0222733Y0065000D02*
X0230133Y0065000D01*
X0230133Y0055000D02*
X0222733Y0055000D01*
X0222733Y0045000D02*
X0230133Y0045000D01*
X0230133Y0035000D02*
X0222733Y0035000D01*
X0235433Y0021700D02*
X0235433Y0014300D01*
X0245433Y0014300D02*
X0245433Y0021700D01*
X0255433Y0021700D02*
X0255433Y0014300D01*
X0265433Y0014300D02*
X0265433Y0021700D01*
X0275433Y0021700D02*
X0275433Y0014300D01*
X0285433Y0014300D02*
X0285433Y0021700D01*
X0295433Y0021700D02*
X0295433Y0014300D01*
X0305433Y0014300D02*
X0305433Y0021700D01*
X0315433Y0021700D02*
X0315433Y0014300D01*
X0315433Y0095800D02*
X0315433Y0103200D01*
X0305433Y0103200D02*
X0305433Y0095800D01*
X0295433Y0095800D02*
X0295433Y0103200D01*
X0285433Y0103200D02*
X0285433Y0095800D01*
X0275433Y0095800D02*
X0275433Y0103200D01*
X0265433Y0103200D02*
X0265433Y0095800D01*
X0255433Y0095800D02*
X0255433Y0103200D01*
X0245433Y0103200D02*
X0245433Y0095800D01*
X0235433Y0095800D02*
X0235433Y0103200D01*
D16*
X0289079Y0067858D03*
X0313292Y0043646D03*
D17*
X0285433Y0045000D03*
X0275433Y0045500D03*
X0265433Y0045500D03*
X0266433Y0035500D03*
X0276433Y0035500D03*
X0286433Y0035000D03*
X0285433Y0025000D03*
X0275433Y0025500D03*
X0265433Y0025500D03*
X0265433Y0073000D03*
X0275433Y0073000D03*
X0285433Y0073000D03*
X0284433Y0083000D03*
X0274433Y0083000D03*
X0264433Y0083000D03*
X0265433Y0093000D03*
X0275433Y0093000D03*
X0285433Y0093000D03*
M02*
