  0
SECTION
  2
HEADER
  9
$ACADVER
  1
AC1012
  9
$DWGCODEPAGE
  3
undefined
  9
$INSBASE
 10
0.0
 20
0.0
 30
0.0
  9
$EXTMIN
 10
1.000000000000000E+20
 20
1.000000000000000E+20
 30
1.000000000000000E+20
  9
$EXTMAX
 10
-1.000000000000000E+20
 20
-1.000000000000000E+20
 30
-1.000000000000000E+20
  9
$LIMMIN
 10
0.0
 20
0.0
  9
$LIMMAX
 10
12.0
 20
9.0
  9
$ORTHOMODE
 70
     0
  9
$REGENMODE
 70
     1
  9
$FILLMODE
 70
     1
  9
$QTEXTMODE
 70
     0
  9
$MIRRTEXT
 70
     1
  9
$DRAGMODE
 70
     2
  9
$LTSCALE
 40
1.0
  9
$OSMODE
 70
    37
  9
$ATTMODE
 70
     1
  9
$TEXTSIZE
 40
0.2
  9
$TRACEWID
 40
0.05
  9
$TEXTSTYLE
  7
STANDARD
  9
$CLAYER
  8
0
  9
$CELTYPE
  6
BYLAYER
  9
$CECOLOR
 62
   256
  9
$CELTSCALE
 40
1.0
  9
$DELOBJ
 70
     1
  9
$DISPSILH
 70
     0
  9
$DIMSCALE
 40
1.0
  9
$DIMASZ
 40
0.18
  9
$DIMEXO
 40
0.0625
  9
$DIMDLI
 40
0.38
  9
$DIMRND
 40
0.0
  9
$DIMDLE
 40
0.0
  9
$DIMEXE
 40
0.18
  9
$DIMTP
 40
0.0
  9
$DIMTM
 40
0.0
  9
$DIMTXT
 40
0.18
  9
$DIMCEN
 40
0.09
  9
$DIMTSZ
 40
0.0
  9
$DIMTOL
 70
     0
  9
$DIMLIM
 70
     0
  9
$DIMTIH
 70
     1
  9
$DIMTOH
 70
     1
  9
$DIMSE1
 70
     0
  9
$DIMSE2
 70
     0
  9
$DIMTAD
 70
     0
  9
$DIMZIN
 70
     0
  9
$DIMBLK
  1

  9
$DIMASO
 70
     1
  9
$DIMSHO
 70
     1
  9
$DIMPOST
  1

  9
$DIMAPOST
  1

  9
$DIMALT
 70
     0
  9
$DIMALTD
 70
     2
  9
$DIMALTF
 40
25.4
  9
$DIMLFAC
 40
1.0
  9
$DIMTOFL
 70
     0
  9
$DIMTVP
 40
0.0
  9
$DIMTIX
 70
     0
  9
$DIMSOXD
 70
     0
  9
$DIMSAH
 70
     0
  9
$DIMBLK1
  1

  9
$DIMBLK2
  1

  9
$DIMSTYLE
  2
STANDARD
  9
$DIMCLRD
 70
     0
  9
$DIMCLRE
 70
     0
  9
$DIMCLRT
 70
     0
  9
$DIMTFAC
 40
1.0
  9
$DIMGAP
 40
0.09
  9
$DIMJUST
 70
     0
  9
$DIMSD1
 70
     0
  9
$DIMSD2
 70
     0
  9
$DIMTOLJ
 70
     1
  9
$DIMTZIN
 70
     0
  9
$DIMALTZ
 70
     0
  9
$DIMALTTZ
 70
     0
  9
$DIMFIT
 70
     3
  9
$DIMUPT
 70
     0
  9
$DIMUNIT
 70
     2
  9
$DIMDEC
 70
     4
  9
$DIMTDEC
 70
     4
  9
$DIMALTU
 70
     2
  9
$DIMALTTD
 70
     2
  9
$DIMTXSTY
  7
STANDARD
  9
$DIMAUNIT
 70
     0
  9
$LUNITS
 70
     2
  9
$LUPREC
 70
     4
  9
$SKETCHINC
 40
0.1
  9
$FILLETRAD
 40
0.5
  9
$AUNITS
 70
     0
  9
$AUPREC
 70
     0
  9
$MENU
  1
.
  9
$ELEVATION
 40
0.0
  9
$PELEVATION
 40
0.0
  9
$THICKNESS
 40
0.0
  9
$LIMCHECK
 70
     0
  9
$CHAMFERA
 40
0.5
  9
$CHAMFERB
 40
0.5
  9
$CHAMFERC
 40
1.0
  9
$CHAMFERD
 40
0.0
  9
$SKPOLY
 70
     0
  9
$TDCREATE
 40
2457303.677592581
  9
$TDUPDATE
 40
2457303.677592581
  9
$TDINDWG
 40
0.0000000116
  9
$TDUSRTIMER
 40
0.0000000116
  9
$USRTIMER
 70
     1
  9
$ANGBASE
 50
0.0
  9
$ANGDIR
 70
     0
  9
$PDMODE
 70
     0
  9
$PDSIZE
 40
0.0
  9
$PLINEWID
 40
0.0
  9
$COORDS
 70
     1
  9
$SPLFRAME
 70
     0
  9
$SPLINETYPE
 70
     6
  9
$SPLINESEGS
 70
     8
  9
$ATTDIA
 70
     0
  9
$ATTREQ
 70
     1
  9
$HANDLING
 70
     1
  9
$HANDSEED
  5
4E
  9
$SURFTAB1
 70
     6
  9
$SURFTAB2
 70
     6
  9
$SURFTYPE
 70
     6
  9
$SURFU
 70
     6
  9
$SURFV
 70
     6
  9
$UCSNAME
  2

  9
$UCSORG
 10
0.0
 20
0.0
 30
0.0
  9
$UCSXDIR
 10
1.0
 20
0.0
 30
0.0
  9
$UCSYDIR
 10
0.0
 20
1.0
 30
0.0
  9
$PUCSNAME
  2

  9
$PUCSORG
 10
0.0
 20
0.0
 30
0.0
  9
$PUCSXDIR
 10
1.0
 20
0.0
 30
0.0
  9
$PUCSYDIR
 10
0.0
 20
1.0
 30
0.0
  9
$USERI1
 70
     0
  9
$USERI2
 70
     0
  9
$USERI3
 70
     0
  9
$USERI4
 70
     0
  9
$USERI5
 70
     0
  9
$USERR1
 40
0.0
  9
$USERR2
 40
0.0
  9
$USERR3
 40
0.0
  9
$USERR4
 40
0.0
  9
$USERR5
 40
0.0
  9
$WORLDVIEW
 70
     1
  9
$SHADEDGE
 70
     3
  9
$SHADEDIF
 70
    70
  9
$TILEMODE
 70
     1
  9
$MAXACTVP
 70
    64
  9
$PINSBASE
 10
0.0
 20
0.0
 30
0.0
  9
$PLIMCHECK
 70
     0
  9
$PEXTMIN
 10
1.000000000000000E+20
 20
1.000000000000000E+20
 30
1.000000000000000E+20
  9
$PEXTMAX
 10
-1.000000000000000E+20
 20
-1.000000000000000E+20
 30
-1.000000000000000E+20
  9
$PLIMMIN
 10
0.0
 20
0.0
  9
$PLIMMAX
 10
12.0
 20
9.0
  9
$UNITMODE
 70
     0
  9
$VISRETAIN
 70
     1
  9
$PLINEGEN
 70
     0
  9
$PSLTSCALE
 70
     1
  9
$TREEDEPTH
 70
  3020
  9
$PICKSTYLE
 70
     1
  9
$CMLSTYLE
  2
STANDARD
  9
$CMLJUST
 70
     0
  9
$CMLSCALE
 40
1.0
  9
$SAVEIMAGES
 70
     1
  0
ENDSEC
  0
SECTION
  2
CLASSES
  0
CLASS
  1
ACDBDICTIONARYWDFLT
  2
AcDbDictionaryWithDefault
  3
ObjectDBX Classes
 90
    32768
280
     0
281
     0
  0
CLASS
  1
VISUALSTYLE
  2
AcDbVisualStyle
  3
ObjectDBX Classes
 90
     4095
280
     0
281
     0
  0
CLASS
  1
MATERIAL
  2
AcDbMaterial
  3
ObjectDBX Classes
 90
     1153
280
     0
281
     0
  0
CLASS
  1
SUN
  2
AcDbSun
  3
SCENEOE
 90
     1024
280
     0
281
     0
  0
CLASS
  1
DICTIONARYVAR
  2
AcDbDictionaryVar
  3
ObjectDBX Classes
 90
        0
280
     0
281
     0
  0
CLASS
  1
XRECORD
  2
AcDbXrecord
  3
AutoCAD 2000
 90
    32768
280
     0
281
     0
  0
CLASS
  1
LWPOLYLINE
  2
AcDbPolyline
  3
AutoCAD 2000
 90
    32768
280
     0
281
     1
  0
CLASS
  1
HATCH
  2
AcDbHatch
  3
AutoCAD 2000
 90
    32768
280
     0
281
     1
  0
CLASS
  1
ACDBPLACEHOLDER
  2
AcDbPlaceHolder
  3
ObjectDBX Classes
 90
        0
280
     0
281
     0
  0
CLASS
  1
LAYOUT
  2
AcDbLayout
  3
ObjectDBX Classes
 90
        0
280
     0
281
     0
  0
ENDSEC
  0
SECTION
  2
TABLES
  0
TABLE
  2
VPORT
  5
8
330
0
100
AcDbSymbolTable
 70
     1
  0
VPORT
  5
29
330
8
100
AcDbSymbolTableRecord
100
AcDbViewportTableRecord
  2
*ACTIVE
 70
     0
 10
0.0
 20
0.0
 11
1.0
 21
1.0
 12
0.0
 22
0.0
 13
0.0
 23
0.0
 14
0.5
 24
0.5
 15
0.5
 25
0.5
 16
0.0
 26
0.0
 36
1.0
 17
148.5000416295416
 27
-105.0007777515277
 37
0.0
 40
210.0015555030554
 41
1.414275634995294
 42
50.0
 43
0.0
 44
0.0
 50
0.0
 51
0.0
 71
     0
 72
   100
 73
     1
 74
     3
 75
     0
 76
     0
 77
     0
 78
     0
  0
ENDTAB
  0
TABLE
  2
LTYPE
  5
5
330
0
100
AcDbSymbolTable
 70
     1
  0
LTYPE
  5
14
330
5
100
AcDbSymbolTableRecord
100
AcDbLinetypeTableRecord
  2
BYBLOCK
 70
     0
  3

 72
    65
 73
     0
 40
0.0
  0
LTYPE
  5
15
330
5
100
AcDbSymbolTableRecord
100
AcDbLinetypeTableRecord
  2
BYLAYER
 70
     0
  3

 72
    65
 73
     0
 40
0.0
  0
LTYPE
  5
16
330
5
100
AcDbSymbolTableRecord
100
AcDbLinetypeTableRecord
  2
CONTINUOUS
 70
     0
  3
Solid line
 72
    65
 73
     0
 40
0.0
  0
ENDTAB
  0
TABLE
  2
LAYER
  5
2
330
0
100
AcDbSymbolTable
 70
     2
  0
LAYER
  5
10
330
2
100
AcDbSymbolTableRecord
100
AcDbLayerTableRecord
  2
0
 70
     0
 62
     7
  6
CONTINUOUS
  0
LAYER
  5
40
330
2
100
AcDbSymbolTableRecord
100
AcDbLayerTableRecord
  2
LIVELLO_1
 70
     0
 62
     7
  6
CONTINUOUS
  0
ENDTAB
  0
TABLE
  2
STYLE
  5
3
330
0
100
AcDbSymbolTable
 70
     1
  0
STYLE
  5
11
330
3
100
AcDbSymbolTableRecord
100
AcDbTextStyleTableRecord
  2
STANDARD
 70
     0
 40
0.0
 41
1.0
 50
0.0
 71
     0
 42
0.2
  3
txt
  4

  0
ENDTAB
  0
TABLE
  2
VIEW
  5
6
330
0
100
AcDbSymbolTable
 70
     0
  0
ENDTAB
  0
TABLE
  2
UCS
  5
7
330
0
100
AcDbSymbolTable
 70
     0
  0
ENDTAB
  0
TABLE
  2
APPID
  5
9
330
0
100
AcDbSymbolTable
 70
     1
  0
APPID
  5
12
330
9
100
AcDbSymbolTableRecord
100
AcDbRegAppTableRecord
  2
ACAD
 70
     0
  0
ENDTAB
  0
TABLE
  2
DIMSTYLE
  5
A
330
0
100
AcDbSymbolTable
 70
     1
  0
DIMSTYLE
105
27
330
A
100
AcDbSymbolTableRecord
100
AcDbDimStyleTableRecord
  2
STANDARD
 70
     0
  3

  4

  5

  6

  7

 40
1.0
 41
0.18
 42
0.0625
 43
0.38
 44
0.18
 45
0.0
 46
0.0
 47
0.0
 48
0.0
140
0.18
141
0.09
142
0.0
143
25.4
144
1.0
145
0.0
146
1.0
147
0.09
 71
     0
 72
     0
 73
     1
 74
     1
 75
     0
 76
     0
 77
     0
 78
     0
170
     0
171
     2
172
     0
173
     0
174
     0
175
     0
176
     0
177
     0
178
     0
270
     2
271
     4
272
     4
273
     2
274
     2
340
11
275
     0
280
     0
281
     0
282
     0
283
     1
284
     0
285
     0
286
     0
287
     3
288
     0
  0
ENDTAB
  0
TABLE
  2
BLOCK_RECORD
  5
1
330
0
100
AcDbSymbolTable
 70
     1
  0
BLOCK_RECORD
  5
1F
330
1
100
AcDbSymbolTableRecord
100
AcDbBlockTableRecord
  2
*MODEL_SPACE
  0
BLOCK_RECORD
  5
1B
330
1
100
AcDbSymbolTableRecord
100
AcDbBlockTableRecord
  2
*PAPER_SPACE
  0
ENDTAB
  0
ENDSEC
  0
SECTION
  2
BLOCKS
  0
BLOCK
  5
20
330
1F
100
AcDbEntity
  8
0
100
AcDbBlockBegin
  2
*MODEL_SPACE
 70
     0
 10
0.0
 20
0.0
 30
0.0
  3
*MODEL_SPACE
  1

  0
ENDBLK
  5
21
330
1F
100
AcDbEntity
  8
0
100
AcDbBlockEnd
  0
BLOCK
  5
1C
330
1B
100
AcDbEntity
 67
     1
  8
0
100
AcDbBlockBegin
  2
*PAPER_SPACE
 70
     0
 10
0.0
 20
0.0
 30
0.0
  3
*PAPER_SPACE
  1

  0
ENDBLK
  5
1D
330
1B
100
AcDbEntity
 67
     1
  8
0
100
AcDbBlockEnd
  0
ENDSEC
  0
SECTION
  2
ENTITIES
  0
SPLINE
  5
41
330
1F
100
AcDbEntity
  8
LIVELLO_1
 62
   250
100
AcDbSpline
210
0.0
220
0.0
230
1.0
 70
    11
 71
     3
 72
   101
 73
    97
 74
     0
 42
0.0000000001
 43
0.0000000001
 12
1.0
 22
0.0
 32
0.0
 13
1.0
 23
0.0
 33
0.0
 40
0.0
 40
0.0
 40
0.0
 40
0.0
 40
1.0
 40
1.0
 40
1.0
 40
2.0
 40
2.0
 40
2.0
 40
3.0
 40
3.0
 40
3.0
 40
4.0
 40
4.0
 40
4.0
 40
5.0
 40
5.0
 40
5.0
 40
6.0
 40
6.0
 40
6.0
 40
7.0
 40
7.0
 40
7.0
 40
8.0
 40
8.0
 40
8.0
 40
9.0
 40
9.0
 40
9.0
 40
10.0
 40
10.0
 40
10.0
 40
11.0
 40
11.0
 40
11.0
 40
12.0
 40
12.0
 40
12.0
 40
13.0
 40
13.0
 40
13.0
 40
14.0
 40
14.0
 40
14.0
 40
15.0
 40
15.0
 40
15.0
 40
16.0
 40
16.0
 40
16.0
 40
17.0
 40
17.0
 40
17.0
 40
18.0
 40
18.0
 40
18.0
 40
19.0
 40
19.0
 40
19.0
 40
20.0
 40
20.0
 40
20.0
 40
21.0
 40
21.0
 40
21.0
 40
22.0
 40
22.0
 40
22.0
 40
23.0
 40
23.0
 40
23.0
 40
24.0
 40
24.0
 40
24.0
 40
25.0
 40
25.0
 40
25.0
 40
26.0
 40
26.0
 40
26.0
 40
27.0
 40
27.0
 40
27.0
 40
28.0
 40
28.0
 40
28.0
 40
29.0
 40
29.0
 40
29.0
 40
30.0
 40
30.0
 40
30.0
 40
31.0
 40
31.0
 40
31.0
 40
32.0
 40
32.0
 40
32.0
 40
32.0
 10
172.6485886809751
 20
-93.81308025842698
 30
0.0
 10
172.6485886809751
 20
-93.98566924269633
 30
0.0
 10
172.6310998040184
 20
-94.15417348088873
 30
0.0
 10
172.5977975664647
 20
-94.31691745664381
 30
0.0
 10
172.5644953289123
 20
-94.47966143239887
 30
0.0
 10
172.5153797307622
 20
-94.63664514571725
 30
0.0
 10
172.4521262883756
 20
-94.78619308023858
 30
0.0
 10
172.3888728459889
 20
-94.93574101475926
 30
0.0
 10
172.3114815593657
 20
-95.07785317048354
 30
0.0
 10
172.2216279448655
 20
-95.21085403105101
 30
0.0
 10
172.1317743303654
 20
-95.3438548916185
 30
0.0
 10
172.029458387989
 20
-95.4677444570292
 30
0.0
 10
171.9163556340955
 20
-95.58084721092274
 30
0.0
 10
171.8032528802019
 20
-95.69394996481628
 30
0.0
 10
171.6793633147912
 20
-95.79626590719332
 30
0.0
 10
171.5463624542237
 20
-95.88611952169346
 30
0.0
 10
171.4133615936569
 20
-95.9759731361936
 30
0.0
 10
171.2712494379326
 20
-96.05336442281687
 30
0.0
 10
171.1217015034113
 20
-96.11661786520287
 30
0.0
 10
170.97215356889
 20
-96.17987130758952
 30
0.0
 10
170.8151698555716
 20
-96.22898690573956
 30
0.0
 10
170.6524258798165
 20
-96.26228914329262
 30
0.0
 10
170.4896819040615
 20
-96.29559138084566
 30
0.0
 10
170.321177665869
 20
-96.31308025780238
 30
0.0
 10
170.1485886815997
 20
-96.31308025780238
 30
0.0
 10
169.9759996973303
 20
-96.31308025780238
 30
0.0
 10
169.807495459138
 20
-96.29559138084566
 30
0.0
 10
169.6447514833829
 20
-96.26228914329262
 30
0.0
 10
169.4820075076278
 20
-96.22898690573956
 30
0.0
 10
169.3250237943094
 20
-96.17987130758952
 30
0.0
 10
169.1754758597881
 20
-96.11661786520287
 30
0.0
 10
169.0259279252668
 20
-96.05336442281687
 30
0.0
 10
168.8838157695425
 20
-95.9759731361936
 30
0.0
 10
168.7508149089757
 20
-95.88611952169346
 30
0.0
 10
168.6178140484082
 20
-95.79626590719332
 30
0.0
 10
168.4939244829975
 20
-95.69394996481628
 30
0.0
 10
168.3808217291039
 20
-95.58084721092274
 30
0.0
 10
168.2677189752104
 20
-95.4677444570292
 30
0.0
 10
168.165403032834
 20
-95.3438548916185
 30
0.0
 10
168.0755494183339
 20
-95.21085403105101
 30
0.0
 10
167.9856958038337
 20
-95.07785317048354
 30
0.0
 10
167.9083045172105
 20
-94.93574101475926
 30
0.0
 10
167.8450510748238
 20
-94.78619308023858
 30
0.0
 10
167.7817976324372
 20
-94.63664514571725
 30
0.0
 10
167.7326820342871
 20
-94.47966143239887
 30
0.0
 10
167.6993797967347
 20
-94.31691745664381
 30
0.0
 10
167.666077559181
 20
-94.15417348088873
 30
0.0
 10
167.6485886822243
 20
-93.98566924269633
 30
0.0
 10
167.6485886822243
 20
-93.81308025842698
 30
0.0
 10
167.6485886822243
 20
-93.64049127415763
 30
0.0
 10
167.666077559181
 20
-93.47198703596523
 30
0.0
 10
167.6993797967347
 20
-93.30924306021016
 30
0.0
 10
167.7326820342871
 20
-93.1464990844551
 30
0.0
 10
167.7817976324372
 20
-92.98951537113736
 30
0.0
 10
167.8450510748238
 20
-92.83996743661604
 30
0.0
 10
167.9083045172105
 20
-92.6904195020947
 30
0.0
 10
167.9856958038337
 20
-92.54830734637044
 30
0.0
 10
168.0755494183339
 20
-92.41530648580296
 30
0.0
 10
168.165403032834
 20
-92.28230562523547
 30
0.0
 10
168.2677189752104
 20
-92.15841605982541
 30
0.0
 10
168.3808217291039
 20
-92.04531330593187
 30
0.0
 10
168.4939244829975
 20
-91.93221055203833
 30
0.0
 10
168.6178140484082
 20
-91.8298946096613
 30
0.0
 10
168.7508149089757
 20
-91.74004099516115
 30
0.0
 10
168.8838157695425
 20
-91.65018738066101
 30
0.0
 10
169.0259279252668
 20
-91.57279609403838
 30
0.0
 10
169.1754758597881
 20
-91.50954265165173
 30
0.0
 10
169.3250237943094
 20
-91.44628920926509
 30
0.0
 10
169.4820075076278
 20
-91.39717361111505
 30
0.0
 10
169.6447514833829
 20
-91.36387137356199
 30
0.0
 10
169.807495459138
 20
-91.33056913600895
 30
0.0
 10
169.9759996973303
 20
-91.31308025905223
 30
0.0
 10
170.1485886815997
 20
-91.31308025905223
 30
0.0
 10
170.321177665869
 20
-91.31308025905223
 30
0.0
 10
170.4896819040615
 20
-91.33056913600895
 30
0.0
 10
170.6524258798165
 20
-91.36387137356199
 30
0.0
 10
170.8151698555716
 20
-91.39717361111505
 30
0.0
 10
170.97215356889
 20
-91.44628920926509
 30
0.0
 10
171.1217015034113
 20
-91.50954265165173
 30
0.0
 10
171.2712494379326
 20
-91.57279609403838
 30
0.0
 10
171.4133615936569
 20
-91.65018738066101
 30
0.0
 10
171.5463624542237
 20
-91.74004099516115
 30
0.0
 10
171.6793633147912
 20
-91.8298946096613
 30
0.0
 10
171.8032528802019
 20
-91.93221055203833
 30
0.0
 10
171.9163556340955
 20
-92.04531330593187
 30
0.0
 10
172.029458387989
 20
-92.15841605982541
 30
0.0
 10
172.1317743303654
 20
-92.28230562523547
 30
0.0
 10
172.2216279448655
 20
-92.41530648580296
 30
0.0
 10
172.3114815593657
 20
-92.54830734637044
 30
0.0
 10
172.3888728459889
 20
-92.6904195020947
 30
0.0
 10
172.4521262883756
 20
-92.83996743661604
 30
0.0
 10
172.5153797307622
 20
-92.98951537113736
 30
0.0
 10
172.5644953289123
 20
-93.1464990844551
 30
0.0
 10
172.5977975664647
 20
-93.30924306021016
 30
0.0
 10
172.6310998040184
 20
-93.47198703596523
 30
0.0
 10
172.6485886809751
 20
-93.64049127415763
 30
0.0
 10
172.6485886809751
 20
-93.81308025842698
 30
0.0
  0
SPLINE
  5
42
330
1F
100
AcDbEntity
  8
LIVELLO_1
 62
   250
100
AcDbSpline
210
0.0
220
0.0
230
1.0
 70
    11
 71
     3
 72
   461
 73
   457
 74
     0
 42
0.0000000001
 43
0.0000000001
 12
1.0
 22
0.0
 32
0.0
 13
1.0
 23
0.0
 33
0.0
 40
0.0
 40
0.0
 40
0.0
 40
0.0
 40
1.0
 40
1.0
 40
1.0
 40
2.0
 40
2.0
 40
2.0
 40
3.0
 40
3.0
 40
3.0
 40
4.0
 40
4.0
 40
4.0
 40
5.0
 40
5.0
 40
5.0
 40
6.0
 40
6.0
 40
6.0
 40
7.0
 40
7.0
 40
7.0
 40
8.0
 40
8.0
 40
8.0
 40
9.0
 40
9.0
 40
9.0
 40
10.0
 40
10.0
 40
10.0
 40
11.0
 40
11.0
 40
11.0
 40
12.0
 40
12.0
 40
12.0
 40
13.0
 40
13.0
 40
13.0
 40
14.0
 40
14.0
 40
14.0
 40
15.0
 40
15.0
 40
15.0
 40
16.0
 40
16.0
 40
16.0
 40
17.0
 40
17.0
 40
17.0
 40
18.0
 40
18.0
 40
18.0
 40
19.0
 40
19.0
 40
19.0
 40
20.0
 40
20.0
 40
20.0
 40
21.0
 40
21.0
 40
21.0
 40
22.0
 40
22.0
 40
22.0
 40
23.0
 40
23.0
 40
23.0
 40
24.0
 40
24.0
 40
24.0
 40
25.0
 40
25.0
 40
25.0
 40
26.0
 40
26.0
 40
26.0
 40
27.0
 40
27.0
 40
27.0
 40
28.0
 40
28.0
 40
28.0
 40
29.0
 40
29.0
 40
29.0
 40
30.0
 40
30.0
 40
30.0
 40
31.0
 40
31.0
 40
31.0
 40
32.0
 40
32.0
 40
32.0
 40
33.0
 40
33.0
 40
33.0
 40
34.0
 40
34.0
 40
34.0
 40
35.0
 40
35.0
 40
35.0
 40
36.0
 40
36.0
 40
36.0
 40
37.0
 40
37.0
 40
37.0
 40
38.0
 40
38.0
 40
38.0
 40
39.0
 40
39.0
 40
39.0
 40
40.0
 40
40.0
 40
40.0
 40
41.0
 40
41.0
 40
41.0
 40
42.0
 40
42.0
 40
42.0
 40
43.0
 40
43.0
 40
43.0
 40
44.0
 40
44.0
 40
44.0
 40
45.0
 40
45.0
 40
45.0
 40
46.0
 40
46.0
 40
46.0
 40
47.0
 40
47.0
 40
47.0
 40
48.0
 40
48.0
 40
48.0
 40
49.0
 40
49.0
 40
49.0
 40
50.0
 40
50.0
 40
50.0
 40
51.0
 40
51.0
 40
51.0
 40
52.0
 40
52.0
 40
52.0
 40
53.0
 40
53.0
 40
53.0
 40
54.0
 40
54.0
 40
54.0
 40
55.0
 40
55.0
 40
55.0
 40
56.0
 40
56.0
 40
56.0
 40
57.0
 40
57.0
 40
57.0
 40
58.0
 40
58.0
 40
58.0
 40
59.0
 40
59.0
 40
59.0
 40
60.0
 40
60.0
 40
60.0
 40
61.0
 40
61.0
 40
61.0
 40
62.0
 40
62.0
 40
62.0
 40
63.0
 40
63.0
 40
63.0
 40
64.0
 40
64.0
 40
64.0
 40
65.0
 40
65.0
 40
65.0
 40
66.0
 40
66.0
 40
66.0
 40
67.0
 40
67.0
 40
67.0
 40
68.0
 40
68.0
 40
68.0
 40
69.0
 40
69.0
 40
69.0
 40
70.0
 40
70.0
 40
70.0
 40
71.0
 40
71.0
 40
71.0
 40
72.0
 40
72.0
 40
72.0
 40
73.0
 40
73.0
 40
73.0
 40
74.0
 40
74.0
 40
74.0
 40
75.0
 40
75.0
 40
75.0
 40
76.0
 40
76.0
 40
76.0
 40
77.0
 40
77.0
 40
77.0
 40
78.0
 40
78.0
 40
78.0
 40
79.0
 40
79.0
 40
79.0
 40
80.0
 40
80.0
 40
80.0
 40
81.0
 40
81.0
 40
81.0
 40
82.0
 40
82.0
 40
82.0
 40
83.0
 40
83.0
 40
83.0
 40
84.0
 40
84.0
 40
84.0
 40
85.0
 40
85.0
 40
85.0
 40
86.0
 40
86.0
 40
86.0
 40
87.0
 40
87.0
 40
87.0
 40
88.0
 40
88.0
 40
88.0
 40
89.0
 40
89.0
 40
89.0
 40
90.0
 40
90.0
 40
90.0
 40
91.0
 40
91.0
 40
91.0
 40
92.0
 40
92.0
 40
92.0
 40
93.0
 40
93.0
 40
93.0
 40
94.0
 40
94.0
 40
94.0
 40
95.0
 40
95.0
 40
95.0
 40
96.0
 40
96.0
 40
96.0
 40
97.0
 40
97.0
 40
97.0
 40
98.0
 40
98.0
 40
98.0
 40
99.0
 40
99.0
 40
99.0
 40
100.0
 40
100.0
 40
100.0
 40
101.0
 40
101.0
 40
101.0
 40
102.0
 40
102.0
 40
102.0
 40
103.0
 40
103.0
 40
103.0
 40
104.0
 40
104.0
 40
104.0
 40
105.0
 40
105.0
 40
105.0
 40
106.0
 40
106.0
 40
106.0
 40
107.0
 40
107.0
 40
107.0
 40
108.0
 40
108.0
 40
108.0
 40
109.0
 40
109.0
 40
109.0
 40
110.0
 40
110.0
 40
110.0
 40
111.0
 40
111.0
 40
111.0
 40
112.0
 40
112.0
 40
112.0
 40
113.0
 40
113.0
 40
113.0
 40
114.0
 40
114.0
 40
114.0
 40
115.0
 40
115.0
 40
115.0
 40
116.0
 40
116.0
 40
116.0
 40
117.0
 40
117.0
 40
117.0
 40
118.0
 40
118.0
 40
118.0
 40
119.0
 40
119.0
 40
119.0
 40
120.0
 40
120.0
 40
120.0
 40
121.0
 40
121.0
 40
121.0
 40
122.0
 40
122.0
 40
122.0
 40
123.0
 40
123.0
 40
123.0
 40
124.0
 40
124.0
 40
124.0
 40
125.0
 40
125.0
 40
125.0
 40
126.0
 40
126.0
 40
126.0
 40
127.0
 40
127.0
 40
127.0
 40
128.0
 40
128.0
 40
128.0
 40
129.0
 40
129.0
 40
129.0
 40
130.0
 40
130.0
 40
130.0
 40
131.0
 40
131.0
 40
131.0
 40
132.0
 40
132.0
 40
132.0
 40
133.0
 40
133.0
 40
133.0
 40
134.0
 40
134.0
 40
134.0
 40
135.0
 40
135.0
 40
135.0
 40
136.0
 40
136.0
 40
136.0
 40
137.0
 40
137.0
 40
137.0
 40
138.0
 40
138.0
 40
138.0
 40
139.0
 40
139.0
 40
139.0
 40
140.0
 40
140.0
 40
140.0
 40
141.0
 40
141.0
 40
141.0
 40
142.0
 40
142.0
 40
142.0
 40
143.0
 40
143.0
 40
143.0
 40
144.0
 40
144.0
 40
144.0
 40
145.0
 40
145.0
 40
145.0
 40
146.0
 40
146.0
 40
146.0
 40
147.0
 40
147.0
 40
147.0
 40
148.0
 40
148.0
 40
148.0
 40
149.0
 40
149.0
 40
149.0
 40
150.0
 40
150.0
 40
150.0
 40
151.0
 40
151.0
 40
151.0
 40
152.0
 40
152.0
 40
152.0
 40
152.0
 10
172.3928149322165
 20
-90.37633105243847
 30
0.0
 10
172.3928149322165
 20
-90.37633105243847
 30
0.0
 10
171.9704031620313
 20
-90.37633105243847
 30
0.0
 10
171.9704031620313
 20
-90.37633105243847
 30
0.0
 10
171.9704031620313
 20
-90.37633105243847
 30
0.0
 10
171.5479913918461
 20
-90.37633105243847
 30
0.0
 10
171.5479913918461
 20
-90.37633105243847
 30
0.0
 10
171.5479913918461
 20
-90.37633105243847
 30
0.0
 10
171.1255796216609
 20
-90.37633105243847
 30
0.0
 10
171.1255796216609
 20
-90.37633105243847
 30
0.0
 10
171.1255796216609
 20
-90.37633105243847
 30
0.0
 10
170.7031678514757
 20
-90.37633105243847
 30
0.0
 10
170.7031678514757
 20
-90.37633105243847
 30
0.0
 10
170.7031678514757
 20
-90.37633105243847
 30
0.0
 10
170.2807560812905
 20
-90.37633105243847
 30
0.0
 10
170.2807560812905
 20
-90.37633105243847
 30
0.0
 10
170.2807560812905
 20
-90.37633105243847
 30
0.0
 10
169.8583443111053
 20
-90.37633105243847
 30
0.0
 10
169.8583443111053
 20
-90.37633105243847
 30
0.0
 10
169.8583443111053
 20
-90.37633105243847
 30
0.0
 10
169.4359325409201
 20
-90.37633105243847
 30
0.0
 10
169.4359325409201
 20
-90.37633105243847
 30
0.0
 10
169.4359325409201
 20
-90.37633105243847
 30
0.0
 10
169.0135207707349
 20
-90.37633105243847
 30
0.0
 10
169.0135207707349
 20
-90.37633105243847
 30
0.0
 10
168.8760210886607
 20
-90.37633105243847
 30
0.0
 10
168.7344387665755
 20
-90.38840604482725
 30
0.0
 10
168.5908417869668
 20
-90.41138208135688
 30
0.0
 10
168.4472448073581
 20
-90.4343581178865
 30
0.0
 10
168.3016331702261
 20
-90.46823519855697
 30
0.0
 10
168.1560748580583
 20
-90.51183937512036
 30
0.0
 10
168.0105165458905
 20
-90.55544355168374
 30
0.0
 10
167.8650115586871
 20
-90.60877482414003
 30
0.0
 10
167.7216278789356
 20
-90.6706592442413
 30
0.0
 10
167.5782441991842
 20
-90.73254366434257
 30
0.0
 10
167.4369818268846
 20
-90.80298123208883
 30
0.0
 10
167.2999087445249
 20
-90.88079799923212
 30
0.0
 10
167.1628356621651
 20
-90.9586147663754
 30
0.0
 10
167.0299518697449
 20
-91.04381073291574
 30
0.0
 10
166.9033253497522
 20
-91.1352119506052
 30
0.0
 10
166.7766988297594
 20
-91.22661316829463
 30
0.0
 10
166.656329582194
 20
-91.3242196371332
 30
0.0
 10
166.5442855895437
 20
-91.42685740887292
 30
0.0
 10
166.4322415968934
 20
-91.52949518061266
 30
0.0
 10
166.3285228591582
 20
-91.63716425525357
 30
0.0
 10
166.2351973588257
 20
-91.74869068454771
 30
0.0
 10
166.1418718584932
 20
-91.86021711384186
 30
0.0
 10
166.0589395955635
 20
-91.97560089778925
 30
0.0
 10
165.9884685525242
 20
-92.09366808814195
 30
0.0
 10
165.9884685525242
 20
-92.09366808814195
 30
0.0
 10
165.7912233785894
 20
-92.42412272367946
 30
0.0
 10
165.7912233785894
 20
-92.42412272367946
 30
0.0
 10
165.7912233785894
 20
-92.42412272367946
 30
0.0
 10
165.5939782046546
 20
-92.75457735921695
 30
0.0
 10
165.5939782046546
 20
-92.75457735921695
 30
0.0
 10
165.5939782046546
 20
-92.75457735921695
 30
0.0
 10
165.3967330307198
 20
-93.08503199475446
 30
0.0
 10
165.3967330307198
 20
-93.08503199475446
 30
0.0
 10
165.3967330307198
 20
-93.08503199475446
 30
0.0
 10
165.199487856785
 20
-93.41548663029197
 30
0.0
 10
165.199487856785
 20
-93.41548663029197
 30
0.0
 10
165.199487856785
 20
-93.41548663029197
 30
0.0
 10
165.0022426828502
 20
-93.74594126582947
 30
0.0
 10
165.0022426828502
 20
-93.74594126582947
 30
0.0
 10
165.0022426828502
 20
-93.74594126582947
 30
0.0
 10
164.8049975089154
 20
-94.07639590136698
 30
0.0
 10
164.8049975089154
 20
-94.07639590136698
 30
0.0
 10
164.8049975089154
 20
-94.07639590136698
 30
0.0
 10
164.6077523349806
 20
-94.40685053690447
 30
0.0
 10
164.6077523349806
 20
-94.40685053690447
 30
0.0
 10
164.6077523349806
 20
-94.40685053690447
 30
0.0
 10
164.4105071610458
 20
-94.73730517244198
 30
0.0
 10
164.4105071610458
 20
-94.73730517244198
 30
0.0
 10
164.3400361180065
 20
-94.85537505427553
 30
0.0
 10
164.2571038550768
 20
-94.97076119326866
 30
0.0
 10
164.1637783547443
 20
-95.08228968322783
 30
0.0
 10
164.0704528544118
 20
-95.19381817318701
 30
0.0
 10
163.9667341166765
 20
-95.30148901411222
 30
0.0
 10
163.8546901240262
 20
-95.40412829980993
 30
0.0
 10
163.7426461313759
 20
-95.50676758550763
 30
0.0
 10
163.6222768838105
 20
-95.60437531597785
 30
0.0
 10
163.4956503638178
 20
-95.69577758502699
 30
0.0
 10
163.369023843825
 20
-95.78717985407614
 30
0.0
 10
163.2361400514049
 20
-95.87237666170425
 30
0.0
 10
163.0990669690451
 20
-95.95019410171776
 30
0.0
 10
162.9619938866853
 20
-96.02801154173126
 30
0.0
 10
162.8207315143858
 20
-96.09844961413016
 30
0.0
 10
162.6773478346344
 20
-96.16033441272093
 30
0.0
 10
162.5339641548829
 20
-96.2222192113117
 30
0.0
 10
162.3884591676794
 20
-96.27555073609432
 30
0.0
 10
162.2429008555117
 20
-96.31915508087525
 30
0.0
 10
162.0973425433439
 20
-96.3627594256562
 30
0.0
 10
161.9517309062118
 20
-96.39663659043543
 30
0.0
 10
161.8081339266032
 20
-96.41961266901944
 30
0.0
 10
161.6645369469945
 20
-96.44258874760347
 30
0.0
 10
161.5229546249093
 20
-96.45466373999224
 30
0.0
 10
161.3854549428351
 20
-96.45466373999224
 30
0.0
 10
161.3854549428351
 20
-96.45466373999224
 30
0.0
 10
158.2613777612702
 20
-96.45466373999224
 30
0.0
 10
158.2613777612702
 20
-96.45466373999224
 30
0.0
 10
158.2613777612702
 20
-96.45466373999224
 30
0.0
 10
155.1373005797053
 20
-96.45466373999224
 30
0.0
 10
155.1373005797053
 20
-96.45466373999224
 30
0.0
 10
155.1373005797053
 20
-96.45466373999224
 30
0.0
 10
152.0132233981404
 20
-96.45466373999224
 30
0.0
 10
152.0132233981404
 20
-96.45466373999224
 30
0.0
 10
152.0132233981404
 20
-96.45466373999224
 30
0.0
 10
148.8891462165755
 20
-96.45466373999224
 30
0.0
 10
148.8891462165755
 20
-96.45466373999224
 30
0.0
 10
148.8891462165755
 20
-96.45466373999224
 30
0.0
 10
145.7650690350106
 20
-96.45466373999224
 30
0.0
 10
145.7650690350106
 20
-96.45466373999224
 30
0.0
 10
145.7650690350106
 20
-96.45466373999224
 30
0.0
 10
142.6409918534457
 20
-96.45466373999224
 30
0.0
 10
142.6409918534457
 20
-96.45466373999224
 30
0.0
 10
142.6409918534457
 20
-96.45466373999224
 30
0.0
 10
139.5169146718808
 20
-96.45466373999224
 30
0.0
 10
139.5169146718808
 20
-96.45466373999224
 30
0.0
 10
139.5169146718808
 20
-96.45466373999224
 30
0.0
 10
136.3928374903159
 20
-96.45466373999224
 30
0.0
 10
136.3928374903159
 20
-96.45466373999224
 30
0.0
 10
136.2553378082417
 20
-96.45466373999224
 30
0.0
 10
136.1209629354318
 20
-96.46872605455205
 30
0.0
 10
135.9910801021027
 20
-96.49548353756413
 30
0.0
 10
135.8611972687735
 20
-96.52224102057622
 30
0.0
 10
135.7358064749251
 20
-96.56169367204056
 30
0.0
 10
135.6162749507736
 20
-96.61247434584963
 30
0.0
 10
135.4967434266221
 20
-96.6632550196587
 30
0.0
 10
135.3830711721676
 20
-96.7253637158125
 30
0.0
 10
135.2766254176264
 20
-96.79743328820348
 30
0.0
 10
135.1701796630853
 20
-96.86950286059445
 30
0.0
 10
135.0709604084574
 20
-96.95153330922261
 30
0.0
 10
134.9803348839592
 20
-97.0421574879804
 30
0.0
 10
134.889709359461
 20
-97.1327816667382
 30
0.0
 10
134.8076775650924
 20
-97.23199957562562
 30
0.0
 10
134.7356067310698
 20
-97.33844406853515
 30
0.0
 10
134.6635358970471
 20
-97.44488856144467
 30
0.0
 10
134.6014260233705
 20
-97.5585596383763
 30
0.0
 10
134.5506443402561
 20
-97.67809015322246
 30
0.0
 10
134.4998626571417
 20
-97.79762066806862
 30
0.0
 10
134.4604091645896
 20
-97.92301062082933
 30
0.0
 10
134.4336510928161
 20
-98.05289286539706
 30
0.0
 10
134.4068930210425
 20
-98.18277510996478
 30
0.0
 10
134.3928303700476
 20
-98.3171496463395
 30
0.0
 10
134.3928303700476
 20
-98.45464932841368
 30
0.0
 10
134.3928303700476
 20
-98.45464932841368
 30
0.0
 10
134.3928303700476
 20
-98.89215223171279
 30
0.0
 10
134.3928303700476
 20
-98.89215223171279
 30
0.0
 10
134.3928303700476
 20
-98.89215223171279
 30
0.0
 10
134.3928303700476
 20
-99.32965513501189
 30
0.0
 10
134.3928303700476
 20
-99.32965513501189
 30
0.0
 10
134.3928303700476
 20
-99.32965513501189
 30
0.0
 10
134.3928303700476
 20
-99.76715803831098
 30
0.0
 10
134.3928303700476
 20
-99.76715803831098
 30
0.0
 10
134.3928303700476
 20
-99.76715803831098
 30
0.0
 10
134.3928303700476
 20
-100.2046609416101
 30
0.0
 10
134.3928303700476
 20
-100.2046609416101
 30
0.0
 10
134.3928303700476
 20
-100.2046609416101
 30
0.0
 10
134.3928303700476
 20
-100.6421638449092
 30
0.0
 10
134.3928303700476
 20
-100.6421638449092
 30
0.0
 10
134.3928303700476
 20
-100.6421638449092
 30
0.0
 10
134.3928303700476
 20
-101.0796667482083
 30
0.0
 10
134.3928303700476
 20
-101.0796667482083
 30
0.0
 10
134.3928303700476
 20
-101.0796667482083
 30
0.0
 10
134.3928303700476
 20
-101.5171696515074
 30
0.0
 10
134.3928303700476
 20
-101.5171696515074
 30
0.0
 10
134.3928303700476
 20
-101.5171696515074
 30
0.0
 10
134.3928303700476
 20
-101.9546725548065
 30
0.0
 10
134.3928303700476
 20
-101.9546725548065
 30
0.0
 10
134.3928303700476
 20
-101.9546725548065
 30
0.0
 10
132.8928304128082
 20
-101.9546725548065
 30
0.0
 10
132.8928304128082
 20
-101.9546725548065
 30
0.0
 10
132.8928304128082
 20
-101.9546725548065
 30
0.0
 10
131.3928304555687
 20
-101.9546725548065
 30
0.0
 10
131.3928304555687
 20
-101.9546725548065
 30
0.0
 10
131.3928304555687
 20
-101.9546725548065
 30
0.0
 10
129.8928304983292
 20
-101.9546725548065
 30
0.0
 10
129.8928304983292
 20
-101.9546725548065
 30
0.0
 10
129.8928304983292
 20
-101.9546725548065
 30
0.0
 10
128.3928305410897
 20
-101.9546725548065
 30
0.0
 10
128.3928305410897
 20
-101.9546725548065
 30
0.0
 10
128.3928305410897
 20
-101.9546725548065
 30
0.0
 10
126.8928305838503
 20
-101.9546725548065
 30
0.0
 10
126.8928305838503
 20
-101.9546725548065
 30
0.0
 10
126.8928305838503
 20
-101.9546725548065
 30
0.0
 10
125.3928306266108
 20
-101.9546725548065
 30
0.0
 10
125.3928306266108
 20
-101.9546725548065
 30
0.0
 10
125.3928306266108
 20
-101.9546725548065
 30
0.0
 10
123.8928306693713
 20
-101.9546725548065
 30
0.0
 10
123.8928306693713
 20
-101.9546725548065
 30
0.0
 10
123.8928306693713
 20
-101.9546725548065
 30
0.0
 10
122.3928307121318
 20
-101.9546725548065
 30
0.0
 10
122.3928307121318
 20
-101.9546725548065
 30
0.0
 10
122.3928307121318
 20
-101.9546725548065
 30
0.0
 10
122.3928307121318
 20
-103.4546725120459
 30
0.0
 10
122.3928307121318
 20
-103.4546725120459
 30
0.0
 10
122.3928307121318
 20
-103.4546725120459
 30
0.0
 10
122.3928307121318
 20
-104.9546724692854
 30
0.0
 10
122.3928307121318
 20
-104.9546724692854
 30
0.0
 10
122.3928307121318
 20
-104.9546724692854
 30
0.0
 10
122.3928307121318
 20
-106.4546724265249
 30
0.0
 10
122.3928307121318
 20
-106.4546724265249
 30
0.0
 10
122.3928307121318
 20
-106.4546724265249
 30
0.0
 10
122.3928307121318
 20
-107.9546723837644
 30
0.0
 10
122.3928307121318
 20
-107.9546723837644
 30
0.0
 10
122.3928307121318
 20
-107.9546723837644
 30
0.0
 10
122.3928307121318
 20
-109.4546723410039
 30
0.0
 10
122.3928307121318
 20
-109.4546723410039
 30
0.0
 10
122.3928307121318
 20
-109.4546723410039
 30
0.0
 10
122.3928307121318
 20
-110.9546722982433
 30
0.0
 10
122.3928307121318
 20
-110.9546722982433
 30
0.0
 10
122.3928307121318
 20
-110.9546722982433
 30
0.0
 10
122.3928307121318
 20
-112.4546722554828
 30
0.0
 10
122.3928307121318
 20
-112.4546722554828
 30
0.0
 10
122.3928307121318
 20
-112.4546722554828
 30
0.0
 10
122.3928307121318
 20
-113.9546722127223
 30
0.0
 10
122.3928307121318
 20
-113.9546722127223
 30
0.0
 10
122.3928307121318
 20
-113.9546722127223
 30
0.0
 10
123.8928306693713
 20
-113.9546722127223
 30
0.0
 10
123.8928306693713
 20
-113.9546722127223
 30
0.0
 10
123.8928306693713
 20
-113.9546722127223
 30
0.0
 10
125.3928306266108
 20
-113.9546722127223
 30
0.0
 10
125.3928306266108
 20
-113.9546722127223
 30
0.0
 10
125.3928306266108
 20
-113.9546722127223
 30
0.0
 10
126.8928305838503
 20
-113.9546722127223
 30
0.0
 10
126.8928305838503
 20
-113.9546722127223
 30
0.0
 10
126.8928305838503
 20
-113.9546722127223
 30
0.0
 10
128.3928305410897
 20
-113.9546722127223
 30
0.0
 10
128.3928305410897
 20
-113.9546722127223
 30
0.0
 10
128.3928305410897
 20
-113.9546722127223
 30
0.0
 10
129.8928304983292
 20
-113.9546722127223
 30
0.0
 10
129.8928304983292
 20
-113.9546722127223
 30
0.0
 10
129.8928304983292
 20
-113.9546722127223
 30
0.0
 10
131.3928304555687
 20
-113.9546722127223
 30
0.0
 10
131.3928304555687
 20
-113.9546722127223
 30
0.0
 10
131.3928304555687
 20
-113.9546722127223
 30
0.0
 10
132.8928304128082
 20
-113.9546722127223
 30
0.0
 10
132.8928304128082
 20
-113.9546722127223
 30
0.0
 10
132.8928304128082
 20
-113.9546722127223
 30
0.0
 10
134.3928303700476
 20
-113.9546722127223
 30
0.0
 10
134.3928303700476
 20
-113.9546722127223
 30
0.0
 10
134.3928303700476
 20
-113.9546722127223
 30
0.0
 10
134.3928303700476
 20
-114.3921724245405
 30
0.0
 10
134.3928303700476
 20
-114.3921724245405
 30
0.0
 10
134.3928303700476
 20
-114.3921724245405
 30
0.0
 10
134.3928303700476
 20
-114.8296726363588
 30
0.0
 10
134.3928303700476
 20
-114.8296726363588
 30
0.0
 10
134.3928303700476
 20
-114.8296726363588
 30
0.0
 10
134.3928303700476
 20
-115.267172848177
 30
0.0
 10
134.3928303700476
 20
-115.267172848177
 30
0.0
 10
134.3928303700476
 20
-115.267172848177
 30
0.0
 10
134.3928303700476
 20
-115.7046730599953
 30
0.0
 10
134.3928303700476
 20
-115.7046730599953
 30
0.0
 10
134.3928303700476
 20
-115.7046730599953
 30
0.0
 10
134.3928303700476
 20
-116.1421732718135
 30
0.0
 10
134.3928303700476
 20
-116.1421732718135
 30
0.0
 10
134.3928303700476
 20
-116.1421732718135
 30
0.0
 10
134.3928303700476
 20
-116.5796734836318
 30
0.0
 10
134.3928303700476
 20
-116.5796734836318
 30
0.0
 10
134.3928303700476
 20
-116.5796734836318
 30
0.0
 10
134.3928303700476
 20
-117.01717369545
 30
0.0
 10
134.3928303700476
 20
-117.01717369545
 30
0.0
 10
134.3928303700476
 20
-117.01717369545
 30
0.0
 10
134.3928303700476
 20
-117.4546739072683
 30
0.0
 10
134.3928303700476
 20
-117.4546739072683
 30
0.0
 10
134.3928303700476
 20
-117.5921735893425
 30
0.0
 10
134.4068930210425
 20
-117.7265484621523
 30
0.0
 10
134.4336510928161
 20
-117.8564312954815
 30
0.0
 10
134.4604091645896
 20
-117.9863141288106
 30
0.0
 10
134.4998626571417
 20
-118.1117049226591
 30
0.0
 10
134.5506443402561
 20
-118.2312364468106
 30
0.0
 10
134.6014260233705
 20
-118.3507679709621
 30
0.0
 10
134.6635358970471
 20
-118.4644402254165
 30
0.0
 10
134.7356067310698
 20
-118.5708859799577
 30
0.0
 10
134.8076775650924
 20
-118.6773317344989
 30
0.0
 10
134.889709359461
 20
-118.7765509891267
 30
0.0
 10
134.9803348839592
 20
-118.867176513625
 30
0.0
 10
135.0709604084574
 20
-118.9578020381232
 30
0.0
 10
135.1701796630853
 20
-119.0398338324918
 30
0.0
 10
135.2766254176264
 20
-119.1119046665144
 30
0.0
 10
135.3830711721676
 20
-119.183975500537
 30
0.0
 10
135.4967434266221
 20
-119.2460853742137
 30
0.0
 10
135.6162749507736
 20
-119.2968670573281
 30
0.0
 10
135.7358064749251
 20
-119.3476487404425
 30
0.0
 10
135.8611972687735
 20
-119.3871022329946
 30
0.0
 10
135.9910801021027
 20
-119.4138603047681
 30
0.0
 10
136.1209629354318
 20
-119.4406183765416
 30
0.0
 10
136.2553378082417
 20
-119.4546810275365
 30
0.0
 10
136.3928374903159
 20
-119.4546810275365
 30
0.0
 10
136.3928374903159
 20
-119.4546810275365
 30
0.0
 10
140.8928346705534
 20
-119.4546810275365
 30
0.0
 10
140.8928346705534
 20
-119.4546810275365
 30
0.0
 10
140.8928346705534
 20
-119.4546810275365
 30
0.0
 10
145.392831850791
 20
-119.4546810275365
 30
0.0
 10
145.392831850791
 20
-119.4546810275365
 30
0.0
 10
145.392831850791
 20
-119.4546810275365
 30
0.0
 10
149.8928290310286
 20
-119.4546810275365
 30
0.0
 10
149.8928290310286
 20
-119.4546810275365
 30
0.0
 10
149.8928290310286
 20
-119.4546810275365
 30
0.0
 10
154.3928262112662
 20
-119.4546810275365
 30
0.0
 10
154.3928262112662
 20
-119.4546810275365
 30
0.0
 10
154.3928262112662
 20
-119.4546810275365
 30
0.0
 10
158.8928233915038
 20
-119.4546810275365
 30
0.0
 10
158.8928233915038
 20
-119.4546810275365
 30
0.0
 10
158.8928233915038
 20
-119.4546810275365
 30
0.0
 10
163.3928205717413
 20
-119.4546810275365
 30
0.0
 10
163.3928205717413
 20
-119.4546810275365
 30
0.0
 10
163.3928205717413
 20
-119.4546810275365
 30
0.0
 10
167.8928177519789
 20
-119.4546810275365
 30
0.0
 10
167.8928177519789
 20
-119.4546810275365
 30
0.0
 10
167.8928177519789
 20
-119.4546810275365
 30
0.0
 10
172.3928149322165
 20
-119.4546810275365
 30
0.0
 10
172.3928149322165
 20
-119.4546810275365
 30
0.0
 10
172.5303146142907
 20
-119.4546810275365
 30
0.0
 10
172.6646894871005
 20
-119.4406183765416
 30
0.0
 10
172.7945723204296
 20
-119.4138603047681
 30
0.0
 10
172.9244551537588
 20
-119.3871022329946
 30
0.0
 10
173.0498459476073
 20
-119.3476487404425
 30
0.0
 10
173.1693774717588
 20
-119.2968670573281
 30
0.0
 10
173.2889089959102
 20
-119.2460853742137
 30
0.0
 10
173.4025812503647
 20
-119.183975500537
 30
0.0
 10
173.5090270049059
 20
-119.1119046665144
 30
0.0
 10
173.6154727594471
 20
-119.0398338324918
 30
0.0
 10
173.7146920140749
 20
-118.9578020381232
 30
0.0
 10
173.8053175385731
 20
-118.867176513625
 30
0.0
 10
173.8959430630714
 20
-118.7765509891267
 30
0.0
 10
173.9779748574399
 20
-118.6773317344989
 30
0.0
 10
174.0500456914626
 20
-118.5708859799577
 30
0.0
 10
174.1221165254852
 20
-118.4644402254165
 30
0.0
 10
174.1842263991619
 20
-118.3507679709621
 30
0.0
 10
174.2350080822762
 20
-118.2312364468106
 30
0.0
 10
174.2857897653906
 20
-118.1117049226591
 30
0.0
 10
174.3252432579428
 20
-117.9863141288106
 30
0.0
 10
174.3520013297163
 20
-117.8564312954815
 30
0.0
 10
174.3787594014898
 20
-117.7265484621523
 30
0.0
 10
174.3928220524847
 20
-117.5921735893425
 30
0.0
 10
174.3928220524847
 20
-117.4546739072683
 30
0.0
 10
174.3928220524847
 20
-117.4546739072683
 30
0.0
 10
174.3928220524847
 20
-115.226698359187
 30
0.0
 10
174.3928220524847
 20
-115.226698359187
 30
0.0
 10
174.3928220524847
 20
-115.226698359187
 30
0.0
 10
174.3928220524847
 20
-112.9987228111058
 30
0.0
 10
174.3928220524847
 20
-112.9987228111058
 30
0.0
 10
174.3928220524847
 20
-112.9987228111058
 30
0.0
 10
174.3928220524847
 20
-110.7707472630245
 30
0.0
 10
174.3928220524847
 20
-110.7707472630245
 30
0.0
 10
174.3928220524847
 20
-110.7707472630245
 30
0.0
 10
174.3928220524847
 20
-108.5427717149433
 30
0.0
 10
174.3928220524847
 20
-108.5427717149433
 30
0.0
 10
174.3928220524847
 20
-108.5427717149433
 30
0.0
 10
174.3928220524847
 20
-106.3147961668621
 30
0.0
 10
174.3928220524847
 20
-106.3147961668621
 30
0.0
 10
174.3928220524847
 20
-106.3147961668621
 30
0.0
 10
174.3928220524847
 20
-104.0868206187808
 30
0.0
 10
174.3928220524847
 20
-104.0868206187808
 30
0.0
 10
174.3928220524847
 20
-104.0868206187808
 30
0.0
 10
174.3928220524847
 20
-101.8588450706996
 30
0.0
 10
174.3928220524847
 20
-101.8588450706996
 30
0.0
 10
174.3928220524847
 20
-101.8588450706996
 30
0.0
 10
174.3928220524847
 20
-99.63086952261833
 30
0.0
 10
174.3928220524847
 20
-99.63086952261833
 30
0.0
 10
174.3928220524847
 20
-99.49336984054415
 30
0.0
 10
174.3928220524847
 20
-99.3548601802818
 30
0.0
 10
174.3928220524847
 20
-99.2171096858361
 30
0.0
 10
174.3928220524847
 20
-99.07935919139041
 30
0.0
 10
174.3928220524847
 20
-98.94236786276136
 30
0.0
 10
174.3928220524847
 20
-98.80790484395376
 30
0.0
 10
174.3928220524847
 20
-98.67344182514617
 30
0.0
 10
174.3928220524847
 20
-98.54150711616002
 30
0.0
 10
174.3928220524847
 20
-98.41386986100012
 30
0.0
 10
174.3928220524847
 20
-98.28623260584023
 30
0.0
 10
174.3928220524847
 20
-98.16289280450658
 30
0.0
 10
174.3928220524847
 20
-98.045619601004
 30
0.0
 10
174.3928220524847
 20
-97.92834639750143
 30
0.0
 10
174.3928220524847
 20
-97.8171397918299
 30
0.0
 10
174.3928220524847
 20
-97.71376892799424
 30
0.0
 10
174.3928220524847
 20
-97.61039806415857
 30
0.0
 10
174.3928220524847
 20
-97.51486294215877
 30
0.0
 10
174.3928220524847
 20
-97.42893270599963
 30
0.0
 10
174.3928220524847
 20
-97.34300246984048
 30
0.0
 10
174.3928220524847
 20
-97.266677119522
 30
0.0
 10
174.3928220524847
 20
-97.201725799049
 30
0.0
 10
174.3928220524847
 20
-97.13677447857599
 30
0.0
 10
174.3928220524847
 20
-97.08319718794844
 30
0.0
 10
174.3928220524847
 20
-97.04276307117117
 30
0.0
 10
174.3928220524847
 20
-97.00233164587475
 30
0.0
 10
174.3928220524847
 20
-96.94875637385785
 30
0.0
 10
174.3928220524847
 20
-96.88380652528842
 30
0.0
 10
174.3928220524847
 20
-96.818856676719
 30
0.0
 10
174.3928220524847
 20
-96.74253225159707
 30
0.0
 10
174.3928220524847
 20
-96.65660252009059
 30
0.0
 10
174.3928220524847
 20
-96.5706727885841
 30
0.0
 10
174.3928220524847
 20
-96.47513775069307
 30
0.0
 10
174.3928220524847
 20
-96.37176667658547
 30
0.0
 10
174.3928220524847
 20
-96.26839560247785
 30
0.0
 10
174.3928220524847
 20
-96.15718849215368
 30
0.0
 10
174.3928220524847
 20
-96.03991461578087
 30
0.0
 10
174.3928220524847
 20
-95.92264073940808
 30
0.0
 10
174.3928220524847
 20
-95.79930009698668
 30
0.0
 10
174.3928220524847
 20
-95.67166195868464
 30
0.0
 10
174.3928220524847
 20
-95.54402382038259
 30
0.0
 10
174.3928220524847
 20
-95.4120881861999
 30
0.0
 10
174.3928220524847
 20
-95.27762432630453
 30
0.0
 10
174.3928220524847
 20
-95.14316046640917
 30
0.0
 10
174.3928220524847
 20
-95.00616838080113
 30
0.0
 10
174.3928220524847
 20
-94.86841733964839
 30
0.0
 10
174.3928220524847
 20
-94.73066629849565
 30
0.0
 10
174.3928220524847
 20
-94.5921563017982
 30
0.0
 10
174.3928220524847
 20
-94.45465661972402
 30
0.0
 10
174.3928220524847
 20
-94.45465661972402
 30
0.0
 10
174.3928220524847
 20
-94.194864122366
 30
0.0
 10
174.3928220524847
 20
-94.194864122366
 30
0.0
 10
174.3928220524847
 20
-94.194864122366
 30
0.0
 10
174.3928220524847
 20
-93.93507162500799
 30
0.0
 10
174.3928220524847
 20
-93.93507162500799
 30
0.0
 10
174.3928220524847
 20
-93.93507162500799
 30
0.0
 10
174.3928220524847
 20
-93.67527912764997
 30
0.0
 10
174.3928220524847
 20
-93.67527912764997
 30
0.0
 10
174.3928220524847
 20
-93.67527912764997
 30
0.0
 10
174.3928220524847
 20
-93.41548663029197
 30
0.0
 10
174.3928220524847
 20
-93.41548663029197
 30
0.0
 10
174.3928220524847
 20
-93.41548663029197
 30
0.0
 10
174.3928220524847
 20
-93.15569413293396
 30
0.0
 10
174.3928220524847
 20
-93.15569413293396
 30
0.0
 10
174.3928220524847
 20
-93.15569413293396
 30
0.0
 10
174.3928220524847
 20
-92.89590163557594
 30
0.0
 10
174.3928220524847
 20
-92.89590163557594
 30
0.0
 10
174.3928220524847
 20
-92.89590163557594
 30
0.0
 10
174.3928220524847
 20
-92.63610913821793
 30
0.0
 10
174.3928220524847
 20
-92.63610913821793
 30
0.0
 10
174.3928220524847
 20
-92.63610913821793
 30
0.0
 10
174.3928220524847
 20
-92.37631664085991
 30
0.0
 10
174.3928220524847
 20
-92.37631664085991
 30
0.0
 10
174.3928220524847
 20
-92.23881695878573
 30
0.0
 10
174.3787594014898
 20
-92.10444242241101
 30
0.0
 10
174.3520013297163
 20
-91.97456017784329
 30
0.0
 10
174.3252432579428
 20
-91.84467793327556
 30
0.0
 10
174.2857897653906
 20
-91.71928798051485
 30
0.0
 10
174.2350080822762
 20
-91.59975746566869
 30
0.0
 10
174.1842263991619
 20
-91.48022695082253
 30
0.0
 10
174.1221165254852
 20
-91.3665558738909
 30
0.0
 10
174.0500456914626
 20
-91.26011138098139
 30
0.0
 10
173.9779748574399
 20
-91.15366688807187
 30
0.0
 10
173.8959430630714
 20
-91.05444897918443
 30
0.0
 10
173.8053175385731
 20
-90.96382480042664
 30
0.0
 10
173.7146920140749
 20
-90.87320062166884
 30
0.0
 10
173.6154727594471
 20
-90.79117017304068
 30
0.0
 10
173.5090270049059
 20
-90.71910060064971
 30
0.0
 10
173.4025812503647
 20
-90.64703102825874
 30
0.0
 10
173.2889089959102
 20
-90.58492233210494
 30
0.0
 10
173.1693774717588
 20
-90.53414165829587
 30
0.0
 10
173.0498459476073
 20
-90.4833609844868
 30
0.0
 10
172.9244551537588
 20
-90.44390833302245
 30
0.0
 10
172.7945723204296
 20
-90.41715085001036
 30
0.0
 10
172.6646894871005
 20
-90.39039336699828
 30
0.0
 10
172.5303146142907
 20
-90.37633105243847
 30
0.0
 10
172.3928149322165
 20
-90.37633105243847
 30
0.0
  0
ENDSEC
  0
SECTION
  2
OBJECTS
  0
DICTIONARY
  5
C
330
0
100
AcDbDictionary
  3
ACAD_GROUP
350
D
  3
ACAD_LAYOUT
350
1A
  3
ACAD_MATERIAL
350
3B
  3
ACAD_MLEADERSTYLE
350
45
  3
ACAD_MLINESTYLE
350
17
  3
ACAD_PLOTSETTINGS
350
19
  3
ACAD_VISUALSTYLE
350
2A
  3
ACDBVARIABLEDICTIONARY
350
43
1001
ACAD
1000
TREAT_AS_HARD
1070
     0
  0
DICTIONARY
  5
D
102
{ACAD_REACTORS
330
C
102
}
330
C
100
AcDbDictionary
1001
ACAD
1000
TREAT_AS_HARD
1070
     0
  0
DICTIONARY
  5
1A
102
{ACAD_REACTORS
330
C
102
}
330
C
100
AcDbDictionary
1001
ACAD
1000
TREAT_AS_HARD
1070
     0
  0
DICTIONARY
  5
3B
102
{ACAD_REACTORS
330
C
102
}
330
C
100
AcDbDictionary
  3
BYBLOCK
350
3D
  3
BYLAYER
350
3C
  3
GLOBAL
350
3E
1001
ACAD
1000
TREAT_AS_HARD
1070
     0
  0
DICTIONARY
  5
45
102
{ACAD_REACTORS
330
C
102
}
330
C
100
AcDbDictionary
1001
ACAD
1000
TREAT_AS_HARD
1070
     0
  0
DICTIONARY
  5
17
102
{ACAD_REACTORS
330
C
102
}
330
C
100
AcDbDictionary
  3
STANDARD
350
18
1001
ACAD
1000
TREAT_AS_HARD
1070
     0
  0
DICTIONARY
  5
19
102
{ACAD_REACTORS
330
C
102
}
330
C
100
AcDbDictionary
1001
ACAD
1000
TREAT_AS_HARD
1070
     0
  0
DICTIONARY
  5
2A
102
{ACAD_REACTORS
330
C
102
}
330
C
100
AcDbDictionary
  3
2DWIREFRAME
350
2F
  3
3DWIREFRAME
350
30
  3
3D_HIDDEN
350
31
  3
BASIC
350
32
  3
BRIGHTEN
350
36
  3
COLORCHANGE
350
3A
  3
CONCEPTUAL
350
34
  3
DIM
350
35
  3
FACEPATTERN
350
39
  3
FLAT
350
2B
  3
FLATWITHEDGES
350
2C
  3
GOURAUD
350
2D
  3
GOURAUDWITHEDGES
350
2E
  3
LINEPATTERN
350
38
  3
REALISTIC
350
33
  3
THICKEN
350
37
1001
ACAD
1000
TREAT_AS_HARD
1070
     0
  0
DICTIONARY
  5
43
102
{ACAD_REACTORS
330
C
102
}
330
C
100
AcDbDictionary
  3
DIMASSOC
350
46
  3
HIDETEXT
350
47
1001
ACAD
1000
TREAT_AS_HARD
1070
     0
  0
MATERIAL
  5
3D
102
{ACAD_REACTORS
330
3B
102
}
102
{ACAD_XDICTIONARY
360
4A
102
}
330
3B
100
AcDbMaterial
  1
ByBlock
  0
MATERIAL
  5
3C
102
{ACAD_REACTORS
330
3B
102
}
102
{ACAD_XDICTIONARY
360
48
102
}
330
3B
100
AcDbMaterial
  1
ByLayer
  0
MATERIAL
  5
3E
102
{ACAD_REACTORS
330
3B
102
}
102
{ACAD_XDICTIONARY
360
4C
102
}
330
3B
100
AcDbMaterial
  1
Global
  0
MLINESTYLE
  5
18
102
{ACAD_REACTORS
330
17
102
}
330
17
100
AcDbMlineStyle
  2
Standard
 70
     0
  3

 62
   256
 51
90.0
 52
90.0
 71
     2
 49
0.5
 62
   256
  6
BYLAYER
 49
-0.5
 62
   256
  6
BYLAYER
  0
ACAD_PROXY_OBJECT
  5
2F
102
{ACAD_REACTORS
330
2A
102
}
330
2A
100
AcDbZombieObject
 90
      499
 91
      501
 93
      436
310
42CC9915DA5C99599C985B595049028333333333333E3BF0000000000000FB0107901411070040501600405405064090741402480A0340
1001
ACAD
1000
AcDbSavedByObjectVersion
1070
     0
  0
ACAD_PROXY_OBJECT
  5
30
102
{ACAD_REACTORS
330
2A
102
}
330
2A
100
AcDbZombieObject
 90
      499
 91
      501
 93
      436
310
42CCD915DA5C99599C985B595059028333333333333E3BF0000000000000FB0107901411070040501600405405064090741402480A0340
1001
ACAD
1000
AcDbSavedByObjectVersion
1070
     0
  0
ACAD_PROXY_OBJECT
  5
31
102
{ACAD_REACTORS
330
2A
102
}
330
2A
100
AcDbZombieObject
 90
      499
 91
      501
 93
      500
310
424CD108121A5919195B90640502408333333333333E3BF0000000000000FB01079024090700405020000000000001110200405405064090740C02480A0340
1001
ACAD
1000
AcDbSavedByObjectVersion
1070
     0
  0
ACAD_PROXY_OBJECT
  5
32
102
{ACAD_REACTORS
330
2A
102
}
330
2A
100
AcDbZombieObject
 90
      499
 91
      501
 93
      388
310
4150985CDA58D07406404333333333333E3BF0000000000000FB0107A41107004050150841D405064090741402480A0350
1001
ACAD
1000
AcDbSavedByObjectVersion
1070
     0
  0
ACAD_PROXY_OBJECT
  5
36
102
{ACAD_REACTORS
330
2A
102
}
330
2A
100
AcDbZombieObject
 90
      499
 91
      501
 93
      428
310
42109C9A59DA1D195B90C409028333333333333E3BF0000000000000FB010790141107004050150841D405064090741402480A029950
1001
ACAD
1000
AcDbSavedByObjectVersion
1070
     0
  0
ACAD_PROXY_OBJECT
  5
3A
102
{ACAD_REACTORS
330
2A
102
}
330
2A
100
AcDbZombieObject
 90
      499
 91
      501
 93
      452
310
42D0DBDB1BDC90DA185B99D95104090240C333333333333E3BF0000000000000FB0108901411070040501508421405064090741402480A0350
1001
ACAD
1000
AcDbSavedByObjectVersion
1070
     0
  0
ACAD_PROXY_OBJECT
  5
34
102
{ACAD_REACTORS
330
2A
102
}
330
2A
100
AcDbZombieObject
 90
      499
 91
      501
 93
      500
310
4290DBDB98D95C1D1D585B10940D028333333333333E3BF0000000000000FB0107902409070040501000000000000111010841D405064090740C02480A0340
1001
ACAD
1000
AcDbSavedByObjectVersion
1070
     0
  0
ACAD_PROXY_OBJECT
  5
35
102
{ACAD_REACTORS
330
2A
102
}
330
2A
100
AcDbZombieObject
 90
      499
 91
      501
 93
      412
310
40D11A5B50B409028333333333333E3BF0000000000000FB010790141107004050150841D405064090741402480A02677FFFFFD0
1001
ACAD
1000
AcDbSavedByObjectVersion
1070
     0
  0
ACAD_PROXY_OBJECT
  5
39
102
{ACAD_REACTORS
330
2A
102
}
330
2A
100
AcDbZombieObject
 90
      499
 91
      501
 93
      444
310
42D19858D95C185D1D195C9B90F409028333333333333E3BF0000000000000FB010790141107004050150841D405064090741402480A0350
1001
ACAD
1000
AcDbSavedByObjectVersion
1070
     0
  0
ACAD_PROXY_OBJECT
  5
2B
102
{ACAD_REACTORS
330
2A
102
}
330
2A
100
AcDbZombieObject
 90
      499
 91
      501
 93
      388
310
41119B185D240901404333333333333E3BF0000000000000F9010740A41107004050150841D405064090741402480A1B50
1001
ACAD
1000
AcDbSavedByObjectVersion
1070
     0
  0
ACAD_PROXY_OBJECT
  5
2C
102
{ACAD_REACTORS
330
2A
102
}
330
2A
100
AcDbZombieObject
 90
      499
 91
      501
 93
      476
310
43519B185D15DA5D1A115919D95CD0140901404333333333333E3BF0000000000000F9010740901411070040501600405405064090741402480A1B50
1001
ACAD
1000
AcDbSavedByObjectVersion
1070
     0
  0
ACAD_PROXY_OBJECT
  5
2D
102
{ACAD_REACTORS
330
2A
102
}
330
2A
100
AcDbZombieObject
 90
      499
 91
      501
 93
      412
310
41D1DBDD5C985D5910240902404333333333333E3BF0000000000000F9010740A411070040501641D405064090741402480A1B50
1001
ACAD
1000
AcDbSavedByObjectVersion
1070
     0
  0
ACAD_PROXY_OBJECT
  5
2E
102
{ACAD_REACTORS
330
2A
102
}
330
2A
100
AcDbZombieObject
 90
      499
 91
      501
 93
      500
310
4411DBDD5C985D5915DA5D1A115919D95CD0340902404333333333333E3BF0000000000000F9010740901411070040501600405405064090741402480A1B50
1001
ACAD
1000
AcDbSavedByObjectVersion
1070
     0
  0
ACAD_PROXY_OBJECT
  5
38
102
{ACAD_REACTORS
330
2A
102
}
330
2A
100
AcDbZombieObject
 90
      499
 91
      501
 93
      444
310
42D31A5B995C185D1D195C9B90E409028333333333333E3BF0000000000000FB010790141107004050750841D405064090741402483A0350
1001
ACAD
1000
AcDbSavedByObjectVersion
1070
     0
  0
ACAD_PROXY_OBJECT
  5
33
102
{ACAD_REACTORS
330
2A
102
}
330
2A
100
AcDbZombieObject
 90
      499
 91
      501
 93
      420
310
425499585B1A5CDD1A58D08409028333333333333E3BF0000000000000FB01079019070040501508421405064090741402480A1B40
1001
ACAD
1000
AcDbSavedByObjectVersion
1070
     0
  0
ACAD_PROXY_OBJECT
  5
37
102
{ACAD_REACTORS
330
2A
102
}
330
2A
100
AcDbZombieObject
 90
      499
 91
      501
 93
      412
310
41D51A1A58DAD95B90D409028333333333333E3BF0000000000000FB010790141107004050150C41D405064090741402480A0350
1001
ACAD
1000
AcDbSavedByObjectVersion
1070
     0
  0
DICTIONARYVAR
  5
46
102
{ACAD_REACTORS
330
43
102
}
330
43
100
DictionaryVariables
280
     0
  1
2
  0
DICTIONARYVAR
  5
47
102
{ACAD_REACTORS
330
43
102
}
330
43
100
DictionaryVariables
280
     0
  1
1
  0
DICTIONARY
  5
4A
330
3D
100
AcDbDictionary
  3
ACAD_XREC_ROUNDTRIP
360
4B
1001
ACAD
1000
TREAT_AS_HARD
1070
     1
  0
DICTIONARY
  5
48
330
3C
100
AcDbDictionary
  3
ACAD_XREC_ROUNDTRIP
360
49
1001
ACAD
1000
TREAT_AS_HARD
1070
     1
  0
DICTIONARY
  5
4C
330
3E
100
AcDbDictionary
  3
ACAD_XREC_ROUNDTRIP
360
4D
1001
ACAD
1000
TREAT_AS_HARD
1070
     1
  0
XRECORD
  5
4B
102
{ACAD_REACTORS
330
4A
102
}
330
4A
100
AcDbXrecord
102
MATERIAL
148
0.0
149
0.0
149
0.0
 93
        0
 94
      127
282
     0
 72
     1
 77
     1
171
     1
175
     1
179
     1
273
     0
  0
XRECORD
  5
49
102
{ACAD_REACTORS
330
48
102
}
330
48
100
AcDbXrecord
102
MATERIAL
148
0.0
149
0.0
149
0.0
 93
        0
 94
      127
282
     0
 72
     1
 77
     1
171
     1
175
     1
179
     1
273
     0
  0
XRECORD
  5
4D
102
{ACAD_REACTORS
330
4C
102
}
330
4C
100
AcDbXrecord
102
MATERIAL
148
0.0
149
0.0
149
0.0
 93
        0
 94
      127
282
     0
 72
     1
 77
     1
171
     1
175
     1
179
     1
273
     0
  0
ENDSEC
  0
EOF
