%
M48
M72
T01C0.01200
T02C0.01400
T03C0.01500
T04C0.01600
T05C0.01800
T06C0.02000
T07C0.02756
T08C0.04000
T09C0.04400
T10C0.05000
T11C0.09055
T12C0.12598
T13C0.19685
%
T01
X140600Y180175
X290600Y257175
X295100Y254675
X304600Y252175
X309600Y257675
X320100Y257675
X320100Y254175
X320100Y261175
X348200Y266375
X348100Y270175
X349600Y297675
X358600Y301675
X359100Y305675
X361100Y309675
X345100Y317175
X341600Y317175
X341600Y309675
X328100Y326675
X328100Y339175
X336100Y339175
X367100Y336175
X380600Y329675
X380600Y298675
X420100Y298675
X396100Y358175
X305600Y329675
X297900Y332875
X354600Y152675
X351600Y149175
T02
X99600Y103175
X99600Y106175
X102600Y106175
X102600Y103175
X105600Y103175
X105600Y106175
X105600Y109175
X102600Y109175
X99600Y109175
X37600Y288175
X37600Y291175
X37600Y294175
X37600Y297175
X37600Y300175
X34600Y300175
X34600Y297175
X31600Y297175
X31600Y300175
X31600Y294175
X34600Y294175
X34600Y291175
X31600Y291175
X31600Y288175
X34600Y288175
X162600Y460675
X162600Y463675
X165600Y463675
X165600Y460675
X105600Y479175
X105600Y482175
X105600Y485175
X102600Y485175
X102600Y482175
X99600Y482175
X99600Y485175
X99600Y479175
X102600Y479175
X230100Y300175
X230100Y296675
X230100Y293175
X230100Y289675
X233600Y289675
X233600Y293175
X233600Y296675
X233600Y300175
X237100Y300175
X237100Y296675
X240600Y296675
X240600Y300175
X240600Y293175
X237100Y293175
X237100Y289675
X240600Y289675
X284600Y322175
X284600Y330175
X310600Y320175
X313600Y320175
X313600Y317175
X310600Y317175
X343100Y273675
X313300Y257175
X403600Y157675
X403600Y154675
X403600Y151675
X406600Y151675
X409600Y151675
X409600Y154675
X409600Y157675
X406600Y157675
X406600Y154675
X349100Y109175
X346100Y109175
X346100Y106175
X349100Y106175
X349100Y103175
X346100Y103175
X343100Y103175
X343100Y106175
X343100Y109175
X403600Y427175
X403600Y430175
X403600Y433175
X406600Y433175
X409600Y433175
X409600Y430175
X409600Y427175
X406600Y427175
X406600Y430175
X349100Y479175
X346100Y479175
X346100Y482175
X349100Y482175
X349100Y485175
X346100Y485175
X343100Y485175
X343100Y482175
X343100Y479175
T03
X289600Y318675
T04
X324600Y239675
X380600Y304675
X380600Y310675
X407600Y311175
X445600Y294675
X445600Y269675
X398600Y256175
X446600Y327175
T05
X308600Y265175
T06
X324600Y310675
X360600Y249675
X367100Y237175
X145600Y249175
X124600Y248675
X143600Y276675
T07
X145100Y164892
X145100Y158986
X145100Y153081
X145100Y147175
X378100Y147175
X378100Y153081
X378100Y158986
X378100Y164892
X378100Y421675
X378100Y427581
X378100Y433486
X378100Y439392
X145100Y439392
X145100Y433486
X145100Y427581
X145100Y421675
T08
X205600Y463475
X204600Y473475
X205600Y483475
X289600Y473475
X290600Y463475
X290600Y483475
X289600Y310675
X289600Y300675
X289600Y286675
X289600Y276675
X289600Y124275
X290600Y114275
X289600Y104275
X205600Y114275
X204600Y124275
X204600Y104275
X76600Y143675
X66600Y142675
X56600Y143675
X56600Y156273
X66600Y155273
X76600Y156273
T09
X322100Y354675
X337600Y354675
X352600Y354675
X367100Y354675
X367100Y380175
X352600Y380175
X337600Y380175
X322100Y380175
X352600Y228175
X367100Y228175
X367100Y202675
X352600Y202675
T10
X344800Y258245
X344800Y329505
T11
X280200Y357475
X209200Y357475
X209200Y230475
X280200Y230475
X73400Y267375
X73400Y320375
T12
X74700Y349375
X102400Y349375
X102400Y377175
X74700Y377175
X46900Y377175
X19100Y377175
X19100Y349375
X46900Y349375
X19100Y293875
X19100Y238275
X46900Y238275
X46900Y210475
X19100Y210475
X19100Y182675
X46900Y182675
X74700Y182675
X102400Y182675
X102400Y210475
X74700Y210475
X74700Y238275
X102400Y238275
X130200Y238275
X130200Y210475
X130200Y182675
X158000Y210475
X158000Y238275
X158000Y293875
X130200Y293875
X130200Y349375
X130200Y377175
X130200Y404975
X102400Y404975
X74600Y404975
X46900Y404975
X19100Y404975
X158000Y377175
X158000Y349375
X176700Y483475
X232300Y483475
X260000Y483475
X315600Y483475
X417700Y404975
X417700Y377175
X445500Y377175
X445500Y404975
X445500Y210475
X445500Y182675
X417700Y182675
X417700Y210475
X315600Y104275
X260000Y104275
X232300Y104275
X176700Y104275
T13
X216600Y281675
X216600Y306175
X255100Y306175
X255100Y281675
M30
